<?xml version="1.0" encoding="UTF-8" standalone="no"?>
<!-- Created with Inkscape (http://www.inkscape.org/) -->

<svg
   xmlns:dc="http://purl.org/dc/elements/1.1/"
   xmlns:cc="http://creativecommons.org/ns#"
   xmlns:rdf="http://www.w3.org/1999/02/22-rdf-syntax-ns#"
   xmlns:svg="http://www.w3.org/2000/svg"
   xmlns="http://www.w3.org/2000/svg"
   xmlns:sodipodi="http://sodipodi.sourceforge.net/DTD/sodipodi-0.dtd"
   xmlns:inkscape="http://www.inkscape.org/namespaces/inkscape"
   width="210mm"
   height="297mm"
   viewBox="0 0 210 297"
   version="1.1"
   id="svg199977"
   inkscape:version="0.92.4 (33fec40, 2019-01-16)"
   sodipodi:docname="bsplines.svg">
  <defs
     id="defs199971">
    <clipPath
       id="clip1-06">
      <path
         inkscape:connector-curvature="0"
         d="M 177.76953,133 H 371.05469 V 328 H 177.76953 Z m 0,0"
         id="path110570" />
    </clipPath>
    <clipPath
       id="clip2-4">
      <path
         inkscape:connector-curvature="0"
         d="M 177.76953,133 H 371.05469 V 328 H 177.76953 Z m 0,0"
         id="path110573" />
    </clipPath>
    <clipPath
       id="clip3-30">
      <path
         inkscape:connector-curvature="0"
         d="M 177.76953,134.03516 H 371.05469 V 327.31641 H 177.76953 Z m 0,0"
         id="path110576" />
    </clipPath>
    <clipPath
       id="clip4-5">
      <path
         inkscape:connector-curvature="0"
         d="M 177.76953,178 H 371.05469 V 327.31641 H 177.76953 Z m 0,0"
         id="path110579" />
    </clipPath>
    <clipPath
       id="clip5-4">
      <path
         inkscape:connector-curvature="0"
         d="M 177.76953,134.03516 H 371.05469 V 327.31641 H 177.76953 Z m 0,0"
         id="path110582" />
    </clipPath>
  </defs>
  <sodipodi:namedview
     id="base"
     pagecolor="#ffffff"
     bordercolor="#666666"
     borderopacity="1.0"
     inkscape:pageopacity="0.0"
     inkscape:pageshadow="2"
     inkscape:zoom="7.9195959"
     inkscape:cx="430.45793"
     inkscape:cy="698.82362"
     inkscape:document-units="mm"
     inkscape:current-layer="layer1"
     showgrid="false"
     inkscape:pagecheckerboard="true"
     inkscape:window-width="1299"
     inkscape:window-height="713"
     inkscape:window-x="67"
     inkscape:window-y="27"
     inkscape:window-maximized="1" />
  <metadata
     id="metadata199974">
    <rdf:RDF>
      <cc:Work
         rdf:about="">
        <dc:format>image/svg+xml</dc:format>
        <dc:type
           rdf:resource="http://purl.org/dc/dcmitype/StillImage" />
        <dc:title></dc:title>
      </cc:Work>
    </rdf:RDF>
  </metadata>
  <g
     inkscape:label="Layer 1"
     inkscape:groupmode="layer"
     id="layer1">
    <g
       id="g116751"
       transform="matrix(0.26458333,0,0,0.26458333,68.691361,80.9166)"
       style="stroke-width:0.1;stroke-miterlimit:4;stroke-dasharray:none">
      <g
         transform="matrix(0.15160311,0,0,0.15158152,129.79187,71.001072)"
         id="g110635"
         clip-path="url(#clip1-06)"
         style="clip-rule:nonzero;stroke:#fafafa;stroke-width:0.65966403;stroke-miterlimit:4;stroke-dasharray:none;stroke-opacity:1">
        <path
           id="path110637"
           transform="matrix(1,0,0,-1,177.771,327.318)"
           d="M -0.00146875,0.00159375 V 193.28284 M 38.654781,0.00159375 V 193.28284 M 77.314938,0.00159375 V 193.28284 M 115.97119,0.00159375 V 193.28284 M 154.62744,0.00159375 V 193.28284 M 193.28369,0.00159375 V 193.28284"
           style="fill:none;stroke:#fafafa;stroke-width:0.65966403;stroke-linecap:butt;stroke-linejoin:miter;stroke-miterlimit:4;stroke-dasharray:none;stroke-opacity:1"
           inkscape:connector-curvature="0" />
      </g>
      <path
         id="path110639"
         d="m 156.74228,119.28453 h 29.30264 m -29.30264,-5.32667 h 29.30264 m -29.30264,-5.32667 h 29.30264 m -29.30264,-5.32726 h 29.30264 m -29.30264,-5.326672 h 29.30264 m -29.30264,-5.327263 h 29.30264"
         style="fill:none;stroke:#fafafa;stroke-width:0.1;stroke-linecap:butt;stroke-linejoin:miter;stroke-miterlimit:4;stroke-dasharray:none;stroke-opacity:1"
         inkscape:connector-curvature="0" />
      <g
         transform="matrix(0.15160311,0,0,0.15158152,129.79187,71.001072)"
         id="g110641"
         clip-path="url(#clip2-4)"
         style="clip-rule:nonzero;stroke:#fafafa;stroke-width:0.65966403;stroke-miterlimit:4;stroke-dasharray:none;stroke-opacity:1">
        <path
           id="path110643"
           transform="matrix(1,0,0,-1,177.771,327.318)"
           d="M -0.00146875,0.00159375 V 4.251594 M 38.654781,0.00159375 V 4.251594 M 77.314938,0.00159375 V 4.251594 M 115.97119,0.00159375 V 4.251594 M 154.62744,0.00159375 V 4.251594 M 193.28369,0.00159375 V 4.251594 M -0.00146875,193.28284 v -4.2539 m 38.65624975,4.2539 v -4.2539 m 38.660157,4.2539 v -4.2539 m 38.656252,4.2539 v -4.2539 m 38.65625,4.2539 v -4.2539 m 38.65625,4.2539 v -4.2539"
           style="fill:none;stroke:#fafafa;stroke-width:0.65966403;stroke-linecap:butt;stroke-linejoin:miter;stroke-miterlimit:4;stroke-dasharray:none;stroke-opacity:1"
           inkscape:connector-curvature="0" />
      </g>
      <path
         id="path110645"
         d="m 156.74228,119.28453 h 0.64491 m -0.64491,-5.32667 h 0.64491 m -0.64491,-5.32667 h 0.64491 m -0.64491,-5.32726 h 0.64491 m -0.64491,-5.326672 h 0.64491 m -0.64491,-5.327263 h 0.64491 m 28.65773,26.634535 h -0.64491 m 0.64491,-5.32667 h -0.64491 m 0.64491,-5.32667 h -0.64491 m 0.64491,-5.32726 h -0.64491 m 0.64491,-5.326672 h -0.64491 m 0.64491,-5.327263 h -0.64491"
         style="fill:none;stroke:#fafafa;stroke-width:0.1;stroke-linecap:butt;stroke-linejoin:miter;stroke-miterlimit:4;stroke-dasharray:none;stroke-opacity:1"
         inkscape:connector-curvature="0" />
      <path
         id="path110647"
         d="M 156.74228,120.61619 V 91.318327 h 29.30264 v 29.297863 z m 0,0"
         style="fill:none;stroke:#fafafa;stroke-width:0.1;stroke-linecap:butt;stroke-linejoin:miter;stroke-miterlimit:4;stroke-dasharray:none;stroke-opacity:1"
         inkscape:connector-curvature="0" />
      <g
         transform="matrix(0.15160311,0,0,0.15158152,129.79187,71.001072)"
         id="g110649"
         style="fill:#ffffff;fill-opacity:1;stroke-width:0.65966403;stroke-miterlimit:4;stroke-dasharray:none">
        <g
           id="use110651"
           style="fill:#ffffff;stroke-width:0.65966403;stroke-miterlimit:4;stroke-dasharray:none"
           transform="matrix(0.26458333,0,0,0.26458333,174.845,339.12399)">
          <path
             inkscape:connector-curvature="0"
             id="path201078"
             d="m 5.359375,-3.828125 c 0,-0.984375 -0.0625,-1.953125 -0.5,-2.859375 -0.484375,-1 -1.34375,-1.265625 -1.9375,-1.265625 -0.6875,0 -1.53125,0.34375 -1.984375,1.34375 -0.328125,0.75 -0.453125,1.5 -0.453125,2.78125 0,1.15625 0.09375,2.03125 0.515625,2.890625 0.46875,0.90625 1.296875,1.1875 1.921875,1.1875 1.03125,0 1.625,-0.625 1.984375,-1.3125 0.421875,-0.890625 0.453125,-2.0625 0.453125,-2.765625 z m -2.4375,3.84375 C 2.53125,0.015625 1.75,-0.203125 1.53125,-1.5 c -0.125,-0.71875 -0.125,-1.625 -0.125,-2.46875 0,-0.984375 0,-1.859375 0.1875,-2.5625 0.203125,-0.8125 0.8125,-1.171875 1.328125,-1.171875 0.453125,0 1.140625,0.265625 1.375,1.296875 0.15625,0.6875 0.15625,1.625 0.15625,2.4375 0,0.796875 0,1.703125 -0.140625,2.4375 -0.21875,1.3125 -0.984375,1.546875 -1.390625,1.546875 z m 0,0"
             style="stroke:none" />
        </g>
      </g>
      <g
         transform="matrix(0.15160311,0,0,0.15158152,129.79187,71.001072)"
         id="g110653"
         style="fill:#ffffff;fill-opacity:1;stroke-width:0.65966403;stroke-miterlimit:4;stroke-dasharray:none">
        <g
           id="use110655"
           style="fill:#ffffff;stroke-width:0.65966403;stroke-miterlimit:4;stroke-dasharray:none"
           transform="matrix(0.26458333,0,0,0.26458333,208.94901,339.12399)">
          <path
             inkscape:connector-curvature="0"
             id="path201082"
             d="m 5.359375,-3.828125 c 0,-0.984375 -0.0625,-1.953125 -0.5,-2.859375 -0.484375,-1 -1.34375,-1.265625 -1.9375,-1.265625 -0.6875,0 -1.53125,0.34375 -1.984375,1.34375 -0.328125,0.75 -0.453125,1.5 -0.453125,2.78125 0,1.15625 0.09375,2.03125 0.515625,2.890625 0.46875,0.90625 1.296875,1.1875 1.921875,1.1875 1.03125,0 1.625,-0.625 1.984375,-1.3125 0.421875,-0.890625 0.453125,-2.0625 0.453125,-2.765625 z m -2.4375,3.84375 C 2.53125,0.015625 1.75,-0.203125 1.53125,-1.5 c -0.125,-0.71875 -0.125,-1.625 -0.125,-2.46875 0,-0.984375 0,-1.859375 0.1875,-2.5625 0.203125,-0.8125 0.8125,-1.171875 1.328125,-1.171875 0.453125,0 1.140625,0.265625 1.375,1.296875 0.15625,0.6875 0.15625,1.625 0.15625,2.4375 0,0.796875 0,1.703125 -0.140625,2.4375 -0.21875,1.3125 -0.984375,1.546875 -1.390625,1.546875 z m 0,0"
             style="stroke:none" />
        </g>
      </g>
      <g
         transform="matrix(0.15160311,0,0,0.15158152,129.79187,71.001072)"
         id="g110657"
         style="fill:#ffffff;fill-opacity:1;stroke-width:0.65966403;stroke-miterlimit:4;stroke-dasharray:none">
        <g
           id="use110659"
           style="fill:#ffffff;stroke-width:0.65966403;stroke-miterlimit:4;stroke-dasharray:none"
           transform="matrix(0.26458333,0,0,0.26458333,214.802,339.12399)">
          <path
             inkscape:connector-curvature="0"
             id="path201150"
             d="m 2.203125,-0.578125 c 0,-0.34375 -0.296875,-0.578125 -0.578125,-0.578125 -0.34375,0 -0.578125,0.28125 -0.578125,0.578125 0,0.34375 0.28125,0.578125 0.5625,0.578125 0.34375,0 0.59375,-0.28125 0.59375,-0.578125 z m 0,0"
             style="stroke:none" />
        </g>
      </g>
      <g
         transform="matrix(0.15160311,0,0,0.15158152,129.79187,71.001072)"
         id="g110661"
         style="fill:#ffffff;fill-opacity:1;stroke-width:0.65966403;stroke-miterlimit:4;stroke-dasharray:none">
        <g
           id="use110663"
           style="fill:#ffffff;stroke-width:0.65966403;stroke-miterlimit:4;stroke-dasharray:none"
           transform="matrix(0.26458333,0,0,0.26458333,218.05299,339.12399)">
          <path
             inkscape:connector-curvature="0"
             id="path201118"
             d="M 5.265625,-2.015625 H 5 c -0.046875,0.203125 -0.140625,0.875 -0.25,1.0625 C 4.65625,-0.84375 3.984375,-0.84375 3.625,-0.84375 H 1.40625 c 0.328125,-0.28125 1.0625,-1.046875 1.359375,-1.328125 1.828125,-1.671875 2.5,-2.296875 2.5,-3.484375 0,-1.375 -1.09375,-2.296875 -2.484375,-2.296875 -1.375,0 -2.203125,1.1875 -2.203125,2.21875 0,0.609375 0.53125,0.609375 0.5625,0.609375 0.265625,0 0.5625,-0.1875 0.5625,-0.5625 0,-0.34375 -0.21875,-0.5625 -0.5625,-0.5625 -0.09375,0 -0.125,0 -0.15625,0.015625 0.21875,-0.8125 0.875,-1.375 1.640625,-1.375 1.015625,0 1.640625,0.859375 1.640625,1.953125 C 4.265625,-4.640625 3.6875,-3.75 3,-2.984375 L 0.578125,-0.28125 V 0 h 4.375 z m 0,0"
             style="stroke:none" />
        </g>
      </g>
      <g
         transform="matrix(0.15160311,0,0,0.15158152,129.79187,71.001072)"
         id="g110665"
         style="fill:#ffffff;fill-opacity:1;stroke-width:0.65966403;stroke-miterlimit:4;stroke-dasharray:none">
        <g
           id="use110667"
           style="fill:#ffffff;stroke-width:0.65966403;stroke-miterlimit:4;stroke-dasharray:none"
           transform="matrix(0.26458333,0,0,0.26458333,247.605,339.12399)">
          <path
             inkscape:connector-curvature="0"
             id="path201086"
             d="m 5.359375,-3.828125 c 0,-0.984375 -0.0625,-1.953125 -0.5,-2.859375 -0.484375,-1 -1.34375,-1.265625 -1.9375,-1.265625 -0.6875,0 -1.53125,0.34375 -1.984375,1.34375 -0.328125,0.75 -0.453125,1.5 -0.453125,2.78125 0,1.15625 0.09375,2.03125 0.515625,2.890625 0.46875,0.90625 1.296875,1.1875 1.921875,1.1875 1.03125,0 1.625,-0.625 1.984375,-1.3125 0.421875,-0.890625 0.453125,-2.0625 0.453125,-2.765625 z m -2.4375,3.84375 C 2.53125,0.015625 1.75,-0.203125 1.53125,-1.5 c -0.125,-0.71875 -0.125,-1.625 -0.125,-2.46875 0,-0.984375 0,-1.859375 0.1875,-2.5625 0.203125,-0.8125 0.8125,-1.171875 1.328125,-1.171875 0.453125,0 1.140625,0.265625 1.375,1.296875 0.15625,0.6875 0.15625,1.625 0.15625,2.4375 0,0.796875 0,1.703125 -0.140625,2.4375 -0.21875,1.3125 -0.984375,1.546875 -1.390625,1.546875 z m 0,0"
             style="stroke:none" />
        </g>
      </g>
      <g
         transform="matrix(0.15160311,0,0,0.15158152,129.79187,71.001072)"
         id="g110669"
         style="fill:#ffffff;fill-opacity:1;stroke-width:0.65966403;stroke-miterlimit:4;stroke-dasharray:none">
        <g
           id="use110671"
           style="fill:#ffffff;stroke-width:0.65966403;stroke-miterlimit:4;stroke-dasharray:none"
           transform="matrix(0.26458333,0,0,0.26458333,253.45799,339.12399)">
          <path
             inkscape:connector-curvature="0"
             id="path201154"
             d="m 2.203125,-0.578125 c 0,-0.34375 -0.296875,-0.578125 -0.578125,-0.578125 -0.34375,0 -0.578125,0.28125 -0.578125,0.578125 0,0.34375 0.28125,0.578125 0.5625,0.578125 0.34375,0 0.59375,-0.28125 0.59375,-0.578125 z m 0,0"
             style="stroke:none" />
        </g>
      </g>
      <g
         transform="matrix(0.15160311,0,0,0.15158152,129.79187,71.001072)"
         id="g110673"
         style="fill:#ffffff;fill-opacity:1;stroke-width:0.65966403;stroke-miterlimit:4;stroke-dasharray:none">
        <g
           id="use110675"
           style="fill:#ffffff;stroke-width:0.65966403;stroke-miterlimit:4;stroke-dasharray:none"
           transform="matrix(0.26458333,0,0,0.26458333,256.70901,339.12399)">
          <path
             inkscape:connector-curvature="0"
             id="path201126"
             d="m 4.3125,-7.78125 c 0,-0.234375 0,-0.28125 -0.171875,-0.28125 -0.09375,0 -0.125,0 -0.21875,0.140625 L 0.328125,-2.34375 V -2 H 3.46875 v 1.09375 c 0,0.4375 -0.03125,0.5625 -0.90625,0.5625 H 2.328125 V 0 c 0.28125,-0.03125 1.21875,-0.03125 1.5625,-0.03125 0.328125,0 1.28125,0 1.5625,0.03125 V -0.34375 H 5.21875 c -0.875,0 -0.90625,-0.125 -0.90625,-0.5625 V -2 H 5.515625 V -2.34375 H 4.3125 Z m -0.78125,0.9375 v 4.5 H 0.625 Z m 0,0"
             style="stroke:none" />
        </g>
      </g>
      <g
         transform="matrix(0.15160311,0,0,0.15158152,129.79187,71.001072)"
         id="g110677"
         style="fill:#ffffff;fill-opacity:1;stroke-width:0.65966403;stroke-miterlimit:4;stroke-dasharray:none">
        <g
           id="use110679"
           style="fill:#ffffff;stroke-width:0.65966403;stroke-miterlimit:4;stroke-dasharray:none"
           transform="matrix(0.26458333,0,0,0.26458333,286.26099,339.12399)">
          <path
             inkscape:connector-curvature="0"
             id="path201090"
             d="m 5.359375,-3.828125 c 0,-0.984375 -0.0625,-1.953125 -0.5,-2.859375 -0.484375,-1 -1.34375,-1.265625 -1.9375,-1.265625 -0.6875,0 -1.53125,0.34375 -1.984375,1.34375 -0.328125,0.75 -0.453125,1.5 -0.453125,2.78125 0,1.15625 0.09375,2.03125 0.515625,2.890625 0.46875,0.90625 1.296875,1.1875 1.921875,1.1875 1.03125,0 1.625,-0.625 1.984375,-1.3125 0.421875,-0.890625 0.453125,-2.0625 0.453125,-2.765625 z m -2.4375,3.84375 C 2.53125,0.015625 1.75,-0.203125 1.53125,-1.5 c -0.125,-0.71875 -0.125,-1.625 -0.125,-2.46875 0,-0.984375 0,-1.859375 0.1875,-2.5625 0.203125,-0.8125 0.8125,-1.171875 1.328125,-1.171875 0.453125,0 1.140625,0.265625 1.375,1.296875 0.15625,0.6875 0.15625,1.625 0.15625,2.4375 0,0.796875 0,1.703125 -0.140625,2.4375 -0.21875,1.3125 -0.984375,1.546875 -1.390625,1.546875 z m 0,0"
             style="stroke:none" />
        </g>
      </g>
      <g
         transform="matrix(0.15160311,0,0,0.15158152,129.79187,71.001072)"
         id="g110681"
         style="fill:#ffffff;fill-opacity:1;stroke-width:0.65966403;stroke-miterlimit:4;stroke-dasharray:none">
        <g
           id="use110683"
           style="fill:#ffffff;stroke-width:0.65966403;stroke-miterlimit:4;stroke-dasharray:none"
           transform="matrix(0.26458333,0,0,0.26458333,292.11401,339.12399)">
          <path
             inkscape:connector-curvature="0"
             id="path201158"
             d="m 2.203125,-0.578125 c 0,-0.34375 -0.296875,-0.578125 -0.578125,-0.578125 -0.34375,0 -0.578125,0.28125 -0.578125,0.578125 0,0.34375 0.28125,0.578125 0.5625,0.578125 0.34375,0 0.59375,-0.28125 0.59375,-0.578125 z m 0,0"
             style="stroke:none" />
        </g>
      </g>
      <g
         transform="matrix(0.15160311,0,0,0.15158152,129.79187,71.001072)"
         id="g110685"
         style="fill:#ffffff;fill-opacity:1;stroke-width:0.65966403;stroke-miterlimit:4;stroke-dasharray:none">
        <g
           id="use110687"
           style="fill:#ffffff;stroke-width:0.65966403;stroke-miterlimit:4;stroke-dasharray:none"
           transform="matrix(0.26458333,0,0,0.26458333,295.36499,339.12399)">
          <path
             inkscape:connector-curvature="0"
             id="path201134"
             d="m 1.46875,-4.15625 c 0,-3.03125 1.46875,-3.5 2.109375,-3.5 0.4375,0 0.875,0.125 1.09375,0.484375 -0.140625,0 -0.59375,0 -0.59375,0.484375 0,0.265625 0.171875,0.5 0.484375,0.5 0.296875,0 0.5,-0.1875 0.5,-0.53125 0,-0.625 -0.453125,-1.234375 -1.484375,-1.234375 -1.515625,0 -3.09375,1.546875 -3.09375,4.171875 0,3.296875 1.4375,4.03125 2.453125,4.03125 1.3125,0 2.421875,-1.140625 2.421875,-2.6875 0,-1.59375 -1.109375,-2.65625 -2.3125,-2.65625 -1.0625,0 -1.453125,0.921875 -1.578125,1.25 z m 1.46875,4.078125 c -0.75,0 -1.109375,-0.65625 -1.21875,-0.90625 C 1.609375,-1.296875 1.5,-1.890625 1.5,-2.71875 c 0,-0.953125 0.421875,-2.140625 1.5,-2.140625 0.65625,0 1,0.453125 1.1875,0.859375 0.1875,0.4375 0.1875,1.03125 0.1875,1.546875 0,0.609375 0,1.15625 -0.234375,1.609375 -0.296875,0.5625 -0.71875,0.765625 -1.203125,0.765625 z m 0,0"
             style="stroke:none" />
        </g>
      </g>
      <g
         transform="matrix(0.15160311,0,0,0.15158152,129.79187,71.001072)"
         id="g110689"
         style="fill:#ffffff;fill-opacity:1;stroke-width:0.65966403;stroke-miterlimit:4;stroke-dasharray:none">
        <g
           id="use110691"
           style="fill:#ffffff;stroke-width:0.65966403;stroke-miterlimit:4;stroke-dasharray:none"
           transform="matrix(0.26458333,0,0,0.26458333,324.91699,339.12399)">
          <path
             inkscape:connector-curvature="0"
             id="path201094"
             d="m 5.359375,-3.828125 c 0,-0.984375 -0.0625,-1.953125 -0.5,-2.859375 -0.484375,-1 -1.34375,-1.265625 -1.9375,-1.265625 -0.6875,0 -1.53125,0.34375 -1.984375,1.34375 -0.328125,0.75 -0.453125,1.5 -0.453125,2.78125 0,1.15625 0.09375,2.03125 0.515625,2.890625 0.46875,0.90625 1.296875,1.1875 1.921875,1.1875 1.03125,0 1.625,-0.625 1.984375,-1.3125 0.421875,-0.890625 0.453125,-2.0625 0.453125,-2.765625 z m -2.4375,3.84375 C 2.53125,0.015625 1.75,-0.203125 1.53125,-1.5 c -0.125,-0.71875 -0.125,-1.625 -0.125,-2.46875 0,-0.984375 0,-1.859375 0.1875,-2.5625 0.203125,-0.8125 0.8125,-1.171875 1.328125,-1.171875 0.453125,0 1.140625,0.265625 1.375,1.296875 0.15625,0.6875 0.15625,1.625 0.15625,2.4375 0,0.796875 0,1.703125 -0.140625,2.4375 -0.21875,1.3125 -0.984375,1.546875 -1.390625,1.546875 z m 0,0"
             style="stroke:none" />
        </g>
      </g>
      <g
         transform="matrix(0.15160311,0,0,0.15158152,129.79187,71.001072)"
         id="g110693"
         style="fill:#ffffff;fill-opacity:1;stroke-width:0.65966403;stroke-miterlimit:4;stroke-dasharray:none">
        <g
           id="use110695"
           style="fill:#ffffff;stroke-width:0.65966403;stroke-miterlimit:4;stroke-dasharray:none"
           transform="matrix(0.26458333,0,0,0.26458333,330.76999,339.12399)">
          <path
             inkscape:connector-curvature="0"
             id="path201162"
             d="m 2.203125,-0.578125 c 0,-0.34375 -0.296875,-0.578125 -0.578125,-0.578125 -0.34375,0 -0.578125,0.28125 -0.578125,0.578125 0,0.34375 0.28125,0.578125 0.5625,0.578125 0.34375,0 0.59375,-0.28125 0.59375,-0.578125 z m 0,0"
             style="stroke:none" />
        </g>
      </g>
      <g
         transform="matrix(0.15160311,0,0,0.15158152,129.79187,71.001072)"
         id="g110697"
         style="fill:#ffffff;fill-opacity:1;stroke-width:0.65966403;stroke-miterlimit:4;stroke-dasharray:none">
        <g
           id="use110699"
           style="fill:#ffffff;stroke-width:0.65966403;stroke-miterlimit:4;stroke-dasharray:none"
           transform="matrix(0.26458333,0,0,0.26458333,334.021,339.12399)">
          <path
             inkscape:connector-curvature="0"
             id="path201142"
             d="m 3.5625,-4.3125 c 0.59375,-0.328125 1.46875,-0.875 1.46875,-1.875 0,-1.046875 -1,-1.765625 -2.109375,-1.765625 -1.171875,0 -2.109375,0.875 -2.109375,1.96875 0,0.40625 0.125,0.8125 0.453125,1.21875 0.140625,0.15625 0.140625,0.15625 0.984375,0.75 -1.15625,0.53125 -1.765625,1.34375 -1.765625,2.203125 0,1.28125 1.21875,2.0625 2.4375,2.0625 1.328125,0 2.4375,-0.984375 2.4375,-2.234375 0,-1.21875 -0.859375,-1.75 -1.796875,-2.328125 z M 1.9375,-5.390625 C 1.78125,-5.5 1.296875,-5.8125 1.296875,-6.390625 c 0,-0.78125 0.8125,-1.265625 1.625,-1.265625 0.859375,0 1.625,0.609375 1.625,1.46875 0,0.734375 -0.53125,1.328125 -1.21875,1.703125 z M 2.5,-3.84375 l 1.4375,0.9375 c 0.3125,0.203125 0.875,0.578125 0.875,1.296875 0,0.921875 -0.921875,1.53125 -1.890625,1.53125 -1.015625,0 -1.875,-0.734375 -1.875,-1.734375 0,-0.921875 0.671875,-1.671875 1.453125,-2.03125 z m 0,0"
             style="stroke:none" />
        </g>
      </g>
      <g
         transform="matrix(0.15160311,0,0,0.15158152,129.79187,71.001072)"
         id="g110701"
         style="fill:#ffffff;fill-opacity:1;stroke-width:0.65966403;stroke-miterlimit:4;stroke-dasharray:none">
        <g
           id="use110703"
           style="fill:#ffffff;stroke-width:0.65966403;stroke-miterlimit:4;stroke-dasharray:none"
           transform="matrix(0.26458333,0,0,0.26458333,368.125,339.12399)">
          <path
             inkscape:connector-curvature="0"
             id="path201070"
             d="m 3.4375,-7.65625 c 0,-0.28125 0,-0.296875 -0.234375,-0.296875 C 2.921875,-7.625 2.3125,-7.1875 1.09375,-7.1875 v 0.34375 c 0.265625,0 0.859375,0 1.53125,-0.296875 v 6.21875 c 0,0.4375 -0.046875,0.578125 -1.09375,0.578125 h -0.375 V 0 c 0.328125,-0.03125 1.484375,-0.03125 1.875,-0.03125 0.40625,0 1.546875,0 1.875,0.03125 v -0.34375 h -0.375 c -1.046875,0 -1.09375,-0.140625 -1.09375,-0.578125 z m 0,0"
             style="stroke:none" />
        </g>
      </g>
      <g
         transform="matrix(0.15160311,0,0,0.15158152,129.79187,71.001072)"
         id="g110705"
         style="fill:#ffffff;fill-opacity:1;stroke-width:0.65966403;stroke-miterlimit:4;stroke-dasharray:none">
        <g
           id="use110707"
           style="fill:#ffffff;stroke-width:0.65966403;stroke-miterlimit:4;stroke-dasharray:none"
           transform="matrix(0.26458333,0,0,0.26458333,167.81799,322.38501)">
          <path
             inkscape:connector-curvature="0"
             id="path201098"
             d="m 5.359375,-3.828125 c 0,-0.984375 -0.0625,-1.953125 -0.5,-2.859375 -0.484375,-1 -1.34375,-1.265625 -1.9375,-1.265625 -0.6875,0 -1.53125,0.34375 -1.984375,1.34375 -0.328125,0.75 -0.453125,1.5 -0.453125,2.78125 0,1.15625 0.09375,2.03125 0.515625,2.890625 0.46875,0.90625 1.296875,1.1875 1.921875,1.1875 1.03125,0 1.625,-0.625 1.984375,-1.3125 0.421875,-0.890625 0.453125,-2.0625 0.453125,-2.765625 z m -2.4375,3.84375 C 2.53125,0.015625 1.75,-0.203125 1.53125,-1.5 c -0.125,-0.71875 -0.125,-1.625 -0.125,-2.46875 0,-0.984375 0,-1.859375 0.1875,-2.5625 0.203125,-0.8125 0.8125,-1.171875 1.328125,-1.171875 0.453125,0 1.140625,0.265625 1.375,1.296875 0.15625,0.6875 0.15625,1.625 0.15625,2.4375 0,0.796875 0,1.703125 -0.140625,2.4375 -0.21875,1.3125 -0.984375,1.546875 -1.390625,1.546875 z m 0,0"
             style="stroke:none" />
        </g>
      </g>
      <g
         transform="matrix(0.15160311,0,0,0.15158152,129.79187,71.001072)"
         id="g110709"
         style="fill:#ffffff;fill-opacity:1;stroke-width:0.65966403;stroke-miterlimit:4;stroke-dasharray:none">
        <g
           id="use110711"
           style="fill:#ffffff;stroke-width:0.65966403;stroke-miterlimit:4;stroke-dasharray:none"
           transform="matrix(0.26458333,0,0,0.26458333,158.713,287.24301)">
          <path
             inkscape:connector-curvature="0"
             id="path201102"
             d="m 5.359375,-3.828125 c 0,-0.984375 -0.0625,-1.953125 -0.5,-2.859375 -0.484375,-1 -1.34375,-1.265625 -1.9375,-1.265625 -0.6875,0 -1.53125,0.34375 -1.984375,1.34375 -0.328125,0.75 -0.453125,1.5 -0.453125,2.78125 0,1.15625 0.09375,2.03125 0.515625,2.890625 0.46875,0.90625 1.296875,1.1875 1.921875,1.1875 1.03125,0 1.625,-0.625 1.984375,-1.3125 0.421875,-0.890625 0.453125,-2.0625 0.453125,-2.765625 z m -2.4375,3.84375 C 2.53125,0.015625 1.75,-0.203125 1.53125,-1.5 c -0.125,-0.71875 -0.125,-1.625 -0.125,-2.46875 0,-0.984375 0,-1.859375 0.1875,-2.5625 0.203125,-0.8125 0.8125,-1.171875 1.328125,-1.171875 0.453125,0 1.140625,0.265625 1.375,1.296875 0.15625,0.6875 0.15625,1.625 0.15625,2.4375 0,0.796875 0,1.703125 -0.140625,2.4375 -0.21875,1.3125 -0.984375,1.546875 -1.390625,1.546875 z m 0,0"
             style="stroke:none" />
        </g>
      </g>
      <g
         transform="matrix(0.15160311,0,0,0.15158152,129.79187,71.001072)"
         id="g110713"
         style="fill:#ffffff;fill-opacity:1;stroke-width:0.65966403;stroke-miterlimit:4;stroke-dasharray:none">
        <g
           id="use110715"
           style="fill:#ffffff;stroke-width:0.65966403;stroke-miterlimit:4;stroke-dasharray:none"
           transform="matrix(0.26458333,0,0,0.26458333,164.56599,287.24301)">
          <path
             inkscape:connector-curvature="0"
             id="path201166"
             d="m 2.203125,-0.578125 c 0,-0.34375 -0.296875,-0.578125 -0.578125,-0.578125 -0.34375,0 -0.578125,0.28125 -0.578125,0.578125 0,0.34375 0.28125,0.578125 0.5625,0.578125 0.34375,0 0.59375,-0.28125 0.59375,-0.578125 z m 0,0"
             style="stroke:none" />
        </g>
      </g>
      <g
         transform="matrix(0.15160311,0,0,0.15158152,129.79187,71.001072)"
         id="g110717"
         style="fill:#ffffff;fill-opacity:1;stroke-width:0.65966403;stroke-miterlimit:4;stroke-dasharray:none">
        <g
           id="use110719"
           style="fill:#ffffff;stroke-width:0.65966403;stroke-miterlimit:4;stroke-dasharray:none"
           transform="matrix(0.26458333,0,0,0.26458333,167.81799,287.24301)">
          <path
             inkscape:connector-curvature="0"
             id="path201122"
             d="M 5.265625,-2.015625 H 5 c -0.046875,0.203125 -0.140625,0.875 -0.25,1.0625 C 4.65625,-0.84375 3.984375,-0.84375 3.625,-0.84375 H 1.40625 c 0.328125,-0.28125 1.0625,-1.046875 1.359375,-1.328125 1.828125,-1.671875 2.5,-2.296875 2.5,-3.484375 0,-1.375 -1.09375,-2.296875 -2.484375,-2.296875 -1.375,0 -2.203125,1.1875 -2.203125,2.21875 0,0.609375 0.53125,0.609375 0.5625,0.609375 0.265625,0 0.5625,-0.1875 0.5625,-0.5625 0,-0.34375 -0.21875,-0.5625 -0.5625,-0.5625 -0.09375,0 -0.125,0 -0.15625,0.015625 0.21875,-0.8125 0.875,-1.375 1.640625,-1.375 1.015625,0 1.640625,0.859375 1.640625,1.953125 C 4.265625,-4.640625 3.6875,-3.75 3,-2.984375 L 0.578125,-0.28125 V 0 h 4.375 z m 0,0"
             style="stroke:none" />
        </g>
      </g>
      <g
         transform="matrix(0.15160311,0,0,0.15158152,129.79187,71.001072)"
         id="g110721"
         style="fill:#ffffff;fill-opacity:1;stroke-width:0.65966403;stroke-miterlimit:4;stroke-dasharray:none">
        <g
           id="use110723"
           style="fill:#ffffff;stroke-width:0.65966403;stroke-miterlimit:4;stroke-dasharray:none"
           transform="matrix(0.26458333,0,0,0.26458333,158.713,252.10201)">
          <path
             inkscape:connector-curvature="0"
             id="path201106"
             d="m 5.359375,-3.828125 c 0,-0.984375 -0.0625,-1.953125 -0.5,-2.859375 -0.484375,-1 -1.34375,-1.265625 -1.9375,-1.265625 -0.6875,0 -1.53125,0.34375 -1.984375,1.34375 -0.328125,0.75 -0.453125,1.5 -0.453125,2.78125 0,1.15625 0.09375,2.03125 0.515625,2.890625 0.46875,0.90625 1.296875,1.1875 1.921875,1.1875 1.03125,0 1.625,-0.625 1.984375,-1.3125 0.421875,-0.890625 0.453125,-2.0625 0.453125,-2.765625 z m -2.4375,3.84375 C 2.53125,0.015625 1.75,-0.203125 1.53125,-1.5 c -0.125,-0.71875 -0.125,-1.625 -0.125,-2.46875 0,-0.984375 0,-1.859375 0.1875,-2.5625 0.203125,-0.8125 0.8125,-1.171875 1.328125,-1.171875 0.453125,0 1.140625,0.265625 1.375,1.296875 0.15625,0.6875 0.15625,1.625 0.15625,2.4375 0,0.796875 0,1.703125 -0.140625,2.4375 -0.21875,1.3125 -0.984375,1.546875 -1.390625,1.546875 z m 0,0"
             style="stroke:none" />
        </g>
      </g>
      <g
         transform="matrix(0.15160311,0,0,0.15158152,129.79187,71.001072)"
         id="g110725"
         style="fill:#ffffff;fill-opacity:1;stroke-width:0.65966403;stroke-miterlimit:4;stroke-dasharray:none">
        <g
           id="use110727"
           style="fill:#ffffff;stroke-width:0.65966403;stroke-miterlimit:4;stroke-dasharray:none"
           transform="matrix(0.26458333,0,0,0.26458333,164.56599,252.10201)">
          <path
             inkscape:connector-curvature="0"
             id="path201170"
             d="m 2.203125,-0.578125 c 0,-0.34375 -0.296875,-0.578125 -0.578125,-0.578125 -0.34375,0 -0.578125,0.28125 -0.578125,0.578125 0,0.34375 0.28125,0.578125 0.5625,0.578125 0.34375,0 0.59375,-0.28125 0.59375,-0.578125 z m 0,0"
             style="stroke:none" />
        </g>
      </g>
      <g
         transform="matrix(0.15160311,0,0,0.15158152,129.79187,71.001072)"
         id="g110729"
         style="fill:#ffffff;fill-opacity:1;stroke-width:0.65966403;stroke-miterlimit:4;stroke-dasharray:none">
        <g
           id="use110731"
           style="fill:#ffffff;stroke-width:0.65966403;stroke-miterlimit:4;stroke-dasharray:none"
           transform="matrix(0.26458333,0,0,0.26458333,167.81799,252.10201)">
          <path
             inkscape:connector-curvature="0"
             id="path201130"
             d="m 4.3125,-7.78125 c 0,-0.234375 0,-0.28125 -0.171875,-0.28125 -0.09375,0 -0.125,0 -0.21875,0.140625 L 0.328125,-2.34375 V -2 H 3.46875 v 1.09375 c 0,0.4375 -0.03125,0.5625 -0.90625,0.5625 H 2.328125 V 0 c 0.28125,-0.03125 1.21875,-0.03125 1.5625,-0.03125 0.328125,0 1.28125,0 1.5625,0.03125 V -0.34375 H 5.21875 c -0.875,0 -0.90625,-0.125 -0.90625,-0.5625 V -2 H 5.515625 V -2.34375 H 4.3125 Z m -0.78125,0.9375 v 4.5 H 0.625 Z m 0,0"
             style="stroke:none" />
        </g>
      </g>
      <g
         transform="matrix(0.15160311,0,0,0.15158152,129.79187,71.001072)"
         id="g110733"
         style="fill:#ffffff;fill-opacity:1;stroke-width:0.65966403;stroke-miterlimit:4;stroke-dasharray:none">
        <g
           id="use110735"
           style="fill:#ffffff;stroke-width:0.65966403;stroke-miterlimit:4;stroke-dasharray:none"
           transform="matrix(0.26458333,0,0,0.26458333,158.713,216.96001)">
          <path
             inkscape:connector-curvature="0"
             id="path201110"
             d="m 5.359375,-3.828125 c 0,-0.984375 -0.0625,-1.953125 -0.5,-2.859375 -0.484375,-1 -1.34375,-1.265625 -1.9375,-1.265625 -0.6875,0 -1.53125,0.34375 -1.984375,1.34375 -0.328125,0.75 -0.453125,1.5 -0.453125,2.78125 0,1.15625 0.09375,2.03125 0.515625,2.890625 0.46875,0.90625 1.296875,1.1875 1.921875,1.1875 1.03125,0 1.625,-0.625 1.984375,-1.3125 0.421875,-0.890625 0.453125,-2.0625 0.453125,-2.765625 z m -2.4375,3.84375 C 2.53125,0.015625 1.75,-0.203125 1.53125,-1.5 c -0.125,-0.71875 -0.125,-1.625 -0.125,-2.46875 0,-0.984375 0,-1.859375 0.1875,-2.5625 0.203125,-0.8125 0.8125,-1.171875 1.328125,-1.171875 0.453125,0 1.140625,0.265625 1.375,1.296875 0.15625,0.6875 0.15625,1.625 0.15625,2.4375 0,0.796875 0,1.703125 -0.140625,2.4375 -0.21875,1.3125 -0.984375,1.546875 -1.390625,1.546875 z m 0,0"
             style="stroke:none" />
        </g>
      </g>
      <g
         transform="matrix(0.15160311,0,0,0.15158152,129.79187,71.001072)"
         id="g110737"
         style="fill:#ffffff;fill-opacity:1;stroke-width:0.65966403;stroke-miterlimit:4;stroke-dasharray:none">
        <g
           id="use110739"
           style="fill:#ffffff;stroke-width:0.65966403;stroke-miterlimit:4;stroke-dasharray:none"
           transform="matrix(0.26458333,0,0,0.26458333,164.56599,216.96001)">
          <path
             inkscape:connector-curvature="0"
             id="path201174"
             d="m 2.203125,-0.578125 c 0,-0.34375 -0.296875,-0.578125 -0.578125,-0.578125 -0.34375,0 -0.578125,0.28125 -0.578125,0.578125 0,0.34375 0.28125,0.578125 0.5625,0.578125 0.34375,0 0.59375,-0.28125 0.59375,-0.578125 z m 0,0"
             style="stroke:none" />
        </g>
      </g>
      <g
         transform="matrix(0.15160311,0,0,0.15158152,129.79187,71.001072)"
         id="g110741"
         style="fill:#ffffff;fill-opacity:1;stroke-width:0.65966403;stroke-miterlimit:4;stroke-dasharray:none">
        <g
           id="use110743"
           style="fill:#ffffff;stroke-width:0.65966403;stroke-miterlimit:4;stroke-dasharray:none"
           transform="matrix(0.26458333,0,0,0.26458333,167.81799,216.96001)">
          <path
             inkscape:connector-curvature="0"
             id="path201138"
             d="m 1.46875,-4.15625 c 0,-3.03125 1.46875,-3.5 2.109375,-3.5 0.4375,0 0.875,0.125 1.09375,0.484375 -0.140625,0 -0.59375,0 -0.59375,0.484375 0,0.265625 0.171875,0.5 0.484375,0.5 0.296875,0 0.5,-0.1875 0.5,-0.53125 0,-0.625 -0.453125,-1.234375 -1.484375,-1.234375 -1.515625,0 -3.09375,1.546875 -3.09375,4.171875 0,3.296875 1.4375,4.03125 2.453125,4.03125 1.3125,0 2.421875,-1.140625 2.421875,-2.6875 0,-1.59375 -1.109375,-2.65625 -2.3125,-2.65625 -1.0625,0 -1.453125,0.921875 -1.578125,1.25 z m 1.46875,4.078125 c -0.75,0 -1.109375,-0.65625 -1.21875,-0.90625 C 1.609375,-1.296875 1.5,-1.890625 1.5,-2.71875 c 0,-0.953125 0.421875,-2.140625 1.5,-2.140625 0.65625,0 1,0.453125 1.1875,0.859375 0.1875,0.4375 0.1875,1.03125 0.1875,1.546875 0,0.609375 0,1.15625 -0.234375,1.609375 -0.296875,0.5625 -0.71875,0.765625 -1.203125,0.765625 z m 0,0"
             style="stroke:none" />
        </g>
      </g>
      <g
         transform="matrix(0.15160311,0,0,0.15158152,129.79187,71.001072)"
         id="g110745"
         style="fill:#ffffff;fill-opacity:1;stroke-width:0.65966403;stroke-miterlimit:4;stroke-dasharray:none">
        <g
           id="use110747"
           style="fill:#ffffff;stroke-width:0.65966403;stroke-miterlimit:4;stroke-dasharray:none"
           transform="matrix(0.26458333,0,0,0.26458333,158.713,181.81799)">
          <path
             inkscape:connector-curvature="0"
             id="path201114"
             d="m 5.359375,-3.828125 c 0,-0.984375 -0.0625,-1.953125 -0.5,-2.859375 -0.484375,-1 -1.34375,-1.265625 -1.9375,-1.265625 -0.6875,0 -1.53125,0.34375 -1.984375,1.34375 -0.328125,0.75 -0.453125,1.5 -0.453125,2.78125 0,1.15625 0.09375,2.03125 0.515625,2.890625 0.46875,0.90625 1.296875,1.1875 1.921875,1.1875 1.03125,0 1.625,-0.625 1.984375,-1.3125 0.421875,-0.890625 0.453125,-2.0625 0.453125,-2.765625 z m -2.4375,3.84375 C 2.53125,0.015625 1.75,-0.203125 1.53125,-1.5 c -0.125,-0.71875 -0.125,-1.625 -0.125,-2.46875 0,-0.984375 0,-1.859375 0.1875,-2.5625 0.203125,-0.8125 0.8125,-1.171875 1.328125,-1.171875 0.453125,0 1.140625,0.265625 1.375,1.296875 0.15625,0.6875 0.15625,1.625 0.15625,2.4375 0,0.796875 0,1.703125 -0.140625,2.4375 -0.21875,1.3125 -0.984375,1.546875 -1.390625,1.546875 z m 0,0"
             style="stroke:none" />
        </g>
      </g>
      <g
         transform="matrix(0.15160311,0,0,0.15158152,129.79187,71.001072)"
         id="g110749"
         style="fill:#ffffff;fill-opacity:1;stroke-width:0.65966403;stroke-miterlimit:4;stroke-dasharray:none">
        <g
           id="use110751"
           style="fill:#ffffff;stroke-width:0.65966403;stroke-miterlimit:4;stroke-dasharray:none"
           transform="matrix(0.26458333,0,0,0.26458333,164.56599,181.81799)">
          <path
             inkscape:connector-curvature="0"
             id="path201178"
             d="m 2.203125,-0.578125 c 0,-0.34375 -0.296875,-0.578125 -0.578125,-0.578125 -0.34375,0 -0.578125,0.28125 -0.578125,0.578125 0,0.34375 0.28125,0.578125 0.5625,0.578125 0.34375,0 0.59375,-0.28125 0.59375,-0.578125 z m 0,0"
             style="stroke:none" />
        </g>
      </g>
      <g
         transform="matrix(0.15160311,0,0,0.15158152,129.79187,71.001072)"
         id="g110753"
         style="fill:#ffffff;fill-opacity:1;stroke-width:0.65966403;stroke-miterlimit:4;stroke-dasharray:none">
        <g
           id="use110755"
           style="fill:#ffffff;stroke-width:0.65966403;stroke-miterlimit:4;stroke-dasharray:none"
           transform="matrix(0.26458333,0,0,0.26458333,167.81799,181.81799)">
          <path
             inkscape:connector-curvature="0"
             id="path201146"
             d="m 3.5625,-4.3125 c 0.59375,-0.328125 1.46875,-0.875 1.46875,-1.875 0,-1.046875 -1,-1.765625 -2.109375,-1.765625 -1.171875,0 -2.109375,0.875 -2.109375,1.96875 0,0.40625 0.125,0.8125 0.453125,1.21875 0.140625,0.15625 0.140625,0.15625 0.984375,0.75 -1.15625,0.53125 -1.765625,1.34375 -1.765625,2.203125 0,1.28125 1.21875,2.0625 2.4375,2.0625 1.328125,0 2.4375,-0.984375 2.4375,-2.234375 0,-1.21875 -0.859375,-1.75 -1.796875,-2.328125 z M 1.9375,-5.390625 C 1.78125,-5.5 1.296875,-5.8125 1.296875,-6.390625 c 0,-0.78125 0.8125,-1.265625 1.625,-1.265625 0.859375,0 1.625,0.609375 1.625,1.46875 0,0.734375 -0.53125,1.328125 -1.21875,1.703125 z M 2.5,-3.84375 l 1.4375,0.9375 c 0.3125,0.203125 0.875,0.578125 0.875,1.296875 0,0.921875 -0.921875,1.53125 -1.890625,1.53125 -1.015625,0 -1.875,-0.734375 -1.875,-1.734375 0,-0.921875 0.671875,-1.671875 1.453125,-2.03125 z m 0,0"
             style="stroke:none" />
        </g>
      </g>
      <g
         transform="matrix(0.15160311,0,0,0.15158152,129.79187,71.001072)"
         id="g110757"
         style="fill:#ffffff;fill-opacity:1;stroke-width:0.65966403;stroke-miterlimit:4;stroke-dasharray:none">
        <g
           id="use110759"
           style="fill:#ffffff;stroke-width:0.65966403;stroke-miterlimit:4;stroke-dasharray:none"
           transform="matrix(0.26458333,0,0,0.26458333,167.81799,146.677)">
          <path
             inkscape:connector-curvature="0"
             id="path201074"
             d="m 3.4375,-7.65625 c 0,-0.28125 0,-0.296875 -0.234375,-0.296875 C 2.921875,-7.625 2.3125,-7.1875 1.09375,-7.1875 v 0.34375 c 0.265625,0 0.859375,0 1.53125,-0.296875 v 6.21875 c 0,0.4375 -0.046875,0.578125 -1.09375,0.578125 h -0.375 V 0 c 0.328125,-0.03125 1.484375,-0.03125 1.875,-0.03125 0.40625,0 1.546875,0 1.875,0.03125 v -0.34375 h -0.375 c -1.046875,0 -1.09375,-0.140625 -1.09375,-0.578125 z m 0,0"
             style="stroke:none" />
        </g>
      </g>
      <g
         transform="matrix(0.15160311,0,0,0.15158152,129.79187,71.001072)"
         id="g110761"
         clip-path="url(#clip3-30)"
         style="clip-rule:nonzero;stroke:#fafafa;stroke-width:0.65966403;stroke-miterlimit:4;stroke-dasharray:none;stroke-opacity:1">
        <path
           id="path110763"
           transform="matrix(1,0,0,-1,177.771,327.318)"
           d="m -0.00146875,184.49769 0.19531275,-0.70313 0.191406,-0.70312 0.195313,-0.69922 0.191406,-0.69531 0.195312,-0.69922 0.191407,-0.69532 0.195312,-0.6914 0.191406,-0.69141 0.195313,-0.6914 0.191406,-0.69141 0.195313,-0.6875 0.191406,-0.6875 0.195312,-0.68359 0.191407,-0.6836 0.195312,-0.68359 0.191406,-0.67969 0.195313,-0.67969 0.191406,-0.67968 0.191406,-0.67579 0.195313,-0.67578 0.191406,-0.67578 0.195313,-0.67187 0.191406,-0.67188 0.195312,-0.66797 0.191407,-0.66797 0.195312,-0.66796 0.191406,-0.66407 0.195313,-0.66406 0.191406,-0.66406 0.195313,-0.66016 0.191406,-0.66015 0.195312,-0.66016 0.191407,-0.65625 0.195312,-0.65625 0.191406,-0.65234 0.195313,-0.65625 0.191406,-0.64844 0.195313,-0.65235 0.191406,-0.64843 0.195312,-0.64844 0.191407,-0.64453 0.195312,-0.64453 0.191406,-0.64453 0.195313,-0.64063 0.191406,-0.64062 0.191406,-0.63672 0.195313,-0.64063 0.191406,-0.63281 0.195313,-0.63672 0.191406,-0.63281 0.195312,-0.63281 0.191407,-0.62891 0.195312,-0.62891 0.191406,-0.6289 0.195313,-0.625 0.191406,-0.625 0.195313,-0.625 0.191406,-0.6211 0.195312,-0.62109 0.191407,-0.61719 0.195312,-0.61719 0.191406,-0.61718 0.195313,-0.61719 0.191406,-0.61328 0.195313,-0.61328 0.191406,-0.60938 0.195312,-0.60937 0.191407,-0.60938 0.195312,-0.60547 0.191406,-0.60547 0.191407,-0.60156 0.195312,-0.60156 0.191406,-0.60156 0.195313,-0.60157 0.191406,-0.59765 0.195313,-0.59766 0.191406,-0.59375 0.195312,-0.59375 0.191407,-0.59375 0.195312,-0.58984 0.191406,-0.58985 0.195313,-0.58984 0.191406,-0.58594 0.195313,-0.58593 0.191406,-0.58204 0.195312,-0.58203 0.191407,-0.58203 0.195312,-0.58203 0.191406,-0.57812 0.195313,-0.57422 0.191406,-0.57813 0.195313,-0.57422 0.191406,-0.57031 0.195312,-0.57422 0.191407,-0.57031 0.191406,-0.56641 0.195312,-0.5664 0.191407,-0.56641 0.195312,-0.56641 0.191406,-0.5625 0.195313,-0.5625 0.191406,-0.55859 0.195313,-0.55859 0.191406,-0.5586 0.195312,-0.55468 0.191407,-0.55469 0.195312,-0.55469 0.191406,-0.55078 0.195313,-0.55078 0.191406,-0.54688 0.195313,-0.54687 0.191406,-0.54688 0.195312,-0.54687 0.191407,-0.54297 0.195312,-0.54297 0.191406,-0.53906 0.195313,-0.53906 0.191406,-0.53907 0.195313,-0.53515 0.191406,-0.53516 0.191406,-0.53125 0.195313,-0.53516 0.191406,-0.52734 0.195312,-0.53125 0.191407,-0.52734 0.195312,-0.52735 0.191406,-0.52343 0.195313,-0.52344 0.191406,-0.52344 0.195313,-0.51953 0.191406,-0.51953 0.195312,-0.51953 0.191407,-0.51563 0.195312,-0.51562 0.191406,-0.51172 0.195313,-0.51563 0.191406,-0.50781 0.195313,-0.51172 0.191406,-0.50781 0.195312,-0.507813 0.191407,-0.503906 0.195312,-0.503906 0.191406,-0.503906 0.195313,-0.5 0.191406,-0.5 0.195313,-0.5 0.382812,-0.992188 0.195313,-0.492187 0.191406,-0.492188 0.195312,-0.492187 0.191407,-0.488282 0.195312,-0.488281 0.191406,-0.488281 0.195313,-0.484375 0.191406,-0.484375 0.195313,-0.484375 0.191406,-0.480469 0.195312,-0.480469 0.191407,-0.480468 0.195312,-0.476563 0.191406,-0.476562 0.195313,-0.472657 0.191406,-0.472656 0.195313,-0.472656 0.191406,-0.46875 0.195312,-0.46875 0.191407,-0.46875 0.195312,-0.464844 0.191406,-0.464844 0.195313,-0.464843 0.382812,-0.921875 0.195313,-0.457032 0.191406,-0.457031 0.195313,-0.457031 0.191406,-0.457031 0.195312,-0.453125 0.191407,-0.449219 0.195312,-0.453125 0.191406,-0.449219 0.195313,-0.445312 0.191406,-0.449219 0.195313,-0.441406 0.191406,-0.445313 0.195312,-0.441406 0.191407,-0.441406 0.195312,-0.4375 0.191406,-0.441407 0.195313,-0.433593 0.191406,-0.4375 0.195313,-0.433594 0.191406,-0.429688 0.195312,-0.433593 0.191407,-0.429688 0.195312,-0.425781 0.382813,-0.851563 0.195312,-0.425781 0.191406,-0.421875 0.195313,-0.421875 0.191406,-0.417969 0.195313,-0.417968 0.191406,-0.417969 0.195312,-0.414063 0.191407,-0.414062 0.195312,-0.414063 0.191406,-0.410156 0.195313,-0.410156 0.191406,-0.40625 0.195313,-0.410156 0.191406,-0.402344 0.195312,-0.40625 0.191407,-0.402344 0.195312,-0.402344 0.191406,-0.398437 0.195313,-0.398438 0.191406,-0.398437 0.195313,-0.394531 0.191406,-0.394532 0.195312,-0.394531 0.382813,-0.78125 0.195312,-0.386719 0.191407,-0.386718 0.195312,-0.386719 0.191406,-0.382813 0.195313,-0.386718 0.191406,-0.378907 0.195313,-0.382812 0.191406,-0.378906 0.195312,-0.375 0.191407,-0.375 0.195312,-0.375 0.191406,-0.375 0.195313,-0.371094 0.191406,-0.371094 0.195313,-0.367187 0.191406,-0.367188 0.195312,-0.367187 0.191407,-0.367188 0.195312,-0.363281 0.191406,-0.359375 0.195313,-0.363281 0.191406,-0.359375 0.195313,-0.355469 0.382812,-0.710938 0.195313,-0.355468 0.191406,-0.351563 0.195312,-0.351562 0.191407,-0.347657 0.195312,-0.347656 0.191406,-0.347656 0.195313,-0.34375 0.191406,-0.34375 0.195313,-0.34375 0.191406,-0.339844 0.195312,-0.339844 0.191407,-0.335937 0.195312,-0.339844 0.191406,-0.335937 0.195313,-0.332032 0.191406,-0.332031 0.195313,-0.332031 0.191406,-0.328125 0.195312,-0.328125 0.191407,-0.328125 0.195312,-0.324219 0.191406,-0.324219 0.195313,-0.324218 0.191406,-0.320313 0.195313,-0.320312 0.382812,-0.632813 0.195313,-0.316406 0.191406,-0.316406 0.195312,-0.3125 0.191407,-0.308594 0.195312,-0.3125 0.191406,-0.308594 0.195313,-0.304687 0.191406,-0.308594 0.195313,-0.304688 0.191406,-0.300781 0.195312,-0.300781 0.191407,-0.300781 0.195312,-0.300782 0.191406,-0.296875 0.195313,-0.296875 0.191406,-0.292968 0.195313,-0.292969 0.191406,-0.292969 0.195312,-0.289062 0.191407,-0.289063 0.195312,-0.285156 0.191406,-0.289063 0.195313,-0.285156 0.382812,-0.5625 0.195313,-0.28125 0.191406,-0.277344 0.195313,-0.28125 0.191406,-0.273437 0.195312,-0.277344 0.191407,-0.273437 0.195312,-0.269532 0.191406,-0.269531 0.195313,-0.269531 0.191406,-0.269531 0.195313,-0.265625 0.191406,-0.265625 0.195312,-0.261719 0.191407,-0.265625 0.195312,-0.257813 0.191406,-0.261718 0.195313,-0.257813 0.191406,-0.253906 0.195313,-0.257813 0.191406,-0.253906 0.195312,-0.25 0.191407,-0.25 0.195312,-0.25 0.191406,-0.25 0.191407,-0.246094 0.195312,-0.246093 0.191406,-0.242188 0.195313,-0.242187 0.191406,-0.242188 0.195313,-0.238281 0.191406,-0.238281 0.195312,-0.238282 0.191407,-0.234375 0.195312,-0.234375 0.191406,-0.234375 0.195313,-0.230468 0.191406,-0.230469 0.195313,-0.226563 0.191406,-0.226562 0.195312,-0.226563 0.191407,-0.226562 0.195312,-0.222656 0.191406,-0.21875 0.195313,-0.222657 0.191406,-0.21875 0.195313,-0.214843 0.191406,-0.214844 0.195312,-0.214844 0.191407,-0.214844 0.191406,-0.210937 0.195312,-0.210938 0.191407,-0.207031 0.195312,-0.207031 0.191406,-0.207031 0.195313,-0.203125 0.191406,-0.203125 0.195313,-0.203125 0.191406,-0.199219 0.195312,-0.199219 0.191407,-0.199219 0.195312,-0.195312 0.191406,-0.195313 0.195313,-0.191406 0.191406,-0.191406 0.195313,-0.191406 0.191406,-0.191407 0.195312,-0.1875 0.191407,-0.183593 0.195312,-0.1875 0.191406,-0.183594 0.195313,-0.179688 0.191406,-0.179687 0.195313,-0.179688 0.191406,-0.179687 0.191406,-0.175781 0.195313,-0.175782 0.191406,-0.171875 0.195312,-0.171875 0.191407,-0.171875 0.195312,-0.167968 0.191406,-0.167969 0.195313,-0.167969 0.191406,-0.164062 0.195313,-0.164063 0.191406,-0.164062 0.195312,-0.160157 0.191407,-0.160156 0.195312,-0.15625 0.191406,-0.15625 0.195313,-0.15625 0.191406,-0.15625 0.195313,-0.152344 0.191406,-0.148437 0.195312,-0.152344 0.191407,-0.148437 0.195312,-0.144532 0.191406,-0.144531 0.195313,-0.144531 0.191406,-0.144531 0.195313,-0.140625 0.191406,-0.140625 0.191406,-0.136719 0.195313,-0.136719 0.191406,-0.136719 0.195312,-0.132812 0.191407,-0.132813 0.195312,-0.132812 0.191406,-0.128906 0.195313,-0.128907 0.191406,-0.128906 0.195313,-0.125 0.191406,-0.125 0.195312,-0.121094 0.191407,-0.125 0.195312,-0.117187 0.191406,-0.121094 0.195313,-0.117187 0.191406,-0.113282 0.195313,-0.117187 0.191406,-0.113281 0.195312,-0.109375 0.191407,-0.113282 0.195312,-0.109375 0.191406,-0.105468 0.195313,-0.105469 0.191406,-0.105469 0.191406,-0.101562 0.195313,-0.105469 0.191406,-0.09766 0.195313,-0.101563 0.191406,-0.09766 0.195312,-0.09375 0.191407,-0.09766 0.195312,-0.09375 0.191406,-0.08984 0.195313,-0.08984 0.191406,-0.08984 0.195313,-0.08984 0.191406,-0.08594 0.195312,-0.08594 0.191407,-0.08203 0.195312,-0.08203 0.191406,-0.08203 0.195313,-0.07813 0.191406,-0.07813 0.195313,-0.07813 0.191406,-0.07422 0.195312,-0.07422 0.191407,-0.07031 0.195312,-0.07031 0.382813,-0.140625 0.195312,-0.06641 0.191406,-0.06641 0.195313,-0.0625 0.191406,-0.0625 0.195313,-0.0625 0.191406,-0.05859 0.195312,-0.05858 L 88.908688,9.91175 89.104,9.853156 89.295406,9.802375 89.490719,9.747687 89.682125,9.696906 89.877438,9.646125 90.068844,9.59925 90.264156,9.552375 90.455563,9.5055 90.650875,9.462531 90.842281,9.419562 91.037594,9.376594 91.229,9.337531 91.424313,9.298469 91.615719,9.259406 91.811031,9.22425 92.002438,9.189094 92.193844,9.157844 92.389156,9.126594 92.580563,9.095344 92.775875,9.068 92.967281,9.040656 93.162594,9.013312 93.354,8.989875 93.549313,8.966437 93.740719,8.943 93.936031,8.923469 94.127438,8.903937 94.32275,8.888312 94.514156,8.868781 94.709469,8.857062 94.900875,8.841437 95.096188,8.829719 95.287594,8.821909 95.482906,8.81019 95.674313,8.80238 95.869625,8.79847 96.061031,8.79066 96.256344,8.78675 h 97.027346"
           style="fill:none;stroke:#fafafa;stroke-width:0.65966403;stroke-linecap:butt;stroke-linejoin:miter;stroke-miterlimit:4;stroke-dasharray:none;stroke-opacity:1"
           inkscape:connector-curvature="0" />
      </g>
      <g
         transform="matrix(0.15160311,0,0,0.15158152,129.79187,71.001072)"
         id="g110765"
         clip-path="url(#clip4-5)"
         style="clip-rule:nonzero;stroke:#fafafa;stroke-width:0.65966403;stroke-miterlimit:4;stroke-dasharray:none;stroke-opacity:1">
        <path
           id="path110767"
           transform="matrix(1,0,0,-1,177.771,327.318)"
           d="m -0.00146875,8.78675 0.19531275,0.699219 0.191406,0.699218 0.195313,0.699219 0.191406,0.695313 0.195312,0.695312 0.191407,0.691406 0.195312,0.6875 0.191406,0.6875 0.195313,0.683594 0.191406,0.683594 0.195313,0.679687 0.191406,0.679688 0.195312,0.675781 0.191407,0.675781 0.195312,0.671875 0.191406,0.667969 0.195313,0.667969 0.191406,0.667969 0.191406,0.664062 0.195313,0.660156 0.191406,0.660157 0.195313,0.65625 0.191406,0.65625 0.195312,0.652343 0.191407,0.652344 0.195312,0.648438 0.191406,0.648437 0.195313,0.644531 0.191406,0.644532 0.195313,0.640625 0.191406,0.636718 0.195312,0.636719 0.191407,0.632813 0.195312,0.632812 0.191406,0.632813 0.195313,0.625 0.191406,0.628906 0.195313,0.621094 0.191406,0.621093 0.195312,0.621094 0.191407,0.617188 0.195312,0.617187 0.191406,0.613281 0.195313,0.609375 0.191406,0.609375 0.191406,0.605469 0.195313,0.605469 0.191406,0.601562 0.195313,0.601563 0.191406,0.597656 0.195312,0.597656 0.191407,0.59375 0.195312,0.59375 0.191406,0.589844 0.195313,0.585938 0.191406,0.585937 0.195313,0.585938 0.191406,0.582031 0.195312,0.578125 0.191407,0.578125 0.195312,0.574219 0.191406,0.574218 0.195313,0.570313 0.191406,0.570312 0.195313,0.566407 0.191406,0.5625 0.195312,0.5625 0.191407,0.5625 0.195312,0.558593 0.382813,1.109375 0.195312,0.550782 0.191406,0.550781 0.195313,0.546875 0.191406,0.546875 0.195313,0.542969 0.191406,0.542968 0.195312,0.539063 0.191407,0.539062 0.195312,0.535157 0.191406,0.53125 0.195313,0.53125 0.191406,0.527343 0.195313,0.527344 0.191406,0.527344 0.195312,0.519531 0.191407,0.523438 0.195312,0.515625 0.191406,0.515625 0.195313,0.515625 0.191406,0.511718 0.195313,0.511719 0.191406,0.507813 0.195312,0.503906 0.191407,0.503906 0.191406,0.5 0.195312,0.5 0.191407,0.5 0.195312,0.492188 0.191406,0.496093 0.195313,0.488282 0.191406,0.488281 0.195313,0.488281 0.191406,0.484375 0.195312,0.484375 0.191407,0.480469 0.195312,0.476562 0.191406,0.476563 0.195313,0.472656 0.191406,0.472656 0.195313,0.46875 0.191406,0.46875 0.195312,0.464844 0.191407,0.464844 0.195312,0.460937 0.191406,0.460938 0.195313,0.457031 0.191406,0.453125 0.195313,0.453125 0.191406,0.453125 0.191406,0.445313 0.195313,0.449218 0.191406,0.445313 0.195312,0.441406 0.191407,0.441406 0.195312,0.4375 0.191406,0.433594 0.195313,0.4375 0.191406,0.429688 0.195313,0.429687 0.191406,0.429688 0.195312,0.425781 0.191407,0.421875 0.195312,0.421875 0.191406,0.417969 0.195313,0.417968 0.191406,0.414063 0.195313,0.414062 0.191406,0.410157 0.195312,0.410156 0.191407,0.40625 0.195312,0.402344 0.191406,0.402343 0.195313,0.402344 0.191406,0.398438 0.195313,0.394531 0.191406,0.394531 0.191406,0.390625 0.195313,0.390625 0.191406,0.386719 0.195312,0.386719 0.191407,0.382812 0.195312,0.382813 0.191406,0.378906 0.195313,0.375 0.191406,0.375 0.195313,0.375 0.191406,0.371094 0.195312,0.367187 0.191407,0.367188 0.195312,0.363281 0.191406,0.363281 0.195313,0.359375 0.191406,0.359375 0.195313,0.355469 0.191406,0.355469 0.195312,0.351562 0.191407,0.347656 0.195312,0.347657 0.191406,0.347656 0.195313,0.339844 0.191406,0.34375 0.191406,0.339843 0.195313,0.335938 0.191406,0.335937 0.195313,0.332032 0.191406,0.328121 0.195312,0.33203 0.191407,0.32422 0.195312,0.32422 0.191406,0.32422 0.195313,0.32031 0.191406,0.31641 0.195313,0.31641 0.191406,0.3125 0.195312,0.3125 0.191407,0.30859 0.195312,0.30859 0.191406,0.30469 0.195313,0.30469 0.191406,0.30078 0.195313,0.30078 0.191406,0.29688 0.195312,0.29296 0.191407,0.29297 0.195312,0.28907 0.382813,0.57812 0.195312,0.28125 0.191406,0.28516 0.195313,0.27734 0.191406,0.27734 0.195313,0.27735 0.191406,0.27344 0.195312,0.27343 0.191407,0.26953 0.195312,0.26563 0.191406,0.26562 0.195313,0.26172 0.191406,0.26172 0.195313,0.26172 0.191406,0.25391 0.195312,0.25781 0.191407,0.25 0.195312,0.25 0.191406,0.25 0.195313,0.24609 0.191406,0.2461 0.195313,0.24218 0.191406,0.23829 0.195312,0.23828 0.382813,0.46875 0.195312,0.23047 0.191407,0.23046 0.195312,0.22657 0.191406,0.22656 0.195313,0.22266 0.191406,0.22265 0.195313,0.21875 0.191406,0.21485 0.195312,0.21484 0.191407,0.21484 0.195312,0.21094 0.191406,0.20703 0.195313,0.20703 0.191406,0.20313 0.195313,0.20312 0.191406,0.19922 0.195312,0.19922 0.191407,0.19531 0.195312,0.19141 0.191406,0.19141 0.195313,0.1914 0.191406,0.1875 0.195313,0.1836 0.191406,0.18359 0.191406,0.17969 0.195313,0.17968 0.191406,0.17579 0.195312,0.17578 0.191407,0.17187 0.195312,0.17188 0.191406,0.16797 0.195313,0.16796 0.191406,0.16407 0.195313,0.16015 0.191406,0.16016 0.195312,0.15625 0.191407,0.15625 0.195312,0.15625 0.191406,0.14844 0.195313,0.15234 0.191406,0.14453 0.195313,0.14453 0.191406,0.14453 0.195312,0.14063 0.191407,0.14062 0.195312,0.13672 0.191406,0.13282 0.195313,0.13281 0.191406,0.1289 0.195313,0.12891 0.382812,0.25 0.195313,0.12109 0.191406,0.1211 0.195312,0.11719 0.191407,0.11718 0.195312,0.11328 0.191406,0.10938 0.195313,0.10937 0.191406,0.10938 0.195313,0.10547 0.191406,0.10156 0.195312,0.10156 0.191407,0.0977 0.195312,0.0977 0.191406,0.0937 0.195313,0.0937 0.191406,0.0898 0.195313,0.0898 0.191406,0.0859 0.195312,0.082 0.191407,0.082 0.195312,0.0781 0.191406,0.0781 0.195313,0.0781 0.191406,0.0703 0.191406,0.0742 0.195313,0.0664 0.191406,0.0703 0.195313,0.0625 0.191406,0.0625 0.195312,0.0625 0.191407,0.0586 0.195312,0.0547 0.191406,0.0547 0.195313,0.0547 0.191406,0.0508 0.195313,0.0469 0.191406,0.0469 0.195312,0.043 0.191407,0.043 0.195312,0.0391 0.191406,0.0391 0.195313,0.0352 0.191406,0.0312 0.195313,0.0312 0.191406,0.0312 0.195312,0.0273 0.191407,0.0234 0.195312,0.0234 0.382813,0.0391 0.195312,0.0156 0.191406,0.0156 0.195313,0.0117 0.191406,0.0117 0.195313,0.008 0.191406,0.004 0.195312,0.004 0.191407,0.004 0.195312,-0.004 h 0.191406 l 0.195313,-0.004 0.191406,-0.008 0.195313,-0.008 0.191406,-0.0117 0.195312,-0.0117 0.191407,-0.0156 0.195312,-0.0195 0.191406,-0.0195 0.195313,-0.0195 0.191406,-0.0234 0.195313,-0.0273 0.191406,-0.0273 0.195312,-0.0273 0.191407,-0.0352 0.191406,-0.0312 0.195312,-0.0391 0.191407,-0.0351 0.195312,-0.043 0.191406,-0.043 0.195313,-0.043 0.191406,-0.0469 0.195313,-0.0508 0.191406,-0.0508 0.195312,-0.0508 0.191407,-0.0547 0.195312,-0.0586 0.191406,-0.0586 0.195313,-0.0625 0.191406,-0.0625 0.195313,-0.0664 0.191406,-0.0664 0.195312,-0.0703 0.191407,-0.0742 0.195312,-0.0742 0.191406,-0.0742 0.195313,-0.0781 0.191406,-0.082 0.195313,-0.082 0.382812,-0.17188 0.195313,-0.0898 0.191406,-0.0898 0.195312,-0.0937 0.191407,-0.0937 0.195312,-0.0977 0.191406,-0.10156 0.195313,-0.10157 0.191406,-0.10156 0.195313,-0.10547 0.191406,-0.10937 0.195312,-0.10938 0.191407,-0.11328 0.195312,-0.11328 0.191406,-0.11719 0.195313,-0.11718 0.191406,-0.1211 0.195313,-0.12109 0.191406,-0.125 0.195312,-0.12891 0.191407,-0.1289 0.195312,-0.12891 0.191406,-0.13281 0.195313,-0.13672 0.191406,-0.13672 0.195313,-0.14063 0.191406,-0.14062 0.191406,-0.14453 0.195313,-0.14453 0.191406,-0.14844 0.195312,-0.15234 0.191407,-0.15235 0.195312,-0.15234 0.191406,-0.15625 0.195313,-0.16016 0.191406,-0.16015 0.195313,-0.16016 0.191406,-0.16797 0.195312,-0.16406 0.191407,-0.17188 0.195312,-0.16797 0.191406,-0.17578 0.195313,-0.17578 0.191406,-0.17578 0.195313,-0.17969 0.191406,-0.18359 0.195312,-0.18359 0.191407,-0.1836 0.195312,-0.1875 0.191406,-0.1914 0.195313,-0.19141 0.382812,-0.39063 0.195313,-0.19921 0.191406,-0.19922 0.195313,-0.20313 0.191406,-0.20703 0.195312,-0.20703 0.191407,-0.20703 0.195312,-0.21094 0.191406,-0.21484 0.195313,-0.21485 0.191406,-0.21875 0.195313,-0.21875 0.191406,-0.22265 0.195312,-0.22266 0.191407,-0.22656 0.195312,-0.22656 0.191406,-0.23047 0.195313,-0.23438 0.191406,-0.23437 0.195313,-0.23438 0.191406,-0.23828 0.195312,-0.24219 0.191407,-0.24218 0.195312,-0.2461 0.191406,-0.24609 0.191407,-0.25 0.195312,-0.25 0.191406,-0.25391 0.195313,-0.25781 0.191406,-0.25391 0.195313,-0.26172 0.191406,-0.26171 0.195312,-0.26563 0.191407,-0.26562 0.195312,-0.26563 0.191406,-0.26953 0.195313,-0.27344 0.191406,-0.27344 0.195313,-0.27734 0.191406,-0.28125 0.195312,-0.27734 0.191407,-0.28516 0.195312,-0.28516 0.191406,-0.28515 0.195313,-0.28906 0.191406,-0.29297 0.195313,-0.29297 0.191406,-0.29688 0.195312,-0.29687 0.382813,-0.60156 0.195312,-0.30469 0.191407,-0.30469 0.195312,-0.30859 0.191406,-0.3086 0.195313,-0.3125 0.191406,-0.3164 0.195313,-0.31641 0.191406,-0.32031 0.195312,-0.32031 0.191407,-0.32032 0.195312,-0.32812 0.191406,-0.32422 0.195313,-0.33203 0.191406,-0.332033 0.195313,-0.332031 0.191406,-0.335937 0.195312,-0.335938 0.191407,-0.339844 0.195312,-0.34375 0.191406,-0.34375 0.195313,-0.347656 0.191406,-0.347656 0.195313,-0.347656 0.382812,-0.703125 0.195313,-0.347657 0.191406,-0.351562 0.195312,-0.347656 0.191407,-0.347657 0.195312,-0.347656 0.191406,-0.34375 0.195313,-0.347656 0.191406,-0.34375 0.195313,-0.34375 0.191406,-0.34375 0.195312,-0.34375 0.191407,-0.339844 0.195312,-0.34375 0.191406,-0.339844 0.195313,-0.339843 0.191411,-0.339844 0.19531,-0.335938 0.1914,-0.339843 0.19532,-0.335938 0.1914,-0.335937 0.19532,-0.335938 0.1914,-0.335937 0.19531,-0.332032 0.19141,-0.335937 0.19531,-0.332031 0.38282,-0.664063 0.19531,-0.328125 0.1914,-0.332031 0.19532,-0.328125 0.1914,-0.328125 0.19532,-0.328125 0.1914,-0.328125 0.19531,-0.324219 0.19141,-0.328125 0.19531,-0.324219 0.19141,-0.324218 0.19531,-0.324219 0.19141,-0.324219 0.19531,-0.320312 0.19141,-0.320313 0.19531,-0.324219 0.19141,-0.320312 0.19531,-0.316406 0.1914,-0.320313 0.19532,-0.316406 0.1914,-0.320313 0.19532,-0.316406 0.1914,-0.316406 0.19531,-0.3125 0.19141,-0.316406 0.19141,-0.3125 0.19531,-0.3125 0.19141,-0.3125 0.19531,-0.3125 0.1914,-0.3125 0.19532,-0.308594 0.1914,-0.308594 0.19532,-0.308594 0.1914,-0.308593 0.19531,-0.308594 0.19141,-0.308594 0.19531,-0.304687 0.19141,-0.304688 0.19531,-0.304687 0.19141,-0.304688 0.19531,-0.304687 0.19141,-0.300782 0.19531,-0.300781 0.19141,-0.300781 0.19531,-0.300781 0.1914,-0.300782 0.19532,-0.300781 0.1914,-0.296875 0.19532,-0.296875 0.38281,-0.59375 0.19531,-0.296875 0.19141,-0.292969 0.19531,-0.292968 0.19141,-0.296875 0.19531,-0.292969 0.1914,-0.289063 0.19532,-0.292968 0.1914,-0.289063 0.19532,-0.292969 0.1914,-0.289062 0.19531,-0.285156 0.19141,-0.289063 0.19531,-0.289062 0.19141,-0.285157 0.19531,-0.285156 0.19141,-0.285156 0.19531,-0.285156 0.19141,-0.28125 0.19531,-0.285157 0.19141,-0.28125 0.19531,-0.28125 0.1914,-0.28125 0.19532,-0.28125 0.1914,-0.277343 0.19141,-0.28125 0.19531,-0.277344 0.19141,-0.277344 0.19531,-0.273437 0.19141,-0.277344 0.19531,-0.277344 0.19141,-0.273437 0.19531,-0.273438 0.1914,-0.273437 0.19532,-0.273438 0.1914,-0.269531 0.19532,-0.269531 0.1914,-0.273438 0.19531,-0.269531 0.19141,-0.265625 0.19531,-0.269531 0.19141,-0.269532 0.19531,-0.265625 0.19141,-0.265625 0.19531,-0.265625 0.19141,-0.265625 0.19531,-0.261718 0.19141,-0.265625 0.19531,-0.261719 0.38281,-0.523438 0.19531,-0.257812 0.19141,-0.261719 0.19531,-0.257812 0.19141,-0.257813 0.19531,-0.257812 0.19141,-0.257813 0.19531,-0.253906 0.19141,-0.257813 0.19531,-0.253906 0.1914,-0.253906 0.19532,-0.253906 0.1914,-0.253907 0.19532,-0.25 0.1914,-0.253906 0.19531,-0.25 0.19141,-0.25 0.19531,-0.246094 0.19141,-0.25 0.19531,-0.246093 0.19141,-0.25 0.19531,-0.246094 0.19141,-0.246094 0.19531,-0.242187 0.19141,-0.246094 0.19531,-0.242188 0.38281,-0.484375 0.19531,-0.242187 0.19141,-0.242188 0.19531,-0.238281 0.19141,-0.242187 0.19531,-0.238282 0.19141,-0.234375 0.19531,-0.238281 0.19141,-0.238281 0.19531,-0.234375 0.1914,-0.234375 0.19532,-0.234375 0.1914,-0.234375 0.19532,-0.234375 0.1914,-0.230469 0.19531,-0.234375 0.19141,-0.230469 0.19531,-0.230468 0.19141,-0.226563 0.19531,-0.230469 0.19141,-0.226562 0.19531,-0.226563 0.19141,-0.230468 0.19531,-0.222657 0.38281,-0.453125 0.19531,-0.222656 0.19141,-0.222656 0.19531,-0.222656 0.19141,-0.222657 0.19531,-0.21875 0.19141,-0.222656 0.19531,-0.21875 0.19141,-0.21875 0.19531,-0.21875 0.19141,-0.214844 0.19531,-0.21875 0.1914,-0.214843 0.19532,-0.214844 0.1914,-0.214844 0.19532,-0.214844 0.1914,-0.214843 0.19531,-0.210938 0.19141,-0.214844 0.19531,-0.210937 0.19141,-0.207031 0.19531,-0.210938 0.19141,-0.210937 0.19531,-0.207032 0.38281,-0.414062 0.19532,-0.207031 0.1914,-0.207032 0.19531,-0.203125 0.19141,-0.203125 0.19531,-0.203125 0.19141,-0.203125 0.19531,-0.203125 0.19141,-0.203125 0.19531,-0.199218 0.19141,-0.199219 0.19531,-0.199219 0.19141,-0.199219 0.19531,-0.199218 0.1914,-0.195313 0.19532,-0.195312 0.1914,-0.199219 0.19532,-0.191406 0.1914,-0.195313 0.38672,-0.386719 0.19531,-0.191406 0.19141,-0.191406 0.19531,-0.191406 0.19141,-0.191407 0.1914,-0.1875 0.19532,-0.191406 0.1914,-0.1875 0.19532,-0.1875 0.1914,-0.1875 0.19531,-0.183594 0.19141,-0.1875 0.19531,-0.183593 0.19141,-0.183594 0.19531,-0.183594 0.19141,-0.179687 0.19531,-0.183594 0.19141,-0.179688 0.19531,-0.179687 0.19141,-0.179688 0.19531,-0.179687 0.1914,-0.179688 0.19532,-0.175781 0.1914,-0.179687 0.19532,-0.175782 0.1914,-0.171875 0.19531,-0.175781 0.19141,-0.175781 0.19531,-0.171875 0.19141,-0.171875 0.19531,-0.171875 0.38281,-0.34375 0.19532,-0.167969 0.1914,-0.167969 0.19532,-0.167968 0.1914,-0.167969 0.19531,-0.167969 0.19141,-0.167969 0.19531,-0.164062 0.19141,-0.164063 0.19531,-0.164062 0.19141,-0.164063 0.19531,-0.164062 0.19141,-0.160156 0.19531,-0.164063 0.19141,-0.160156 0.19531,-0.160156 0.1914,-0.15625 0.19532,-0.160157 0.1914,-0.15625 0.19532,-0.160156 0.1914,-0.15625 0.19531,-0.152344 0.19141,-0.15625 0.19531,-0.15625 0.38282,-0.304687 0.19531,-0.152344 0.1914,-0.152344 0.19532,-0.148437 0.1914,-0.152344 0.19532,-0.148437 0.1914,-0.148438 0.19531,-0.148437 0.19141,-0.148438 0.19531,-0.144531 0.19141,-0.144531 0.19531,-0.148438 0.19141,-0.144531 0.19531,-0.140625 0.19141,-0.144531 0.19531,-0.140625 0.19141,-0.144532 0.19531,-0.140625 0.1914,-0.140625 0.19532,-0.136718 0.1914,-0.140625 0.19532,-0.136719 0.1914,-0.136719 0.19531,-0.136719 0.38282,-0.273437 0.19531,-0.132813 0.19141,-0.136718 0.19531,-0.132813 0.1914,-0.132812 0.19532,-0.128907 0.1914,-0.132812 0.19532,-0.128906 0.1914,-0.132813 0.19531,-0.128906 0.19141,-0.125 0.19531,-0.128906 0.19141,-0.125 0.19531,-0.128907 0.19141,-0.125 0.19531,-0.125 0.19141,-0.125 0.19531,-0.121093 0.19141,-0.125 0.19531,-0.121094 0.1914,-0.121094 0.19532,-0.121094 0.1914,-0.117187 0.19532,-0.121094 0.38281,-0.234375 0.19531,-0.117187 0.19141,-0.117188 0.19531,-0.117187 0.19141,-0.113282 0.19531,-0.113281 0.1914,-0.113281 0.19532,-0.113281 0.1914,-0.113282 0.19532,-0.109375 0.1914,-0.113281 0.19531,-0.109375 0.19141,-0.109375 0.19531,-0.109375 0.19141,-0.105469 0.19531,-0.109375 0.19141,-0.105468 0.19531,-0.105469 0.19141,-0.105469 0.19531,-0.105469 0.19141,-0.101562 0.19531,-0.105469 0.1914,-0.101562 0.19532,-0.101563 0.1914,-0.101562 0.19141,-0.09766 0.19531,-0.101562 0.19141,-0.09766 0.19531,-0.09766 0.19141,-0.09766 0.19531,-0.09766 0.19141,-0.09375 0.19531,-0.09766 0.1914,-0.09375 0.19532,-0.09375 0.1914,-0.09375 0.19532,-0.08984 0.1914,-0.09375 0.19531,-0.08984 0.19141,-0.08984 0.19531,-0.08984 0.19141,-0.08984 0.19531,-0.08984 0.19141,-0.08594 0.19531,-0.08594 0.19141,-0.08594 0.19531,-0.08594 0.19141,-0.08594 0.19531,-0.08203 0.1914,-0.08594 0.19532,-0.08203 0.38281,-0.164063 0.19531,-0.07813 0.19141,-0.08203 0.19531,-0.07813 0.19141,-0.07813 0.19531,-0.07813 0.19141,-0.07422 0.19531,-0.07813 0.1914,-0.07422 0.19532,-0.07422 0.1914,-0.07422 0.19532,-0.07422 0.1914,-0.07422 0.19531,-0.07031 0.19141,-0.07422 0.19531,-0.07031 0.19141,-0.07031 0.19531,-0.06641 0.19141,-0.07031 0.19531,-0.06641 0.19141,-0.06641 0.19531,-0.06641 0.19141,-0.06641 0.19531,-0.06641 0.1914,-0.0625 0.19141,-0.06641 0.19531,-0.0625 0.19141,-0.0625 0.19531,-0.05859 0.19141,-0.0625 0.19531,-0.05859 0.19141,-0.0625 0.19531,-0.05859 0.19141,-0.05469 0.19531,-0.05859 0.1914,-0.05859 0.19532,-0.05469 0.1914,-0.05469 0.19532,-0.05469 0.1914,-0.05469 0.19531,-0.05078 0.19141,-0.05469 0.19531,-0.05078 0.19141,-0.05078 0.19531,-0.05078 0.19141,-0.04687 0.19531,-0.05078 0.19141,-0.04687 0.19531,-0.04687 0.38281,-0.09375 0.19531,-0.04687 0.19141,-0.04297 0.19531,-0.04297 0.19141,-0.04687 0.19531,-0.03906 0.19141,-0.04297 0.19531,-0.042969 0.19141,-0.039062 0.19531,-0.039063 0.19141,-0.039062 0.19531,-0.039063 0.1914,-0.039062 0.19532,-0.035156 0.1914,-0.035157 0.19532,-0.035156 0.1914,-0.035156 0.19531,-0.035156 0.19141,-0.035157 0.19531,-0.03125 0.19141,-0.03125 0.19531,-0.03125 0.19141,-0.03125 0.19531,-0.03125 0.38281,-0.054687 0.19532,-0.027344 0.1914,-0.027344 0.19531,-0.027343 0.19141,-0.027344 0.19531,-0.023438 0.19141,-0.023437 0.19531,-0.023438 0.19141,-0.023437 0.19531,-0.023438 0.19141,-0.019531 0.19531,-0.023437 0.19141,-0.019532 0.19531,-0.019531 0.1914,-0.019531 0.19532,-0.015625 0.1914,-0.015625 0.19532,-0.019531 0.1914,-0.015625 0.19531,-0.015625 0.19141,-0.011719 0.19531,-0.015625 0.19141,-0.011719 0.19531,-0.011719 0.38281,-0.023437 0.19532,-0.011719 0.1914,-0.00781 0.19532,-0.00781 0.1914,-0.00781 0.19531,-0.00781 0.19141,-0.00781 0.19531,-0.00781 0.19141,-0.00391 0.19531,-0.00391 0.19141,-0.00391 0.19531,-0.00391 0.19141,-0.00391 h 0.58203"
           style="fill:none;stroke:#fafafa;stroke-width:0.65966403;stroke-linecap:butt;stroke-linejoin:miter;stroke-miterlimit:4;stroke-dasharray:none;stroke-opacity:1"
           inkscape:connector-curvature="0" />
        <path
           id="path110769"
           transform="matrix(1,0,0,-1,177.771,327.318)"
           d="M -0.00146875,8.78675 H 0.580563 L 0.771969,8.79066 0.967281,8.79457 1.158688,8.79848 1.354,8.80239 1.545406,8.8063 1.740719,8.81411 1.932125,8.82192 2.127438,8.82973 2.318844,8.83754 2.514156,8.84535 2.705563,8.85316 2.900875,8.864875 3.092281,8.876594 3.287594,8.888312 3.670406,8.91175 3.865719,8.927375 4.057125,8.939094 4.252438,8.954719 4.443844,8.970344 4.639156,8.989875 4.830563,9.0055 5.025875,9.021125 5.217281,9.040656 5.412594,9.060187 5.604,9.079719 5.799313,9.103156 5.990719,9.122687 6.186031,9.146125 6.377438,9.169562 6.57275,9.193 6.764156,9.216437 6.959469,9.239875 7.150875,9.267219 7.346188,9.294562 7.537594,9.321906 7.732906,9.34925 l 0.191407,0.027344 0.195312,0.027343 0.191406,0.03125 0.195313,0.03125 0.382812,0.0625 0.195313,0.03125 0.191406,0.035157 0.195313,0.035156 0.191406,0.035156 0.195312,0.035156 0.191407,0.035157 0.195312,0.035156 0.191406,0.039062 0.195313,0.039063 0.191406,0.039062 0.195313,0.039063 0.191406,0.039062 0.195312,0.042969 0.191407,0.04297 0.195312,0.03906 0.191406,0.04687 0.195313,0.04297 0.191406,0.04297 0.195313,0.04687 0.191406,0.04687 0.195312,0.04687 0.191407,0.04687 0.195312,0.04687 0.191406,0.05078 0.191407,0.04687 0.195312,0.05078 0.191406,0.05078 0.195313,0.05078 0.191406,0.05469 0.195313,0.05078 0.191406,0.05469 0.195312,0.05469 0.191407,0.05469 0.195312,0.05469 0.191406,0.05859 0.195313,0.05859 0.191406,0.05469 0.195313,0.05859 0.191406,0.0625 0.195312,0.05859 0.191407,0.0625 0.195312,0.05859 0.191406,0.0625 0.195313,0.0625 0.191406,0.06641 0.195313,0.0625 0.191406,0.06641 0.195312,0.06641 0.382813,0.132812 0.195312,0.06641 0.191407,0.07031 0.195312,0.06641 0.191406,0.07031 0.195313,0.07031 0.191406,0.07422 0.195313,0.07031 0.191406,0.07422 0.195312,0.07422 0.191407,0.07422 0.195312,0.07422 0.191406,0.07422 0.195313,0.07813 0.191406,0.07422 0.195313,0.07813 0.191406,0.07813 0.195312,0.07813 0.191407,0.08203 0.195312,0.07813 0.191406,0.08203 0.195313,0.08203 0.191406,0.08203 0.195313,0.08594 0.191406,0.08203 0.191406,0.08594 0.195313,0.08594 0.191406,0.08594 0.195312,0.08594 0.191407,0.08594 0.195312,0.08984 0.191406,0.08984 0.195313,0.08984 0.191406,0.08984 0.195313,0.08984 0.191406,0.09375 0.195312,0.08984 0.191407,0.09375 0.195312,0.09375 0.191406,0.09375 0.195313,0.09766 0.191406,0.09375 0.195313,0.09766 0.191406,0.09766 0.195312,0.09766 0.191407,0.09766 0.195312,0.101562 0.191406,0.09766 0.195313,0.101562 0.191406,0.101563 0.195313,0.101562 0.191406,0.105469 0.191406,0.101562 0.195313,0.105469 0.191406,0.105469 0.195312,0.105469 0.191407,0.105468 0.195312,0.109375 0.191406,0.105469 0.195313,0.109375 0.191406,0.109375 0.195313,0.109375 0.191406,0.113281 0.195312,0.109375 0.191407,0.113282 0.195312,0.113281 0.191406,0.113281 0.195313,0.113281 0.191406,0.113282 0.195313,0.117187 0.191406,0.117188 0.195312,0.117187 0.191407,0.117188 0.195312,0.117187 0.191406,0.121094 0.195313,0.117187 0.382812,0.242188 0.195313,0.121094 0.191406,0.125 0.195313,0.121093 0.191406,0.125 0.195312,0.125 0.191407,0.125 0.195312,0.128907 0.191406,0.125 0.195313,0.128906 0.191406,0.125 0.195313,0.128906 0.191406,0.132813 0.195312,0.128906 0.191407,0.132812 0.195312,0.128907 0.191406,0.132812 0.195313,0.132813 0.191406,0.136718 0.195313,0.132813 0.191406,0.136719 0.195312,0.136718 0.191407,0.136719 0.195312,0.136719 0.191406,0.136719 0.191407,0.140625 0.195312,0.136718 0.191406,0.140625 0.195313,0.140625 0.191406,0.144532 0.195313,0.140625 0.191406,0.144531 0.195312,0.140625 0.191407,0.144531 0.195312,0.148438 0.191406,0.144531 0.195313,0.144531 0.191406,0.148438 0.195313,0.148437 0.191406,0.148438 0.195312,0.148437 0.191407,0.152344 0.195312,0.148437 0.191406,0.152344 0.195313,0.152344 0.191406,0.152344 0.195313,0.152343 0.191406,0.15625 0.195312,0.15625 0.191407,0.152344 0.191406,0.15625 0.195312,0.160156 0.191407,0.15625 0.195312,0.160157 0.191406,0.15625 0.195313,0.160156 0.191406,0.160156 0.195313,0.164063 0.191406,0.160156 0.195312,0.164062 0.191407,0.164063 0.195312,0.164062 0.191406,0.164063 0.195313,0.164062 0.191406,0.167969 0.195313,0.167969 0.191406,0.167969 0.195312,0.167968 0.191407,0.167969 0.195312,0.167969 0.191406,0.171875 0.195313,0.171875 0.191406,0.171875 0.195313,0.171875 0.191406,0.171875 0.191406,0.175781 0.195313,0.175781 0.191406,0.171875 0.195312,0.175782 0.191407,0.179687 0.195312,0.175781 0.191406,0.179688 0.195313,0.179687 0.191406,0.179688 0.195313,0.179687 0.191406,0.179688 0.195312,0.183594 0.191407,0.179687 0.195312,0.183594 0.191406,0.183594 0.195313,0.183593 0.191406,0.1875 0.195313,0.183594 0.191406,0.1875 0.195312,0.1875 0.191407,0.1875 0.195312,0.191406 0.191406,0.1875 0.195313,0.191407 0.191406,0.191406 0.195313,0.191406 0.578125,0.578125 0.191406,0.195313 0.195312,0.191406 0.191407,0.199219 0.195312,0.195312 0.191406,0.195313 0.195313,0.199218 0.191406,0.199219 0.195313,0.199219 0.191406,0.199219 0.195312,0.199218 0.191407,0.203125 0.195312,0.203125 0.191406,0.203125 0.195313,0.203125 0.191406,0.203125 0.195313,0.203125 0.191406,0.207032 0.195312,0.207031 0.191407,0.207031 0.195312,0.207031 0.191406,0.207032 0.195313,0.210937 0.191406,0.210938 0.191406,0.207031 0.195313,0.210937 0.191406,0.214844 0.195313,0.210938 0.191406,0.214843 0.195312,0.214844 0.191407,0.214844 0.195312,0.214844 0.191406,0.214843 0.195313,0.21875 0.191406,0.214844 0.195313,0.21875 0.191406,0.21875 0.195312,0.21875 0.191407,0.222656 0.195312,0.21875 0.191406,0.222657 0.195313,0.222656 0.191406,0.222656 0.195313,0.222656 0.191406,0.226563 0.195312,0.226562 0.191407,0.222657 0.195312,0.230468 0.382813,0.453125 0.195312,0.230469 0.191406,0.226563 0.195313,0.230468 0.191406,0.230469 0.195313,0.234375 0.191406,0.230469 0.195312,0.234375 0.191407,0.234375 0.195312,0.234375 0.191406,0.234375 0.195313,0.234375 0.191406,0.238281 0.195313,0.238281 0.191406,0.234375 0.195312,0.238282 0.191407,0.242187 0.195312,0.238281 0.191406,0.242188 0.195313,0.242187 0.191406,0.242188 0.195313,0.242187 0.191406,0.242188 0.195312,0.246094 0.191407,0.242187 0.191406,0.246094 0.195312,0.246094 0.191407,0.25 0.195312,0.246093 0.191406,0.25 0.195313,0.246094 0.191406,0.25 0.195313,0.25 0.191406,0.253906 0.195312,0.25 0.191407,0.253907 0.195312,0.253906 0.191406,0.253906 0.195313,0.253906 0.191406,0.257813 0.195313,0.253906 0.191406,0.257813 0.195312,0.257812 0.191407,0.257813 0.195312,0.257812 0.191406,0.261719 0.195313,0.257812 0.191406,0.261719 0.195313,0.261719 0.191406,0.261719 0.191406,0.265625 0.195313,0.261718 0.191406,0.265625 0.195312,0.265625 0.191407,0.265625 0.195312,0.265625 0.191406,0.269532 0.195313,0.269531 0.191406,0.265625 0.195313,0.269531 0.191406,0.273438 0.195312,0.269531 0.191407,0.269531 0.195312,0.273438 0.191406,0.273437 0.195313,0.273438 0.191406,0.273437 0.195313,0.277344 0.191406,0.277344 0.195312,0.273437 0.191407,0.277344 0.195312,0.277344 0.191406,0.28125 0.195313,0.277343 0.191406,0.28125 0.195313,0.28125 0.382812,0.5625 0.195313,0.285157 0.191406,0.28125 0.195312,0.285156 0.191407,0.285156 0.195312,0.285156 0.191406,0.285157 0.195313,0.289062 0.191406,0.289063 0.195313,0.285156 0.191406,0.289062 0.195312,0.292969 0.191407,0.289063 0.195312,0.292968 0.191406,0.289063 0.195313,0.292969 0.191406,0.296875 0.195313,0.292968 0.191406,0.292969 0.195312,0.296875 0.191407,0.296875 0.195312,0.296875 0.191406,0.296875 0.195313,0.296875 0.382812,0.601563 0.195313,0.300781 0.191406,0.300781 0.195313,0.300781 0.191406,0.300782 0.195312,0.304687 0.191407,0.304688 0.195312,0.304687 0.191406,0.304688 0.195313,0.304687 0.191406,0.308594 0.195313,0.308594 0.191406,0.308593 0.195312,0.308594 0.191407,0.308594 0.195312,0.308594 0.191406,0.3125 0.195313,0.3125 0.191406,0.3125 0.195313,0.3125 0.191406,0.3125 0.195312,0.316406 0.191407,0.3125 0.195312,0.316406 0.191406,0.316406 0.191407,0.320313 0.195312,0.316406 0.191406,0.320313 0.195313,0.316406 0.191406,0.320312 0.195313,0.324219 0.191406,0.320313 0.195312,0.320312 0.191407,0.324219 0.195312,0.324219 0.191406,0.324218 0.195313,0.324219 0.191406,0.328125 0.195313,0.324219 0.191406,0.328125 0.195312,0.328125 0.191407,0.328125 0.195312,0.328125 0.191406,0.332031 0.195313,0.328125 0.191406,0.332031 0.195313,0.332032 0.191406,0.332031 0.195312,0.335937 0.191407,0.332032 0.191406,0.335937 0.195312,0.335938 0.191407,0.335937 0.195312,0.335938 0.191406,0.339843 0.195313,0.335938 0.191406,0.339844 0.195313,0.339843 0.191406,0.339844 0.195312,0.34375 0.191407,0.339844 0.195312,0.34375 0.191406,0.34375 0.195313,0.34375 0.191406,0.34375 0.195313,0.347656 0.191406,0.34375 0.195312,0.347656 0.191407,0.347657 0.195312,0.347656 0.191406,0.351562 0.195313,0.347657 0.191406,0.351562 0.195313,0.351563 0.382812,0.695312 0.195313,0.347656 0.191406,0.34375 0.195312,0.34375 0.191407,0.339844 0.195312,0.335938 0.191406,0.335937 0.195313,0.332031 0.191406,0.332037 0.195313,0.33203 0.191406,0.32422 0.195312,0.32812 0.191407,0.32032 0.195312,0.32031 0.191406,0.32031 0.195313,0.31641 0.191411,0.3164 0.19531,0.3125 0.1914,0.3086 0.19532,0.30859 0.1914,0.30469 0.19532,0.30469 0.1914,0.30078 0.19531,0.30078 0.19141,0.29687 0.19531,0.29688 0.38282,0.58594 0.19531,0.28906 0.1914,0.28515 0.19532,0.28516 0.1914,0.28516 0.19532,0.27734 0.1914,0.28125 0.19531,0.27734 0.19141,0.27344 0.19531,0.27344 0.19141,0.26953 0.19531,0.26563 0.19141,0.26562 0.19531,0.26563 0.19141,0.26171 0.19531,0.26172 0.19141,0.25391 0.19531,0.25781 0.1914,0.25391 0.19532,0.25 0.1914,0.25 0.19532,0.24609 0.1914,0.2461 0.19531,0.24218 0.19141,0.24219 0.19141,0.23828 0.19531,0.23438 0.19141,0.23437 0.19531,0.23438 0.1914,0.23047 0.19532,0.22656 0.1914,0.22656 0.19532,0.22266 0.1914,0.22265 0.19531,0.21875 0.19141,0.21875 0.19531,0.21485 0.19141,0.21484 0.19531,0.21094 0.19141,0.20703 0.19531,0.20703 0.19141,0.20703 0.19531,0.20313 0.19141,0.19922 0.19531,0.19921 0.1914,0.19532 0.38672,0.38672 0.19532,0.1914 0.1914,0.1875 0.19141,0.1836 0.19531,0.18359 0.19141,0.18359 0.19531,0.17969 0.19141,0.17578 0.19531,0.17578 0.1914,0.17578 0.19532,0.16797 0.1914,0.17188 0.19532,0.16406 0.1914,0.16797 0.19531,0.16016 0.19141,0.16015 0.19531,0.16016 0.19141,0.15625 0.19531,0.15234 0.19141,0.15235 0.19531,0.15234 0.19141,0.14844 0.19531,0.14453 0.19141,0.14453 0.19531,0.14062 0.1914,0.14063 0.19532,0.13672 0.1914,0.13672 0.19141,0.13281 0.19531,0.12891 0.19141,0.1289 0.19531,0.12891 0.19141,0.125 0.19531,0.12109 0.19141,0.1211 0.19531,0.11718 0.1914,0.11719 0.19532,0.11328 0.1914,0.11328 0.19532,0.10938 0.1914,0.10937 0.19531,0.10547 0.19141,0.10156 0.19531,0.10157 0.19141,0.10156 0.19531,0.0977 0.19141,0.0937 0.19531,0.0937 0.19141,0.0898 0.19531,0.0898 0.19141,0.0859 0.19531,0.0859 0.38281,0.16406 0.19531,0.0781 0.19141,0.0742 0.19531,0.0742 0.19141,0.0742 0.19531,0.0703 0.19141,0.0664 0.19531,0.0664 0.19141,0.0625 0.19531,0.0625 0.1914,0.0586 0.19532,0.0586 0.1914,0.0547 0.19532,0.0508 0.1914,0.0508 0.19531,0.0508 0.19141,0.0469 0.19531,0.043 0.19141,0.043 0.19531,0.043 0.19141,0.0351 0.19531,0.0391 0.19141,0.0312 0.19531,0.0352 0.19141,0.0273 0.19531,0.0273 0.1914,0.0273 0.19141,0.0234 0.19531,0.0195 0.19141,0.0195 0.19531,0.0195 0.19141,0.0156 0.19531,0.0117 0.19141,0.0117 0.19531,0.008 0.19141,0.008 0.19531,0.004 h 0.1914 l 0.19532,0.004 0.1914,-0.004 0.19532,-0.004 0.1914,-0.004 0.19531,-0.008 0.19141,-0.0117 0.19531,-0.0117 0.19141,-0.0156 0.19531,-0.0156 0.19141,-0.0195 0.19531,-0.0195 0.19141,-0.0234 0.19531,-0.0234 0.19141,-0.0273 0.1914,-0.0312 0.19531,-0.0312 0.19141,-0.0312 0.19531,-0.0352 0.19141,-0.0391 0.19531,-0.0391 0.19141,-0.043 0.19531,-0.043 0.19141,-0.0469 0.19531,-0.0469 0.19141,-0.0508 0.19531,-0.0547 0.1914,-0.0547 0.19532,-0.0547 0.1914,-0.0586 0.19532,-0.0625 0.1914,-0.0625 0.19531,-0.0625 0.19141,-0.0703 0.19531,-0.0664 0.19141,-0.0742 0.19531,-0.0703 0.19141,-0.0781 0.19531,-0.0781 0.19141,-0.0781 0.1914,-0.082 0.19532,-0.082 0.1914,-0.0859 0.19531,-0.0898 0.19141,-0.0898 0.19531,-0.0937 0.19141,-0.0937 0.19531,-0.0977 0.19141,-0.0977 0.19531,-0.10156 0.19141,-0.10156 0.19531,-0.10547 0.19141,-0.10938 0.19531,-0.10937 0.1914,-0.10938 0.19532,-0.11328 0.1914,-0.11718 0.19532,-0.11719 0.1914,-0.1211 0.19531,-0.12109 0.19141,-0.125 0.19531,-0.125 0.19141,-0.12891 0.19531,-0.1289 0.38281,-0.26563 0.19532,-0.13672 0.1914,-0.14062 0.19532,-0.14063 0.1914,-0.14453 0.19531,-0.14453 0.19141,-0.14453 0.19531,-0.15234 0.19141,-0.14844 0.19531,-0.15625 0.19141,-0.15625 0.19531,-0.15625 0.19141,-0.16016 0.19531,-0.16015 0.19141,-0.16407 0.19531,-0.16796 0.1914,-0.16797 0.19532,-0.17188 0.1914,-0.17187 0.19532,-0.17578 0.1914,-0.17579 0.19531,-0.17968 0.19141,-0.17969 0.19531,-0.18359 0.19141,-0.1836 0.19531,-0.1875 0.38281,-0.38281 0.19532,-0.19141 0.1914,-0.19531 0.19532,-0.19922 0.1914,-0.19922 0.19531,-0.20312 0.19141,-0.20313 0.19531,-0.20703 0.19141,-0.20703 0.19531,-0.21094 0.19141,-0.21484 0.19531,-0.21484 0.19141,-0.21485 0.19531,-0.21875 0.19141,-0.22265 0.19531,-0.22266 0.1914,-0.22656 0.19532,-0.22657 0.1914,-0.23046 0.19532,-0.23047 0.1914,-0.23438 0.19531,-0.23437 0.19141,-0.23828 0.19531,-0.23829 0.19141,-0.24218 0.19141,-0.2461 0.19531,-0.24609 0.1914,-0.25 0.19532,-0.25 0.1914,-0.25 0.19532,-0.25781 0.1914,-0.25391 0.19531,-0.26172 0.19141,-0.26172 0.19531,-0.26172 0.19141,-0.26562 0.19531,-0.26563 0.19141,-0.26953 0.19531,-0.27343 0.19141,-0.27344 0.19531,-0.27735 0.19141,-0.27734 0.19531,-0.27734 0.1914,-0.28516 0.19532,-0.28125 0.1914,-0.28906 0.19532,-0.28906 0.1914,-0.28907 0.19531,-0.29297 0.19141,-0.29296 0.19141,-0.29688 0.19531,-0.30078 0.19141,-0.30078 0.19531,-0.30469 0.1914,-0.30469 0.19532,-0.30859 0.1914,-0.30859 0.19532,-0.3125 0.1914,-0.3125 0.19531,-0.31641 0.19141,-0.31641 0.19531,-0.32031 0.19141,-0.32422 0.19531,-0.32422 0.19141,-0.32422 0.19531,-0.33203 0.19141,-0.328125 0.19531,-0.332032 0.19141,-0.335937 0.19531,-0.335938 0.1914,-0.339843 0.19532,-0.34375 0.1914,-0.339844 0.19532,-0.347656 0.38281,-0.695313 0.19531,-0.351562 0.19141,-0.355469 0.19531,-0.355469 0.19141,-0.359375 0.19531,-0.359375 0.1914,-0.363281 0.19532,-0.363281 0.1914,-0.367188 0.19532,-0.367187 0.1914,-0.371094 0.19531,-0.375 0.19141,-0.375 0.19531,-0.375 0.19141,-0.378906 0.19531,-0.382813 0.19141,-0.382812 0.19531,-0.386719 0.19141,-0.386719 0.19531,-0.390625 0.19141,-0.390625 0.19531,-0.394531 0.1914,-0.394531 0.19532,-0.398438 0.38281,-0.804687 0.19531,-0.402344 0.19141,-0.40625 0.19531,-0.410156 0.19141,-0.410157 0.19531,-0.414062 0.19141,-0.414063 0.19531,-0.417968 0.1914,-0.417969 0.19532,-0.421875 0.1914,-0.421875 0.19532,-0.425781 0.1914,-0.429688 0.19531,-0.429687 0.19141,-0.429688 0.19531,-0.4375 0.19141,-0.433594 0.19531,-0.4375 0.19141,-0.441406 0.19531,-0.441406 0.19141,-0.445313 0.19531,-0.449218 0.19141,-0.445313 0.19531,-0.453125 0.1914,-0.453125 0.19532,-0.453125 0.1914,-0.457031 0.19141,-0.460938 0.19531,-0.460937 0.19141,-0.464844 0.19531,-0.464844 0.19141,-0.46875 0.19531,-0.46875 0.19141,-0.472656 0.19531,-0.472656 0.1914,-0.476563 0.19532,-0.476562 0.1914,-0.480469 0.19532,-0.484375 0.1914,-0.484375 0.19531,-0.488281 0.19141,-0.488281 0.19531,-0.488282 0.19141,-0.496093 0.19531,-0.492188 0.19141,-0.5 0.19531,-0.5 0.19141,-0.5 0.19531,-0.503906 0.19141,-0.503906 0.19531,-0.507813 0.38281,-1.023437 0.19531,-0.515625 0.19141,-0.515625 0.19531,-0.515625 0.19141,-0.523438 0.19531,-0.519531 0.19141,-0.527344 0.19531,-0.527344 0.19141,-0.527343 0.19531,-0.53125 0.1914,-0.53125 0.19532,-0.535157 0.1914,-0.539062 0.19532,-0.539063 0.1914,-0.542968 0.19531,-0.542969 0.19141,-0.546875 0.19531,-0.546875 0.19141,-0.550781 0.19531,-0.550782 0.19141,-0.554687 0.19531,-0.554688 0.19141,-0.558593 0.19531,-0.5625 0.38281,-1.125 0.19531,-0.566407 0.19141,-0.570312 0.19531,-0.570313 0.19141,-0.574218 0.19531,-0.574219 0.19141,-0.578125 0.19531,-0.578125 0.19141,-0.582031 0.19531,-0.585938 0.19141,-0.585937 0.19531,-0.585938 0.1914,-0.589844 0.19532,-0.59375 0.1914,-0.59375 0.19532,-0.597656 0.1914,-0.597656 0.19531,-0.601563 0.19141,-0.601562 0.19531,-0.605469 0.19141,-0.605469 0.19531,-0.609375 0.19141,-0.609375 0.19531,-0.613281 0.38281,-1.234375 0.19532,-0.621094 0.1914,-0.621093 0.19531,-0.621094 0.19141,-0.628906 0.19531,-0.625 0.19141,-0.632813 0.19531,-0.632812 0.19141,-0.632813 0.19531,-0.636719 0.19141,-0.636718 0.19531,-0.640625 0.19141,-0.644532 0.19531,-0.644531 0.1914,-0.648437 0.19532,-0.648438 0.1914,-0.652344 0.19532,-0.652343 0.1914,-0.65625 0.19531,-0.65625 0.19141,-0.660157 0.19531,-0.660156 0.19141,-0.664062 0.19531,-0.667969 0.38281,-1.335938 0.19532,-0.671875 0.1914,-0.675781 0.19532,-0.675781 0.1914,-0.679688 0.19531,-0.679687 0.19141,-0.683594 0.19531,-0.683594 0.19141,-0.6875 0.19531,-0.6875 0.19141,-0.691406 0.19531,-0.695312 0.19141,-0.695313 0.19531,-0.699219 0.19141,-0.699218 0.19531,-0.699219"
           style="fill:none;stroke:#fafafa;stroke-width:0.65966403;stroke-linecap:butt;stroke-linejoin:miter;stroke-miterlimit:4;stroke-dasharray:none;stroke-opacity:1"
           inkscape:connector-curvature="0" />
      </g>
      <g
         transform="matrix(0.15160311,0,0,0.15158152,129.79187,71.001072)"
         id="g110771"
         clip-path="url(#clip5-4)"
         style="clip-rule:nonzero;stroke:#fafafa;stroke-width:0.65966403;stroke-miterlimit:4;stroke-dasharray:none;stroke-opacity:1">
        <path
           id="path110773"
           transform="matrix(1,0,0,-1,177.771,327.318)"
           d="M -0.00146875,8.78675 H 97.025875 l 0.195313,0.00391 0.191406,0.00781 0.195312,0.00391 0.191407,0.00781 0.195312,0.011719 0.191406,0.00781 0.195313,0.011718 0.191406,0.015625 0.195313,0.011719 0.191406,0.019531 0.195312,0.015625 0.191407,0.019532 0.195312,0.019531 0.191406,0.023437 0.195313,0.023438 0.191411,0.023437 0.19531,0.027344 0.1914,0.027344 0.19532,0.027344 0.1914,0.03125 0.19532,0.03125 0.1914,0.03125 0.19531,0.035156 0.19141,0.035156 0.19531,0.039063 0.38282,0.078125 0.19531,0.042968 0.1914,0.042969 0.19532,0.042969 0.1914,0.046875 0.19532,0.046875 0.1914,0.046875 0.19531,0.050781 0.19141,0.050781 0.19531,0.054688 0.19141,0.050781 0.19531,0.058594 0.19141,0.054687 0.19531,0.058594 0.19141,0.05859 0.19531,0.0625 0.19141,0.0625 0.19531,0.0625 0.1914,0.06641 0.19532,0.06641 0.1914,0.07031 0.19532,0.07031 0.1914,0.07031 0.19531,0.07031 0.38282,0.148438 0.19531,0.07813 0.19141,0.07813 0.19531,0.07813 0.1914,0.08203 0.19532,0.08203 0.1914,0.08203 0.19532,0.08594 0.1914,0.08594 0.19531,0.08984 0.19141,0.08984 0.19531,0.08984 0.19141,0.08984 0.19531,0.09375 0.19141,0.09766 0.19531,0.09375 0.19141,0.09766 0.19531,0.101563 0.19141,0.09766 0.19531,0.105469 0.1914,0.101562 0.19532,0.105469 0.1914,0.105469 0.19532,0.105468 0.1914,0.109375 0.19141,0.113282 0.19531,0.109375 0.19141,0.113281 0.19531,0.117187 0.19141,0.113282 0.19531,0.117187 0.1914,0.121094 0.19532,0.117187 0.1914,0.125 0.19532,0.121094 0.1914,0.125 0.19531,0.125 0.19141,0.128906 0.19531,0.128907 0.19141,0.128906 0.19531,0.132812 0.19141,0.132813 0.19531,0.132812 0.19141,0.136719 0.19531,0.136719 0.19141,0.136719 0.19531,0.140625 0.1914,0.140625 0.19532,0.144531 0.38281,0.289062 0.19531,0.144532 0.19141,0.148437 0.19531,0.152344 0.19141,0.148437 0.19531,0.152344 0.19141,0.15625 0.19531,0.15625 0.1914,0.15625 0.19532,0.15625 0.1914,0.160156 0.19532,0.160157 0.1914,0.164062 0.19531,0.164063 0.19141,0.164062 0.19531,0.167969 0.19141,0.167969 0.19531,0.167968 0.19141,0.171875 0.19531,0.171875 0.19141,0.171875 0.19531,0.175782 0.19141,0.175781 0.19531,0.179687 0.38281,0.359375 0.19531,0.179688 0.19141,0.183594 0.19531,0.1875 0.19141,0.183593 0.19531,0.1875 0.19141,0.191407 0.19531,0.191406 0.19141,0.191406 0.19531,0.191406 0.1914,0.195313 0.19532,0.195312 0.1914,0.199219 0.19532,0.199219 0.1914,0.199219 0.19531,0.203125 0.19141,0.203125 0.19531,0.203125 0.19141,0.207031 0.19531,0.207031 0.19141,0.207031 0.19531,0.210938 0.19141,0.210937 0.19531,0.214844 0.19141,0.214844 0.19531,0.214844 0.1914,0.214843 0.19141,0.21875 0.19531,0.222657 0.19141,0.21875 0.19531,0.222656 0.19141,0.226562 0.19531,0.226563 0.19141,0.226562 0.19531,0.226563 0.19141,0.230469 0.19531,0.230468 0.1914,0.234375 0.19532,0.234375 0.1914,0.234375 0.19532,0.238282 0.1914,0.238281 0.19531,0.238281 0.19141,0.242188 0.19531,0.242187 0.19141,0.242188 0.19531,0.246093 0.19141,0.246094 0.19531,0.25 0.19141,0.25 0.19531,0.25 0.19141,0.25 0.1914,0.253906 0.19531,0.257813 0.19141,0.253906 0.19531,0.257813 0.19141,0.261718 0.19531,0.257813 0.19141,0.265625 0.19531,0.261719 0.19141,0.265625 0.19531,0.265625 0.19141,0.269531 0.19531,0.269531 0.1914,0.269531 0.19532,0.269532 0.1914,0.273437 0.19532,0.277344 0.1914,0.273437 0.19531,0.28125 0.19141,0.277344 0.19531,0.28125 0.19141,0.28125 0.19531,0.28125 0.19141,0.285156 0.19531,0.289063 0.19141,0.285156 0.1914,0.289063 0.19532,0.289062 0.1914,0.292969 0.19531,0.292969 0.19141,0.292968 0.19531,0.296875 0.19141,0.296875 0.19531,0.300782 0.19141,0.300781 0.19531,0.300781 0.19141,0.300781 0.19531,0.304688 0.19141,0.308594 0.19531,0.304687 0.1914,0.308594 0.19532,0.3125 0.1914,0.308594 0.19532,0.3125 0.1914,0.316406 0.19531,0.316406 0.19141,0.316406 0.19531,0.316407 0.19141,0.320312 0.19531,0.320313 0.38281,0.648437 0.19532,0.324219 0.1914,0.328125 0.19532,0.328125 0.1914,0.328125 0.19531,0.332031 0.19141,0.332031 0.19531,0.332032 0.19141,0.335937 0.19531,0.339844 0.19141,0.335937 0.19531,0.339844 0.19141,0.339844 0.19531,0.34375 0.19141,0.34375 0.19531,0.34375 0.1914,0.347656 0.19532,0.347656 0.1914,0.347657 0.19532,0.351562 0.1914,0.351563 0.19531,0.355468 0.19141,0.355469 0.19531,0.355469 0.19141,0.355469 0.19531,0.359375 0.19141,0.363281 0.1914,0.359375 0.19532,0.363281 0.1914,0.367188 0.19532,0.367187 0.1914,0.367188 0.19531,0.367187 0.19141,0.371094 0.19531,0.371094 0.19141,0.375 0.19531,0.375 0.19141,0.375 0.19531,0.375 0.19141,0.378906 0.19531,0.382812 0.19141,0.378907 0.19531,0.386718 0.1914,0.382813 0.19532,0.386719 0.1914,0.386718 0.19532,0.386719 0.1914,0.390625 0.19531,0.390625 0.19141,0.394531 0.19531,0.394532 0.19141,0.394531 0.19141,0.398437 0.19531,0.398438 0.1914,0.398437 0.19532,0.402344 0.1914,0.402344 0.19532,0.40625 0.1914,0.402344 0.19531,0.410156 0.19141,0.40625 0.19531,0.410156 0.19141,0.410156 0.19531,0.414063 0.19141,0.414062 0.19531,0.414063 0.19141,0.417969 0.19531,0.417968 0.19141,0.417969 0.19531,0.421875 0.1914,0.421875 0.19532,0.425781 0.1914,0.425782 0.19532,0.425781 0.1914,0.425781 0.19531,0.429688 0.19141,0.433593 0.19141,0.429688 0.19531,0.433594 0.19141,0.4375 0.19531,0.433593 0.1914,0.441407 0.19532,0.4375 0.1914,0.441406 0.19532,0.441406 0.1914,0.445313 0.19531,0.441406 0.19141,0.449219 0.19531,0.445312 0.19141,0.449219 0.19531,0.453125 0.19141,0.449219 0.19531,0.453125 0.19141,0.457031 0.19531,0.457031 0.19141,0.457031 0.19531,0.457032 0.1914,0.460937 0.19532,0.460938 0.1914,0.464843 0.19532,0.464844 0.1914,0.464844 0.19141,0.46875 0.19531,0.46875 0.19141,0.46875 0.19531,0.472656 0.19141,0.472656 0.19531,0.472657 0.1914,0.476562 0.19532,0.476563 0.1914,0.480468 0.19532,0.480469 0.1914,0.480469 0.19531,0.484375 0.19141,0.484375 0.19531,0.484375 0.19141,0.488281 0.19531,0.488281 0.19141,0.488282 0.19531,0.492187 0.19141,0.492188 0.19531,0.492187 0.19141,0.496094 0.19531,0.496094 0.1914,0.5 0.19532,0.5 0.1914,0.5 0.19141,0.503906 0.19531,0.503906 0.19141,0.503906 0.19531,0.507816 0.19141,0.50781 0.19531,0.51172 0.19141,0.50781 0.19531,0.51563 0.1914,0.51172 0.19532,0.51562 0.1914,0.51563 0.19532,0.51953 0.1914,0.51953 0.19531,0.51953 0.19141,0.52344 0.19531,0.52344 0.19141,0.52343 0.19531,0.52735 0.19141,0.52734 0.19531,0.53125 0.19141,0.52734 0.19531,0.53516 0.19141,0.53125 0.19531,0.53516 0.1914,0.53515 0.19532,0.53907 0.38281,1.07812 0.19531,0.54297 0.19141,0.54297 0.19531,0.54687 0.19141,0.54688 0.19531,0.54687 0.19141,0.54688 0.19531,0.55078 0.1914,0.55078 0.19532,0.55469 0.1914,0.55469 0.19532,0.55468 0.1914,0.5586 0.19531,0.55859 0.19141,0.55859 0.19531,0.5625 0.19141,0.5625 0.19531,0.56641 0.19141,0.56641 0.19531,0.5664 0.19141,0.56641 0.19531,0.57031 0.19141,0.57422 0.19531,0.57031 0.1914,0.57422 0.19141,0.57813 0.19531,0.57422 0.19141,0.57812 0.19531,0.58203 0.19141,0.58203 0.19531,0.58203 0.19141,0.58204 0.19531,0.58593 0.19141,0.58594 0.19531,0.58984 0.1914,0.58985 0.19532,0.58984 0.1914,0.59375 0.19532,0.59375 0.1914,0.59375 0.19531,0.59766 0.19141,0.59765 0.19531,0.60157 0.19141,0.60156 0.19531,0.60156 0.19141,0.60156 0.19531,0.60547 0.19141,0.60547 0.19531,0.60938 0.38281,1.21875 0.19531,0.61328 0.19141,0.61328 0.19531,0.61719 0.19141,0.61718 0.19531,0.61719 0.19141,0.61719 0.19531,0.62109 0.19141,0.6211 0.19531,0.625 0.19141,0.625 0.19531,0.625 0.1914,0.6289 0.19532,0.62891 0.1914,0.62891 0.19532,0.63281 0.1914,0.63281 0.19531,0.63672 0.19141,0.63281 0.19531,0.64063 0.19141,0.63672 0.19531,0.64062 0.19141,0.64063 0.19531,0.64453 0.38281,1.28906 0.19532,0.64844 0.1914,0.64843 0.19531,0.65235 0.19141,0.64844 0.19531,0.65625 0.19141,0.65234 0.19531,0.65625 0.19141,0.65625 0.19531,0.66016 0.19141,0.66015 0.19531,0.66016 0.19141,0.66406 0.19531,0.66406 0.1914,0.66407 0.19532,0.66796 0.1914,0.66797 0.19532,0.66797 0.1914,0.67188 0.19531,0.67187 0.19141,0.67578 0.19531,0.67578 0.19141,0.67579 0.19531,0.67968 0.38281,1.35938 0.19532,0.68359 0.1914,0.6836 0.19532,0.68359 0.1914,0.6875 0.19531,0.6875 0.19141,0.69141 0.19531,0.6914 0.19141,0.69141 0.19531,0.6914 0.19141,0.69532 0.19531,0.69922 0.19141,0.69531 0.19531,0.69922 0.19141,0.70312 0.19531,0.70313"
           style="fill:none;stroke:#fafafa;stroke-width:0.65966403;stroke-linecap:butt;stroke-linejoin:miter;stroke-miterlimit:4;stroke-dasharray:none;stroke-opacity:1"
           inkscape:connector-curvature="0" />
      </g>
      <g
         transform="matrix(0.15160311,0,0,0.15158152,129.79187,71.001072)"
         id="g110775"
         style="fill:#ffffff;fill-opacity:1;stroke-width:0.65966403;stroke-miterlimit:4;stroke-dasharray:none">
        <g
           id="use110777"
           style="fill:#ffffff;stroke-width:0.65966403;stroke-miterlimit:4;stroke-dasharray:none"
           transform="matrix(0.26458333,0,0,0.26458333,271.56601,355.42801)">
          <path
             inkscape:connector-curvature="0"
             id="path201182"
             d="m 3.125,0.0625 -1.265625,-0.5 c -0.3125,-0.125 -1.015625,-0.40625 -1.015625,-1.125 0,-1.03125 1.25,-2.078125 1.5,-2.078125 0.015625,0 0.125,0.03125 0.171875,0.046875 0.3125,0.09375 0.625,0.09375 0.84375,0.09375 0.375,0 1.078125,0 1.078125,-0.34375 C 4.4375,-4.109375 4,-4.140625 3.484375,-4.140625 3.25,-4.140625 2.921875,-4.140625 2.5,-4 2.21875,-4.25 2.09375,-4.625 2.09375,-4.984375 c 0,-0.65625 0.421875,-1.59375 1.375,-2.03125 0.21875,0.25 0.5,0.25 0.75,0.25 0.296875,0 1.03125,0 1.03125,-0.34375 0,-0.296875 -0.578125,-0.296875 -0.953125,-0.296875 -0.25,0 -0.421875,0 -0.765625,0.0625 -0.046875,-0.15625 -0.0625,-0.171875 -0.0625,-0.4375 0,-0.21875 0.046875,-0.375 0.046875,-0.421875 0,-0.0625 -0.0625,-0.109375 -0.125,-0.109375 -0.1875,0 -0.1875,0.4375 -0.1875,0.53125 0,0.171875 0.015625,0.328125 0.078125,0.484375 -1.421875,0.421875 -2.0625,1.4375 -2.0625,2.21875 0,0.71875 0.484375,1.109375 0.796875,1.28125 -1.234375,0.671875 -1.75,1.890625 -1.75,2.546875 0,1.03125 0.9375,1.40625 1.375,1.578125 l 1.078125,0.4375 C 3.015625,0.875 3.5,1.078125 3.578125,1.125 c 0.125,0.078125 0.21875,0.21875 0.21875,0.421875 0,0.25 -0.1875,0.65625 -0.609375,0.65625 -0.171875,0 -0.5625,-0.046875 -1,-0.375 C 2.109375,1.75 2.09375,1.75 2.046875,1.75 c -0.0625,0 -0.125,0.046875 -0.125,0.109375 0,0.140625 0.625,0.578125 1.265625,0.578125 0.765625,0 1.234375,-0.734375 1.234375,-1.25 0,-0.375 -0.203125,-0.671875 -0.578125,-0.84375 z m 0.609375,-7.171875 c 0.203125,-0.0625 0.40625,-0.0625 0.5625,-0.0625 0.40625,0 0.4375,0.015625 0.671875,0.078125 C 4.828125,-7.046875 4.734375,-7 4.234375,-7 4,-7 3.859375,-7 3.734375,-7.109375 Z M 2.78125,-3.84375 c 0.296875,-0.0625 0.546875,-0.0625 0.703125,-0.0625 0.390625,0 0.40625,0.015625 0.671875,0.0625 -0.125,0.0625 -0.234375,0.109375 -0.75,0.109375 -0.28125,0 -0.40625,0 -0.625,-0.109375 z m 0,0"
             style="stroke:none" />
        </g>
      </g>
      <g
         transform="matrix(0.15160311,0,0,0.15158152,129.79187,71.001072)"
         id="g110779"
         style="fill:#ffffff;fill-opacity:1;stroke-width:0.65966403;stroke-miterlimit:4;stroke-dasharray:none">
        <g
           id="use110781"
           style="fill:#ffffff;stroke-width:0.65966403;stroke-miterlimit:4;stroke-dasharray:none"
           transform="matrix(0.26458333,0,0,0.26458333,147.368,240.35001)">
          <path
             inkscape:connector-curvature="0"
             id="path201186"
             d="m -6.90625,-8.84375 c -0.515625,-0.140625 -0.875,-0.328125 -0.90625,-1.234375 0,-0.03125 -0.015625,-0.171875 -0.21875,-0.171875 -0.125,0 -0.125,0.109375 -0.125,0.15625 0,0.234375 0.015625,0.84375 0.015625,1.078125 V -8.4375 c 0,0.171875 -0.015625,0.375 -0.015625,0.546875 0,0.078125 0,0.21875 0.21875,0.21875 0.125,0 0.125,-0.09375 0.125,-0.1875 0.015625,-0.71875 0.296875,-0.765625 0.515625,-0.765625 0.09375,0 0.140625,0.015625 0.296875,0.046875 l 5.390625,1.359375 -6.34375,2.5625 C -8.15625,-4.578125 -8.15625,-4.5625 -8.15625,-4.296875 v 1.453125 c 0,0.234375 0,0.34375 0.21875,0.34375 0.125,0 0.125,-0.078125 0.125,-0.3125 0,-0.0625 0,-0.765625 0.109375,-0.765625 0.015625,0 0.109375,0.03125 0.15625,0.046875 l 6.328125,1.578125 c 0.578125,0.140625 0.84375,0.4375 0.875,1.21875 0,0.0625 0.015625,0.1875 0.21875,0.1875 0.125,0 0.125,-0.125 0.125,-0.15625 0,-0.234375 -0.03125,-0.84375 -0.03125,-1.09375 v -0.5625 C -0.03125,-2.53125 0,-2.734375 0,-2.90625 0,-2.984375 0,-3.125 -0.234375,-3.125 c -0.09375,0 -0.109375,0.125 -0.109375,0.171875 -0.015625,0.390625 -0.09375,0.78125 -0.515625,0.78125 -0.09375,0 -0.203125,-0.03125 -0.296875,-0.046875 l -6.390625,-1.625 c 0.109375,-0.0625 0.140625,-0.0625 0.25,-0.109375 l 7.078125,-2.84375 C -0.078125,-6.859375 0,-6.890625 0,-7 0,-7.109375 -0.03125,-7.125 -0.234375,-7.171875 Z m 0,0"
             style="stroke:none" />
        </g>
      </g>
      <g
         transform="matrix(0.15160311,0,0,0.15158152,129.79187,71.001072)"
         id="g110783"
         style="fill:#ffffff;fill-opacity:1;stroke-width:0.65966403;stroke-miterlimit:4;stroke-dasharray:none">
        <g
           id="use110785"
           style="fill:#ffffff;stroke-width:0.65966403;stroke-miterlimit:4;stroke-dasharray:none"
           transform="matrix(0.26458333,0,0,0.26458333,149.161,230.97701)">
          <path
             inkscape:connector-curvature="0"
             id="path201190"
             d="m -4.96875,-2.375 c -0.171875,0 -0.3125,0.125 -0.3125,0.3125 0,0.203125 0.203125,0.4375 0.4375,0.4375 0.171875,0 0.296875,-0.125 0.296875,-0.3125 0,-0.203125 -0.1875,-0.4375 -0.421875,-0.4375 z m 2.921875,1.15625 1.09375,0.4375 c 0.125,0.046875 0.21875,0.078125 0.359375,0.078125 0.390625,0 0.671875,-0.296875 0.671875,-0.71875 0,-0.78125 -1.109375,-1.109375 -1.21875,-1.109375 -0.078125,0 -0.109375,0.0625 -0.109375,0.125 0,0.09375 0.0625,0.109375 0.140625,0.140625 0.640625,0.171875 0.96875,0.5 0.96875,0.828125 0,0.09375 -0.046875,0.1875 -0.25,0.1875 -0.203125,0 -0.34375,-0.0625 -0.59375,-0.15625 C -1.1875,-1.484375 -1.40625,-1.5625 -1.625,-1.65625 l -0.640625,-0.25 c -0.1875,-0.0625 -0.4375,-0.171875 -0.578125,-0.171875 -0.390625,0 -0.671875,0.328125 -0.671875,0.734375 0,0.765625 1.109375,1.109375 1.21875,1.109375 0.078125,0 0.109375,-0.0625 0.109375,-0.125 0,-0.109375 -0.046875,-0.109375 -0.125,-0.140625 -0.765625,-0.21875 -0.984375,-0.578125 -0.984375,-0.828125 0,-0.109375 0.046875,-0.1875 0.265625,-0.1875 0.078125,0 0.1875,0.015625 0.4375,0.09375 z m 0,0"
             style="stroke:none" />
        </g>
        <g
           id="use110787"
           style="fill:#ffffff;stroke-width:0.65966403;stroke-miterlimit:4;stroke-dasharray:none"
           transform="matrix(0.26458333,0,0,0.26458333,149.161,228.09421)">
          <path
             inkscape:connector-curvature="0"
             id="path201194"
             d="m -0.125,-1.484375 c 0.515625,0 0.984375,0.109375 1.46875,0.59375 0.03125,0.03125 0.046875,0.046875 0.078125,0.046875 0.0625,0 0.109375,-0.0625 0.109375,-0.109375 0,-0.09375 -0.625,-0.765625 -1.5625,-0.765625 -0.5,0 -0.859375,0.203125 -0.859375,0.546875 0,0.28125 0.234375,0.4375 0.4375,0.4375 0.234375,0 0.453125,-0.15625 0.453125,-0.4375 0,-0.203125 -0.109375,-0.3125 -0.125,-0.3125 z m 0,0"
             style="stroke:none" />
        </g>
      </g>
      <g
         transform="matrix(0.15160311,0,0,0.15158152,129.79187,71.001072)"
         id="g110789"
         style="fill:#ffffff;fill-opacity:1;stroke-width:0.65966403;stroke-miterlimit:4;stroke-dasharray:none">
        <g
           id="use110791"
           style="fill:#ffffff;stroke-width:0.65966403;stroke-miterlimit:4;stroke-dasharray:none"
           transform="matrix(0.26458333,0,0,0.26458333,149.161,225.741)">
          <path
             inkscape:connector-curvature="0"
             id="path201198"
             d="m -1.625,-2.25 c -0.125,-0.125 -0.390625,-0.453125 -0.5,-0.59375 -0.453125,-0.484375 -0.890625,-0.953125 -1.609375,-0.953125 -0.953125,0 -1.5625,0.796875 -1.5625,1.78125 0,0.96875 0.71875,1.59375 1.4375,1.59375 0.390625,0 0.4375,-0.3125 0.4375,-0.421875 0,-0.171875 -0.109375,-0.421875 -0.421875,-0.421875 -0.40625,0 -0.40625,0.40625 -0.40625,0.5 C -4.84375,-1 -5.03125,-1.53125 -5.03125,-1.921875 c 0,-0.734375 0.625,-1.125 1.296875,-1.125 0.828125,0 1.4375,0.578125 2.390625,1.53125 l 1.046875,1 c 0.078125,0.09375 0.09375,0.09375 0.296875,0.09375 V -3.5625 l -1.421875,-0.234375 v 0.25 c 0.15625,0.015625 0.546875,0.078125 0.703125,0.171875 0.0625,0.046875 0.0625,0.65625 0.0625,0.78125 v 1.421875 z m 0,0"
             style="stroke:none" />
        </g>
      </g>
    </g>
  </g>
</svg>
