<?xml version="1.0" encoding="UTF-8" standalone="no"?>
<!-- Created with Inkscape (http://www.inkscape.org/) -->

<svg
   xmlns:dc="http://purl.org/dc/elements/1.1/"
   xmlns:cc="http://creativecommons.org/ns#"
   xmlns:rdf="http://www.w3.org/1999/02/22-rdf-syntax-ns#"
   xmlns:svg="http://www.w3.org/2000/svg"
   xmlns="http://www.w3.org/2000/svg"
   xmlns:sodipodi="http://sodipodi.sourceforge.net/DTD/sodipodi-0.dtd"
   xmlns:inkscape="http://www.inkscape.org/namespaces/inkscape"
   width="100mm"
   height="100mm"
   viewBox="0 0 354.33071 354.33071"
   id="svg23965"
   version="1.1"
   inkscape:version="0.91 r13725"
   sodipodi:docname="uni_stuttgart_white.svg">
  <defs
     id="defs23967">
    <clipPath
       id="clip1">
      <path
         id="path24553"
         d="m 17,35 3,0 0,2.5 -3,0 z m 0,0"
         inkscape:connector-curvature="0" />
    </clipPath>
    <clipPath
       id="clip2">
      <path
         id="path24556"
         d="m 13,35 3,0 0,2.5 -3,0 z m 0,0"
         inkscape:connector-curvature="0" />
    </clipPath>
    <clipPath
       id="clip3">
      <path
         id="path24559"
         d="m 164,14 9.69531,0 0,10 L 164,24 Z m 0,0"
         inkscape:connector-curvature="0" />
    </clipPath>
  </defs>
  <sodipodi:namedview
     id="base"
     pagecolor="#ffffff"
     bordercolor="#666666"
     borderopacity="1.0"
     inkscape:pageopacity="0.0"
     inkscape:pageshadow="2"
     inkscape:zoom="0.64189453"
     inkscape:cx="51.545231"
     inkscape:cy="433.6614"
     inkscape:document-units="px"
     inkscape:current-layer="layer1"
     showgrid="false"
     inkscape:window-width="1855"
     inkscape:window-height="1056"
     inkscape:window-x="65"
     inkscape:window-y="24"
     inkscape:window-maximized="1" />
  <metadata
     id="metadata23970">
    <rdf:RDF>
      <cc:Work
         rdf:about="">
        <dc:format>image/svg+xml</dc:format>
        <dc:type
           rdf:resource="http://purl.org/dc/dcmitype/StillImage" />
        <dc:title></dc:title>
      </cc:Work>
    </rdf:RDF>
  </metadata>
  <g
     inkscape:label="Layer 1"
     inkscape:groupmode="layer"
     id="layer1"
     transform="translate(0,-698.0315)">
    <g
       id="g25243"
       transform="matrix(0.85975796,0,0,0.85975796,-159.62248,649.73515)"
       style="fill:#ffffff">
      <path
         id="path24562"
         d="m 388.98802,251.43076 c -5.81092,0 -10.50916,4.69824 -10.50916,10.50916 0,5.81101 4.69824,10.50924 10.50916,10.50924 5.81101,0 10.50924,-4.69823 10.50924,-10.50924 0,-5.81092 -4.69823,-10.50916 -10.50924,-10.50916"
         style="fill:#ffffff;fill-opacity:1;fill-rule:nonzero;stroke:none"
         inkscape:connector-curvature="0" />
      <path
         id="path24564"
         d="m 415.52902,245.57857 c 0,-5.81101 -4.73951,-10.55043 -10.55043,-10.55043 -5.81101,0 -10.50924,4.73942 -10.50924,10.55043 0,5.76973 4.69823,10.50924 10.50924,10.50924 5.81092,0 10.55043,-4.73951 10.55043,-10.50924"
         style="fill:#ffffff;fill-opacity:1;fill-rule:nonzero;stroke:none"
         inkscape:connector-curvature="0" />
      <path
         id="path24566"
         d="m 415.52902,278.34255 c 0,-5.81092 -4.73951,-10.55043 -10.55043,-10.55043 -5.81101,0 -10.50924,4.73951 -10.50924,10.55043 0,5.81101 4.69823,10.50924 10.50924,10.50924 5.81092,0 10.55043,-4.69823 10.55043,-10.50924"
         style="fill:#ffffff;fill-opacity:1;fill-rule:nonzero;stroke:none"
         inkscape:connector-curvature="0" />
      <path
         id="path24568"
         d="m 423.11208,250.89497 c -5.76974,0 -10.50916,4.69823 -10.50916,10.55043 0,5.76974 4.73942,10.50924 10.50916,10.50924 5.81101,0 10.55043,-4.7395 10.55043,-10.50924 0,-5.8522 -4.73942,-10.55043 -10.55043,-10.55043"
         style="fill:#ffffff;fill-opacity:1;fill-rule:nonzero;stroke:none"
         inkscape:connector-curvature="0" />
      <path
         id="path24570"
         d="m 442.93541,234.36869 c -5.81101,0 -10.50924,4.73951 -10.50924,10.50924 0,5.8522 4.69823,10.50925 10.50924,10.50925 5.81092,0 10.50916,-4.65705 10.50916,-10.50925 0,-5.76973 -4.69824,-10.50924 -10.50916,-10.50924"
         style="fill:#ffffff;fill-opacity:1;fill-rule:nonzero;stroke:none"
         inkscape:connector-curvature="0" />
      <path
         id="path24572"
         d="m 442.77057,268.16307 c -5.81101,0 -10.50924,4.73942 -10.50924,10.55043 0,5.76974 4.69823,10.50924 10.50924,10.50924 5.81092,0 10.50916,-4.7395 10.50916,-10.50924 0,-5.81101 -4.69824,-10.55043 -10.50916,-10.55043"
         style="fill:#ffffff;fill-opacity:1;fill-rule:nonzero;stroke:none"
         inkscape:connector-curvature="0" />
      <path
         id="path24574"
         d="m 422.41153,305.5841 c 5.81092,0 10.50916,-4.73942 10.50916,-10.50916 0,-5.81101 -4.69824,-10.55043 -10.50916,-10.55043 -5.81101,0 -10.50924,4.73942 -10.50924,10.55043 0,5.76974 4.69823,10.50916 10.50924,10.50916"
         style="fill:#ffffff;fill-opacity:1;fill-rule:nonzero;stroke:none"
         inkscape:connector-curvature="0" />
      <path
         id="path24576"
         d="m 416.51806,315.43398 c 0,-5.81101 -4.69823,-10.50924 -10.50916,-10.50924 -5.81101,0 -10.55043,4.69823 -10.55043,10.50924 0,5.81093 4.73942,10.50916 10.55043,10.50916 5.81093,0 10.50916,-4.69823 10.50916,-10.50916"
         style="fill:#ffffff;fill-opacity:1;fill-rule:nonzero;stroke:none"
         inkscape:connector-curvature="0" />
      <path
         id="path24578"
         d="m 389.60627,348.32161 c 5.81093,0 10.55043,-4.69823 10.55043,-10.50924 0,-5.85219 -4.7395,-10.55043 -10.55043,-10.55043 -5.811,0 -10.50924,4.69824 -10.50924,10.55043 0,5.81101 4.69824,10.50924 10.50924,10.50924"
         style="fill:#ffffff;fill-opacity:1;fill-rule:nonzero;stroke:none"
         inkscape:connector-curvature="0" />
      <path
         id="path24580"
         d="m 465.14896,250.93616 c -5.81092,0 -10.50916,4.69823 -10.50916,10.50924 0,5.81101 4.69824,10.50924 10.50916,10.50924 5.81101,0 10.55043,-4.69823 10.55043,-10.50924 0,-5.81101 -4.73942,-10.50924 -10.55043,-10.50924"
         style="fill:#ffffff;fill-opacity:1;fill-rule:nonzero;stroke:none"
         inkscape:connector-curvature="0" />
      <path
         id="path24582"
         d="m 464.07746,286.09053 c -5.81101,0 -10.50924,4.69824 -10.50924,10.50924 0,5.81101 4.69823,10.50925 10.50924,10.50925 5.81101,0 10.55043,-4.69824 10.55043,-10.50925 0,-5.811 -4.73942,-10.50924 -10.55043,-10.50924"
         style="fill:#ffffff;fill-opacity:1;fill-rule:nonzero;stroke:none"
         inkscape:connector-curvature="0" />
      <path
         id="path24584"
         d="m 488.6814,270.2237 c -5.81101,0 -10.50924,4.73942 -10.50924,10.55043 0,5.81101 4.69823,10.50924 10.50924,10.50924 5.81093,0 10.50924,-4.69823 10.50924,-10.50924 0,-5.81101 -4.69831,-10.55043 -10.50924,-10.55043"
         style="fill:#ffffff;fill-opacity:1;fill-rule:nonzero;stroke:none"
         inkscape:connector-curvature="0" />
      <path
         id="path24586"
         d="m 496.34692,316.42302 c 0,-5.8522 -4.69823,-10.55043 -10.50924,-10.55043 -5.81092,0 -10.55043,4.69823 -10.55043,10.55043 0,5.81101 4.73951,10.46805 10.55043,10.46805 5.81101,0 10.50924,-4.65704 10.50924,-10.46805"
         style="fill:#ffffff;fill-opacity:1;fill-rule:nonzero;stroke:none"
         inkscape:connector-curvature="0" />
      <path
         id="path24588"
         d="m 470.87751,332.20748 c 0,-5.8522 -4.73942,-10.50924 -10.55043,-10.50924 -5.81093,0 -10.50916,4.65704 -10.50916,10.50924 0,5.81101 4.69823,10.46797 10.50916,10.46797 5.81101,0 10.55043,-4.65696 10.55043,-10.46797"
         style="fill:#ffffff;fill-opacity:1;fill-rule:nonzero;stroke:none"
         inkscape:connector-curvature="0" />
      <path
         id="path24590"
         d="m 424.06001,346.96162 c 5.76974,0 10.50925,-4.7395 10.50925,-10.55043 0,-5.81101 -4.73951,-10.50924 -10.50925,-10.50924 -5.811,0 -10.55043,4.69823 -10.55043,10.50924 0,5.81093 4.73943,10.55043 10.55043,10.55043"
         style="fill:#ffffff;fill-opacity:1;fill-rule:nonzero;stroke:none"
         inkscape:connector-curvature="0" />
      <path
         id="path24592"
         d="m 407.57492,371.56556 c 5.81101,0 10.55043,-4.69823 10.55043,-10.50924 0,-5.81101 -4.73942,-10.55043 -10.55043,-10.55043 -5.81092,0 -10.50915,4.73942 -10.50915,10.55043 0,5.81101 4.69823,10.50924 10.50915,10.50924"
         style="fill:#ffffff;fill-opacity:1;fill-rule:nonzero;stroke:none"
         inkscape:connector-curvature="0" />
      <path
         id="path24594"
         d="m 389.48262,397.69434 c 5.81101,0 10.55043,-4.69824 10.55043,-10.50924 0,-5.81093 -4.73942,-10.55043 -10.55043,-10.55043 -5.81101,0 -10.50924,4.7395 -10.50924,10.55043 0,5.811 4.69823,10.50924 10.50924,10.50924"
         style="fill:#ffffff;fill-opacity:1;fill-rule:nonzero;stroke:none"
         inkscape:connector-curvature="0" />
      <path
         id="path24596"
         d="m 451.13672,313.0024 c 0,-5.81101 -4.69823,-10.50924 -10.50924,-10.50924 -5.81101,0 -10.50924,4.69823 -10.50924,10.50924 0,5.81101 4.69823,10.55043 10.50924,10.55043 5.81101,0 10.50924,-4.73942 10.50924,-10.55043"
         style="fill:#ffffff;fill-opacity:1;fill-rule:nonzero;stroke:none"
         inkscape:connector-curvature="0" />
      <path
         id="path24598"
         d="m 513.32653,289.51124 c -5.81101,0 -10.50924,4.69823 -10.50924,10.50915 0,5.81101 4.69823,10.50924 10.50924,10.50924 5.81101,0 10.55043,-4.69823 10.55043,-10.50924 0,-5.81092 -4.73942,-10.50915 -10.55043,-10.50915"
         style="fill:#ffffff;fill-opacity:1;fill-rule:nonzero;stroke:none"
         inkscape:connector-curvature="0" />
      <path
         id="path24600"
         d="m 509.41131,327.42678 c -5.81092,0 -10.50916,4.69824 -10.50916,10.50924 0,5.81101 4.69824,10.50925 10.50916,10.50925 5.81101,0 10.50924,-4.69824 10.50924,-10.50925 0,-5.811 -4.69823,-10.50924 -10.50924,-10.50924"
         style="fill:#ffffff;fill-opacity:1;fill-rule:nonzero;stroke:none"
         inkscape:connector-curvature="0" />
      <path
         id="path24602"
         d="m 535.29287,350.05256 c -5.81101,0 -10.50925,4.69823 -10.50925,10.50916 0,5.8522 4.69824,10.55043 10.50925,10.55043 5.811,0 10.55043,-4.69823 10.55043,-10.55043 0,-5.81093 -4.73943,-10.50916 -10.55043,-10.50916"
         style="fill:#ffffff;fill-opacity:1;fill-rule:nonzero;stroke:none"
         inkscape:connector-curvature="0" />
      <path
         id="path24604"
         d="m 503.39427,364.84789 c -5.81092,0 -10.50916,4.73943 -10.50916,10.55043 0,5.81093 4.69824,10.50916 10.50916,10.50916 5.81101,0 10.55043,-4.69823 10.55043,-10.50916 0,-5.811 -4.73942,-10.55043 -10.55043,-10.55043"
         style="fill:#ffffff;fill-opacity:1;fill-rule:nonzero;stroke:none"
         inkscape:connector-curvature="0" />
      <path
         id="path24606"
         d="m 491.89599,353.76167 c 0,-5.81101 -4.73951,-10.55043 -10.55043,-10.55043 -5.81101,0 -10.50924,4.73942 -10.50924,10.55043 0,5.8522 4.69823,10.50924 10.50924,10.50924 5.81092,0 10.55043,-4.65704 10.55043,-10.50924"
         style="fill:#ffffff;fill-opacity:1;fill-rule:nonzero;stroke:none"
         inkscape:connector-curvature="0" />
      <path
         id="path24608"
         d="m 465.72594,392.33666 c 5.76982,0 10.50924,-4.73942 10.50924,-10.50916 0,-5.85219 -4.73942,-10.55043 -10.50924,-10.55043 -5.81092,0 -10.55043,4.69824 -10.55043,10.55043 0,5.76974 4.73951,10.50916 10.55043,10.50916"
         style="fill:#ffffff;fill-opacity:1;fill-rule:nonzero;stroke:none"
         inkscape:connector-curvature="0" />
      <path
         id="path24610"
         d="m 427.48063,396.29307 c 5.81101,0 10.55043,-4.69823 10.55043,-10.50916 0,-5.85219 -4.73942,-10.55043 -10.55043,-10.55043 -5.76973,0 -10.50924,4.69824 -10.50924,10.55043 0,5.81093 4.73951,10.50916 10.50924,10.50916"
         style="fill:#ffffff;fill-opacity:1;fill-rule:nonzero;stroke:none"
         inkscape:connector-curvature="0" />
      <path
         id="path24612"
         d="m 454.47488,358.37753 c 0,-5.76982 -4.73942,-10.50925 -10.55043,-10.50925 -5.76974,0 -10.50916,4.73943 -10.50916,10.50925 0,5.81092 4.73942,10.50915 10.50916,10.50915 5.81101,0 10.55043,-4.69823 10.55043,-10.50915"
         style="fill:#ffffff;fill-opacity:1;fill-rule:nonzero;stroke:none"
         inkscape:connector-curvature="0" />
      <path
         id="path24614"
         d="m 527.87456,389.53421 c -5.76973,0 -10.50915,4.69824 -10.50915,10.50924 0,5.81101 4.73942,10.50925 10.50915,10.50925 5.8522,0 10.55043,-4.69824 10.55043,-10.50925 0,-5.811 -4.69823,-10.50924 -10.55043,-10.50924"
         style="fill:#ffffff;fill-opacity:1;fill-rule:nonzero;stroke:none"
         inkscape:connector-curvature="0" />
      <path
         id="path24616"
         d="m 487.93958,397.07617 c -5.81101,0 -10.50924,4.73942 -10.50924,10.55043 0,5.81092 4.69823,10.50916 10.50924,10.50916 5.81092,0 10.55043,-4.69824 10.55043,-10.50916 0,-5.81101 -4.73951,-10.55043 -10.55043,-10.55043"
         style="fill:#ffffff;fill-opacity:1;fill-rule:nonzero;stroke:none"
         inkscape:connector-curvature="0" />
      <path
         id="path24618"
         d="m 470.71267,427.77952 c -5.81093,0 -10.55043,4.69824 -10.55043,10.50925 0,5.811 4.7395,10.50924 10.55043,10.50924 5.81101,0 10.50924,-4.69824 10.50924,-10.50924 0,-5.81101 -4.69823,-10.50925 -10.50924,-10.50925"
         style="fill:#ffffff;fill-opacity:1;fill-rule:nonzero;stroke:none"
         inkscape:connector-curvature="0" />
      <path
         id="path24620"
         d="m 448.21062,401.44464 c -5.811,0 -10.50924,4.69831 -10.50924,10.50924 0,5.81101 4.69824,10.50924 10.50924,10.50924 5.81093,0 10.55044,-4.69823 10.55044,-10.50924 0,-5.81093 -4.73951,-10.50924 -10.55044,-10.50924"
         style="fill:#ffffff;fill-opacity:1;fill-rule:nonzero;stroke:none"
         inkscape:connector-curvature="0" />
      <path
         id="path24622"
         d="m 429.9534,433.05474 c -5.81101,0 -10.50924,4.69823 -10.50924,10.55043 0,5.76982 4.69823,10.46805 10.50924,10.46805 5.81101,0 10.55043,-4.69823 10.55043,-10.46805 0,-5.8522 -4.73942,-10.55043 -10.55043,-10.55043"
         style="fill:#ffffff;fill-opacity:1;fill-rule:nonzero;stroke:none"
         inkscape:connector-curvature="0" />
      <path
         id="path24624"
         d="m 408.52286,404.08224 c -5.76982,0 -10.50924,4.69832 -10.50924,10.50925 0,5.811 4.73942,10.50924 10.50924,10.50924 5.8522,0 10.55043,-4.69824 10.55043,-10.50924 0,-5.81093 -4.69823,-10.50925 -10.55043,-10.50925"
         style="fill:#ffffff;fill-opacity:1;fill-rule:nonzero;stroke:none"
         inkscape:connector-curvature="0" />
      <g
         transform="matrix(10.550431,0,0,10.550431,191.82689,63.748479)"
         id="g24626"
         clip-path="url(#clip1)"
         style="clip-rule:nonzero;fill:#ffffff">
        <path
           id="path24628"
           d="m 18.75,35.195312 c -0.550781,0 -0.996094,0.449219 -0.996094,0.996094 0,0.554688 0.445313,1 0.996094,1 0.550781,0 1,-0.445312 1,-1 0,-0.546875 -0.449219,-0.996094 -1,-0.996094"
           style="fill:#ffffff;fill-opacity:1;fill-rule:nonzero;stroke:none"
           inkscape:connector-curvature="0" />
      </g>
      <path
         id="path24630"
         d="m 369.45326,404.08224 c -5.81092,0 -10.50924,4.65705 -10.50924,10.50925 0,5.811 4.69832,10.50924 10.50924,10.50924 5.81101,0 10.55043,-4.69824 10.55043,-10.50924 0,-5.8522 -4.73942,-10.50925 -10.55043,-10.50925"
         style="fill:#ffffff;fill-opacity:1;fill-rule:nonzero;stroke:none"
         inkscape:connector-curvature="0" />
      <g
         transform="matrix(10.550431,0,0,10.550431,191.82689,63.748479)"
         id="g24632"
         clip-path="url(#clip2)"
         style="clip-rule:nonzero;fill:#ffffff">
        <path
           id="path24634"
           d="m 14.832031,35.015625 c -0.550781,0 -0.996093,0.445313 -0.996093,1 0,0.546875 0.445312,0.992187 0.996093,0.992187 0.550781,0 0.996094,-0.445312 0.996094,-0.992187 0,-0.554687 -0.445313,-1 -0.996094,-1"
           style="fill:#ffffff;fill-opacity:1;fill-rule:nonzero;stroke:none"
           inkscape:connector-curvature="0" />
      </g>
      <path
         id="path24636"
         d="m 308.62345,427.73834 c -5.76974,0 -10.50924,4.69823 -10.50924,10.50924 0,5.85219 4.7395,10.55043 10.50924,10.55043 5.81101,0 10.55043,-4.69824 10.55043,-10.55043 0,-5.81101 -4.73942,-10.50924 -10.55043,-10.50924"
         style="fill:#ffffff;fill-opacity:1;fill-rule:nonzero;stroke:none"
         inkscape:connector-curvature="0" />
      <path
         id="path24638"
         d="m 539.66142,310.11749 c -5.76982,0 -10.50924,4.69824 -10.50924,10.50924 0,5.8522 4.73942,10.55043 10.50924,10.55043 5.8522,0 10.55043,-4.69823 10.55043,-10.55043 0,-5.811 -4.69823,-10.50924 -10.55043,-10.50924"
         style="fill:#ffffff;fill-opacity:1;fill-rule:nonzero;stroke:none"
         inkscape:connector-curvature="0" />
      <path
         id="path24640"
         d="m 565.99622,331.79534 c -5.76973,0 -10.50915,4.7395 -10.50915,10.55043 0,5.811 4.73942,10.50924 10.50915,10.50924 5.8522,0 10.55043,-4.69824 10.55043,-10.50924 0,-5.81093 -4.69823,-10.55043 -10.55043,-10.55043"
         style="fill:#ffffff;fill-opacity:1;fill-rule:nonzero;stroke:none"
         inkscape:connector-curvature="0" />
      <path
         id="path24642"
         d="m 571.31271,291.81908 c -5.81101,0 -10.50924,4.73951 -10.50924,10.55043 0,5.81101 4.69823,10.50924 10.50924,10.50924 5.81093,0 10.55043,-4.69823 10.55043,-10.50924 0,-5.81092 -4.7395,-10.55043 -10.55043,-10.55043"
         style="fill:#ffffff;fill-opacity:1;fill-rule:nonzero;stroke:none"
         inkscape:connector-curvature="0" />
      <path
         id="path24644"
         d="m 542.09291,270.96552 c -5.81092,0 -10.50915,4.69823 -10.50915,10.50924 0,5.81093 4.69823,10.50916 10.50915,10.50916 5.81101,0 10.50925,-4.69823 10.50925,-10.50916 0,-5.81101 -4.69824,-10.50924 -10.50925,-10.50924"
         style="fill:#ffffff;fill-opacity:1;fill-rule:nonzero;stroke:none"
         inkscape:connector-curvature="0" />
      <path
         id="path24646"
         d="m 573.08485,251.01862 c -5.81101,0 -10.50925,4.73942 -10.50925,10.55043 0,5.81101 4.69824,10.50924 10.50925,10.50924 5.81092,0 10.55043,-4.69823 10.55043,-10.50924 0,-5.81101 -4.73951,-10.55043 -10.55043,-10.55043"
         style="fill:#ffffff;fill-opacity:1;fill-rule:nonzero;stroke:none"
         inkscape:connector-curvature="0" />
      <path
         id="path24648"
         d="m 542.05173,232.01958 c -5.76974,0 -10.46797,4.69823 -10.46797,10.50924 0,5.81101 4.69823,10.55043 10.46797,10.55043 5.85219,0 10.55043,-4.73942 10.55043,-10.55043 0,-5.81101 -4.69824,-10.50924 -10.55043,-10.50924"
         style="fill:#ffffff;fill-opacity:1;fill-rule:nonzero;stroke:none"
         inkscape:connector-curvature="0" />
      <path
         id="path24650"
         d="m 560.67982,220.89216 c 0,5.81101 4.69823,10.55043 10.50924,10.55043 5.81101,0 10.55043,-4.73942 10.55043,-10.55043 0,-5.81092 -4.73942,-10.55043 -10.55043,-10.55043 -5.81101,0 -10.50924,4.73951 -10.50924,10.55043"
         style="fill:#ffffff;fill-opacity:1;fill-rule:nonzero;stroke:none"
         inkscape:connector-curvature="0" />
      <path
         id="path24652"
         d="m 528.98734,202.7174 c 0,5.81101 4.69823,10.55043 10.50924,10.55043 5.81092,0 10.50916,-4.73942 10.50916,-10.55043 0,-5.76973 -4.69824,-10.50916 -10.50916,-10.50916 -5.81101,0 -10.50924,4.73943 -10.50924,10.50916"
         style="fill:#ffffff;fill-opacity:1;fill-rule:nonzero;stroke:none"
         inkscape:connector-curvature="0" />
      <path
         id="path24654"
         d="m 565.99622,190.93063 c 5.81101,0 10.55043,-4.69824 10.55043,-10.50924 0,-5.81101 -4.73942,-10.55043 -10.55043,-10.55043 -5.81092,0 -10.50915,4.73942 -10.50915,10.55043 0,5.811 4.69823,10.50924 10.50915,10.50924"
         style="fill:#ffffff;fill-opacity:1;fill-rule:nonzero;stroke:none"
         inkscape:connector-curvature="0" />
      <path
         id="path24656"
         d="m 524.74244,163.19456 c 0,5.81092 4.69823,10.50916 10.50924,10.50916 5.81092,0 10.55043,-4.69824 10.55043,-10.50916 0,-5.81101 -4.73951,-10.50924 -10.55043,-10.50924 -5.81101,0 -10.50924,4.69823 -10.50924,10.50924"
         style="fill:#ffffff;fill-opacity:1;fill-rule:nonzero;stroke:none"
         inkscape:connector-curvature="0" />
      <path
         id="path24658"
         d="m 527.83337,134.30444 c 5.81101,0 10.50925,-4.69823 10.50925,-10.50916 0,-5.811 -4.69824,-10.50924 -10.50925,-10.50924 -5.811,0 -10.55043,4.69824 -10.55043,10.50924 0,5.81093 4.73943,10.50916 10.55043,10.50916"
         style="fill:#ffffff;fill-opacity:1;fill-rule:nonzero;stroke:none"
         inkscape:connector-curvature="0" />
      <path
         id="path24660"
         d="m 493.04995,148.15192 c 0,5.81101 4.73943,10.50925 10.50916,10.50925 5.81101,0 10.55043,-4.69824 10.55043,-10.50925 0,-5.811 -4.73942,-10.50924 -10.55043,-10.50924 -5.76973,0 -10.50916,4.69824 -10.50916,10.50924"
         style="fill:#ffffff;fill-opacity:1;fill-rule:nonzero;stroke:none"
         inkscape:connector-curvature="0" />
      <path
         id="path24662"
         d="m 481.13945,159.32053 c -5.76974,0 -10.50916,4.73942 -10.50916,10.55043 0,5.76982 4.73942,10.50924 10.50916,10.50924 5.85219,0 10.55043,-4.73942 10.55043,-10.50924 0,-5.81101 -4.69824,-10.55043 -10.55043,-10.55043"
         style="fill:#ffffff;fill-opacity:1;fill-rule:nonzero;stroke:none"
         inkscape:connector-curvature="0" />
      <path
         id="path24664"
         d="m 449.73546,191.3015 c 0,5.81101 4.73942,10.50924 10.55043,10.50924 5.81101,0 10.50924,-4.69823 10.50924,-10.50924 0,-5.81093 -4.69823,-10.55043 -10.50924,-10.55043 -5.81101,0 -10.55043,4.7395 -10.55043,10.55043"
         style="fill:#ffffff;fill-opacity:1;fill-rule:nonzero;stroke:none"
         inkscape:connector-curvature="0" />
      <path
         id="path24666"
         d="m 444.08937,154.70475 c -5.81101,0 -10.50924,4.69824 -10.50924,10.50916 0,5.81101 4.69823,10.50924 10.50924,10.50924 5.81093,0 10.55043,-4.69823 10.55043,-10.50924 0,-5.81092 -4.7395,-10.50916 -10.55043,-10.50916"
         style="fill:#ffffff;fill-opacity:1;fill-rule:nonzero;stroke:none"
         inkscape:connector-curvature="0" />
      <path
         id="path24668"
         d="m 427.35698,127.4632 c -5.76973,0 -10.50916,4.73943 -10.50916,10.55044 0,5.81092 4.73943,10.50915 10.50916,10.50915 5.81101,0 10.55043,-4.69823 10.55043,-10.50915 0,-5.81101 -4.73942,-10.55044 -10.55043,-10.55044"
         style="fill:#ffffff;fill-opacity:1;fill-rule:nonzero;stroke:none"
         inkscape:connector-curvature="0" />
      <path
         id="path24670"
         d="m 407.73976,151.81984 c -5.81092,0 -10.55043,4.73943 -10.55043,10.55044 0,5.811 4.73951,10.50924 10.55043,10.50924 5.76982,0 10.50925,-4.69824 10.50925,-10.50924 0,-5.81101 -4.73943,-10.55044 -10.50925,-10.55044"
         style="fill:#ffffff;fill-opacity:1;fill-rule:nonzero;stroke:none"
         inkscape:connector-curvature="0" />
      <path
         id="path24672"
         d="m 370.27755,152.06715 c -5.81101,0 -10.50924,4.69823 -10.50924,10.55043 0,5.76973 4.69823,10.50915 10.50924,10.50915 5.81092,0 10.50924,-4.73942 10.50924,-10.50915 0,-5.8522 -4.69832,-10.55043 -10.50924,-10.55043"
         style="fill:#ffffff;fill-opacity:1;fill-rule:nonzero;stroke:none"
         inkscape:connector-curvature="0" />
      <path
         id="path24674"
         d="m 354.41071,176.75347 c -5.76982,0 -10.50924,4.73942 -10.50924,10.55043 0,5.81101 4.73942,10.50924 10.50924,10.50924 5.85212,0 10.55043,-4.69823 10.55043,-10.50924 0,-5.81101 -4.69831,-10.55043 -10.55043,-10.55043"
         style="fill:#ffffff;fill-opacity:1;fill-rule:nonzero;stroke:none"
         inkscape:connector-curvature="0" />
      <path
         id="path24676"
         d="m 361.58163,208.44595 c 0,5.81101 4.69832,10.50924 10.50924,10.50924 5.81101,0 10.55043,-4.69823 10.55043,-10.50924 0,-5.81093 -4.73942,-10.50916 -10.55043,-10.50916 -5.81092,0 -10.50924,4.69823 -10.50924,10.50916"
         style="fill:#ffffff;fill-opacity:1;fill-rule:nonzero;stroke:none"
         inkscape:connector-curvature="0" />
      <path
         id="path24678"
         d="m 327.41638,210.54785 c 0,5.81092 4.73951,10.50915 10.55043,10.50915 5.76982,0 10.50924,-4.69823 10.50924,-10.50915 0,-5.81101 -4.73942,-10.55043 -10.50924,-10.55043 -5.81092,0 -10.55043,4.73942 -10.55043,10.55043"
         style="fill:#ffffff;fill-opacity:1;fill-rule:nonzero;stroke:none"
         inkscape:connector-curvature="0" />
      <path
         id="path24680"
         d="m 314.51683,216.52369 c -5.81092,0 -10.55043,4.73943 -10.55043,10.55043 0,5.76974 4.73951,10.50916 10.55043,10.50916 5.81101,0 10.50925,-4.73942 10.50925,-10.50916 0,-5.811 -4.69824,-10.55043 -10.50925,-10.55043"
         style="fill:#ffffff;fill-opacity:1;fill-rule:nonzero;stroke:none"
         inkscape:connector-curvature="0" />
      <path
         id="path24682"
         d="m 289.83051,253.90353 c 5.81093,0 10.55044,-4.7395 10.55044,-10.50924 0,-5.81101 -4.73951,-10.55043 -10.55044,-10.55043 -5.811,0 -10.50924,4.73942 -10.50924,10.55043 0,5.76974 4.69824,10.50924 10.50924,10.50924"
         style="fill:#ffffff;fill-opacity:1;fill-rule:nonzero;stroke:none"
         inkscape:connector-curvature="0" />
      <path
         id="path24684"
         d="m 281.95888,207.12714 c 0,5.76982 4.73942,10.50924 10.55043,10.50924 5.81101,0 10.50924,-4.73942 10.50924,-10.50924 0,-5.81092 -4.69823,-10.55043 -10.50924,-10.55043 -5.81101,0 -10.55043,4.73951 -10.55043,10.55043"
         style="fill:#ffffff;fill-opacity:1;fill-rule:nonzero;stroke:none"
         inkscape:connector-curvature="0" />
      <path
         id="path24686"
         d="m 254.55249,223.48858 c 0,5.81101 4.73942,10.50924 10.50924,10.50924 5.81093,0 10.55043,-4.69823 10.55043,-10.50924 0,-5.81101 -4.7395,-10.55043 -10.55043,-10.55043 -5.76982,0 -10.50924,4.73942 -10.50924,10.55043"
         style="fill:#ffffff;fill-opacity:1;fill-rule:nonzero;stroke:none"
         inkscape:connector-curvature="0" />
      <path
         id="path24688"
         d="m 236.25408,252.83195 c 5.76982,0 10.50924,-4.69824 10.50924,-10.46797 0,-5.8522 -4.73942,-10.55043 -10.50924,-10.55043 -5.81093,0 -10.55043,4.69823 -10.55043,10.55043 0,5.76973 4.7395,10.46797 10.55043,10.46797"
         style="fill:#ffffff;fill-opacity:1;fill-rule:nonzero;stroke:none"
         inkscape:connector-curvature="0" />
      <path
         id="path24690"
         d="m 207.11674,231.36022 c 5.81101,0 10.55043,-4.73951 10.55043,-10.55043 0,-5.81101 -4.73942,-10.50925 -10.55043,-10.50925 -5.81092,0 -10.50916,4.69824 -10.50916,10.50925 0,5.81092 4.69824,10.55043 10.50916,10.55043"
         style="fill:#ffffff;fill-opacity:1;fill-rule:nonzero;stroke:none"
         inkscape:connector-curvature="0" />
      <path
         id="path24692"
         d="m 238.97415,213.35029 c 5.81092,0 10.50915,-4.73942 10.50915,-10.50924 0,-5.81101 -4.69823,-10.55043 -10.50915,-10.55043 -5.81101,0 -10.50924,4.73942 -10.50924,10.55043 0,5.76982 4.69823,10.50924 10.50924,10.50924"
         style="fill:#ffffff;fill-opacity:1;fill-rule:nonzero;stroke:none"
         inkscape:connector-curvature="0" />
      <path
         id="path24694"
         d="m 212.59807,169.70612 c -5.81101,0 -10.50924,4.73942 -10.50924,10.55043 0,5.81101 4.69823,10.50924 10.50924,10.50924 5.76974,0 10.50916,-4.69823 10.50916,-10.50924 0,-5.81101 -4.73942,-10.55043 -10.50916,-10.55043"
         style="fill:#ffffff;fill-opacity:1;fill-rule:nonzero;stroke:none"
         inkscape:connector-curvature="0" />
      <path
         id="path24696"
         d="m 243.54873,173.74499 c 5.81101,0 10.55043,-4.69823 10.55043,-10.50924 0,-5.81101 -4.73942,-10.55043 -10.55043,-10.55043 -5.81101,0 -10.50924,4.73942 -10.50924,10.55043 0,5.81101 4.69823,10.50924 10.50924,10.50924"
         style="fill:#ffffff;fill-opacity:1;fill-rule:nonzero;stroke:none"
         inkscape:connector-curvature="0" />
      <path
         id="path24698"
         d="m 269.05933,174.81649 c -5.81101,0 -10.50924,4.73942 -10.50924,10.55043 0,5.81101 4.69823,10.50924 10.50924,10.50924 5.81101,0 10.55043,-4.69823 10.55043,-10.50924 0,-5.81101 -4.73942,-10.55043 -10.55043,-10.55043"
         style="fill:#ffffff;fill-opacity:1;fill-rule:nonzero;stroke:none"
         inkscape:connector-curvature="0" />
      <path
         id="path24700"
         d="m 286.98679,169.7473 c 0,5.81101 4.69824,10.55044 10.50925,10.55044 5.811,0 10.55043,-4.73943 10.55043,-10.55044 0,-5.76973 -4.73943,-10.50915 -10.55043,-10.50915 -5.81101,0 -10.50925,4.73942 -10.50925,10.50915"
         style="fill:#ffffff;fill-opacity:1;fill-rule:nonzero;stroke:none"
         inkscape:connector-curvature="0" />
      <path
         id="path24702"
         d="m 307.55195,191.34277 c 0,5.76974 4.73942,10.50916 10.50915,10.50916 5.81101,0 10.55043,-4.73942 10.55043,-10.50916 0,-5.81101 -4.73942,-10.55043 -10.55043,-10.55043 -5.76973,0 -10.50915,4.73942 -10.50915,10.55043"
         style="fill:#ffffff;fill-opacity:1;fill-rule:nonzero;stroke:none"
         inkscape:connector-curvature="0" />
      <path
         id="path24704"
         d="m 263.74293,271.91345 c 5.81092,0 10.55043,-4.7395 10.55043,-10.50924 0,-5.81101 -4.73951,-10.50924 -10.55043,-10.50924 -5.76982,0 -10.50924,4.69823 -10.50924,10.50924 0,5.76974 4.73942,10.50924 10.50924,10.50924"
         style="fill:#ffffff;fill-opacity:1;fill-rule:nonzero;stroke:none"
         inkscape:connector-curvature="0" />
      <path
         id="path24706"
         d="m 389.68865,175.51712 c -5.81092,0 -10.55043,4.73943 -10.55043,10.55044 0,5.81092 4.73951,10.50915 10.55043,10.50915 5.76982,0 10.55043,-4.69823 10.55043,-10.50915 0,-5.81101 -4.78061,-10.55044 -10.55043,-10.55044"
         style="fill:#ffffff;fill-opacity:1;fill-rule:nonzero;stroke:none"
         inkscape:connector-curvature="0" />
      <path
         id="path24708"
         d="m 465.64357,131.00747 c -5.81101,0 -10.55044,4.73943 -10.55044,10.55043 0,5.81101 4.73943,10.50925 10.55044,10.50925 5.81092,0 10.50915,-4.69824 10.50915,-10.50925 0,-5.811 -4.69823,-10.55043 -10.50915,-10.55043"
         style="fill:#ffffff;fill-opacity:1;fill-rule:nonzero;stroke:none"
         inkscape:connector-curvature="0" />
      <path
         id="path24710"
         d="m 477.43034,115.63516 c 0,5.81101 4.73942,10.55043 10.55043,10.55043 5.76973,0 10.50924,-4.73942 10.50924,-10.55043 0,-5.81101 -4.73951,-10.55043 -10.50924,-10.55043 -5.81101,0 -10.55043,4.73942 -10.55043,10.55043"
         style="fill:#ffffff;fill-opacity:1;fill-rule:nonzero;stroke:none"
         inkscape:connector-curvature="0" />
      <path
         id="path24712"
         d="m 448.33419,122.02315 c 5.81101,0 10.50924,-4.69823 10.50924,-10.50924 0,-5.81101 -4.69823,-10.55043 -10.50924,-10.55043 -5.81092,0 -10.55043,4.73942 -10.55043,10.55043 0,5.81101 4.73951,10.50924 10.55043,10.50924"
         style="fill:#ffffff;fill-opacity:1;fill-rule:nonzero;stroke:none"
         inkscape:connector-curvature="0" />
      <path
         id="path24714"
         d="m 470.75386,95.64707 c 5.811,0 10.55043,-4.69823 10.55043,-10.46805 0,-5.8522 -4.73943,-10.59162 -10.55043,-10.59162 -5.76974,0 -10.50916,4.73942 -10.50916,10.59162 0,5.76982 4.73942,10.46805 10.50916,10.46805"
         style="fill:#ffffff;fill-opacity:1;fill-rule:nonzero;stroke:none"
         inkscape:connector-curvature="0" />
      <path
         id="path24716"
         d="m 430.03586,90.5367 c 5.81093,0 10.50916,-4.73951 10.50916,-10.55043 0,-5.81101 -4.69823,-10.509245 -10.50916,-10.509245 -5.81101,0 -10.50924,4.698235 -10.50924,10.509245 0,5.81092 4.69823,10.55043 10.50924,10.55043"
         style="fill:#ffffff;fill-opacity:1;fill-rule:nonzero;stroke:none"
         inkscape:connector-curvature="0" />
      <path
         id="path24718"
         d="m 389.52381,88.39361 c 5.81101,0 10.50924,-4.69823 10.50924,-10.50924 0,-5.81093 -4.69823,-10.550433 -10.50924,-10.550433 -5.76973,0 -10.50924,4.739503 -10.50924,10.550433 0,5.81101 4.73951,10.50924 10.50924,10.50924"
         style="fill:#ffffff;fill-opacity:1;fill-rule:nonzero;stroke:none"
         inkscape:connector-curvature="0" />
      <path
         id="path24720"
         d="m 348.22875,90.41305 c 5.81101,0 10.55043,-4.73943 10.55043,-10.50925 0,-5.85219 -4.73942,-10.550426 -10.55043,-10.550426 -5.81092,0 -10.50916,4.698236 -10.50916,10.550426 0,5.76982 4.69824,10.50925 10.50916,10.50925"
         style="fill:#ffffff;fill-opacity:1;fill-rule:nonzero;stroke:none"
         inkscape:connector-curvature="0" />
      <path
         id="path24722"
         d="m 308.62345,95.77064 c 5.81101,0 10.50924,-4.69823 10.50924,-10.50916 0,-5.81101 -4.69823,-10.55043 -10.50924,-10.55043 -5.81101,0 -10.55043,4.73942 -10.55043,10.55043 0,5.81093 4.73942,10.50916 10.55043,10.50916"
         style="fill:#ffffff;fill-opacity:1;fill-rule:nonzero;stroke:none"
         inkscape:connector-curvature="0" />
      <path
         id="path24724"
         d="m 369.16477,119.55038 c 5.81101,0 10.50924,-4.7395 10.50924,-10.50924 0,-5.81101 -4.69823,-10.55043 -10.50924,-10.55043 -5.81092,0 -10.50924,4.73942 -10.50924,10.55043 0,5.76974 4.69832,10.50924 10.50924,10.50924"
         style="fill:#ffffff;fill-opacity:1;fill-rule:nonzero;stroke:none"
         inkscape:connector-curvature="0" />
      <path
         id="path24726"
         d="m 330.13645,122.14672 c 5.81101,0 10.55043,-4.73943 10.55043,-10.55043 0,-5.76974 -4.73942,-10.50916 -10.55043,-10.50916 -5.81101,0 -10.50924,4.73942 -10.50924,10.50916 0,5.811 4.69823,10.55043 10.50924,10.55043"
         style="fill:#ffffff;fill-opacity:1;fill-rule:nonzero;stroke:none"
         inkscape:connector-curvature="0" />
      <path
         id="path24728"
         d="m 312.86835,131.17231 c -5.76973,0 -10.50924,4.69824 -10.50924,10.50925 0,5.81092 4.73951,10.55043 10.50924,10.55043 5.81101,0 10.55043,-4.73951 10.55043,-10.55043 0,-5.81101 -4.73942,-10.50925 -10.55043,-10.50925"
         style="fill:#ffffff;fill-opacity:1;fill-rule:nonzero;stroke:none"
         inkscape:connector-curvature="0" />
      <path
         id="path24730"
         d="m 274.82907,158.74354 c 5.81101,0 10.55043,-4.69823 10.55043,-10.50924 0,-5.76973 -4.73942,-10.55043 -10.55043,-10.55043 -5.81093,0 -10.50916,4.7807 -10.50916,10.55043 0,5.81101 4.69823,10.50924 10.50916,10.50924"
         style="fill:#ffffff;fill-opacity:1;fill-rule:nonzero;stroke:none"
         inkscape:connector-curvature="0" />
      <path
         id="path24732"
         d="m 252.57433,134.1396 c 5.81092,0 10.55043,-4.69823 10.55043,-10.50916 0,-5.811 -4.73951,-10.55043 -10.55043,-10.55043 -5.81101,0 -10.50924,4.73943 -10.50924,10.55043 0,5.81093 4.69823,10.50916 10.50924,10.50916"
         style="fill:#ffffff;fill-opacity:1;fill-rule:nonzero;stroke:none"
         inkscape:connector-curvature="0" />
      <path
         id="path24734"
         d="m 290.73718,126.30924 c 5.811,0 10.50924,-4.69823 10.50924,-10.50924 0,-5.81101 -4.69824,-10.50924 -10.50924,-10.50924 -5.81101,0 -10.55043,4.69823 -10.55043,10.50924 0,5.81101 4.73942,10.50924 10.55043,10.50924"
         style="fill:#ffffff;fill-opacity:1;fill-rule:nonzero;stroke:none"
         inkscape:connector-curvature="0" />
      <path
         id="path24736"
         d="m 323.95457,165.09034 c 0,5.81093 4.73943,10.50916 10.50916,10.50916 5.81101,0 10.55043,-4.69823 10.55043,-10.50916 0,-5.811 -4.73942,-10.55043 -10.55043,-10.55043 -5.76973,0 -10.50916,4.73943 -10.50916,10.55043"
         style="fill:#ffffff;fill-opacity:1;fill-rule:nonzero;stroke:none"
         inkscape:connector-curvature="0" />
      <path
         id="path24738"
         d="m 350.78398,127.33955 c -5.81101,0 -10.50924,4.73943 -10.50924,10.55043 0,5.76974 4.69823,10.50925 10.50924,10.50925 5.76974,0 10.55043,-4.73951 10.55043,-10.50925 0,-5.811 -4.78069,-10.55043 -10.55043,-10.55043"
         style="fill:#ffffff;fill-opacity:1;fill-rule:nonzero;stroke:none"
         inkscape:connector-curvature="0" />
      <path
         id="path24740"
         d="m 408.48167,119.50911 c 5.81092,0 10.50916,-4.69823 10.50916,-10.46797 0,-5.8522 -4.69824,-10.59162 -10.50916,-10.59162 -5.81101,0 -10.50924,4.73942 -10.50924,10.59162 0,5.76974 4.69823,10.46797 10.50924,10.46797"
         style="fill:#ffffff;fill-opacity:1;fill-rule:nonzero;stroke:none"
         inkscape:connector-curvature="0" />
      <path
         id="path24742"
         d="m 389.565,125.73226 c -5.76973,0 -10.50916,4.73942 -10.50916,10.50924 0,5.81092 4.73943,10.55043 10.50916,10.55043 5.81101,0 10.55043,-4.73951 10.55043,-10.55043 0,-5.76982 -4.73942,-10.50924 -10.55043,-10.50924"
         style="fill:#ffffff;fill-opacity:1;fill-rule:nonzero;stroke:none"
         inkscape:connector-curvature="0" />
      <path
         id="path24744"
         d="m 450.76577,210.42419 c 0,-5.811 -4.69823,-10.55043 -10.50924,-10.55043 -5.81093,0 -10.50916,4.73943 -10.50916,10.55043 0,5.81101 4.69823,10.50925 10.50916,10.50925 5.81101,0 10.50924,-4.69824 10.50924,-10.50925"
         style="fill:#ffffff;fill-opacity:1;fill-rule:nonzero;stroke:none"
         inkscape:connector-curvature="0" />
      <path
         id="path24746"
         d="m 422.61756,218.04853 c -5.76974,0 -10.46797,4.69823 -10.46797,10.50924 0,5.81092 4.69823,10.50916 10.46797,10.50916 5.81101,0 10.55043,-4.69824 10.55043,-10.50916 0,-5.81101 -4.73942,-10.50924 -10.55043,-10.50924"
         style="fill:#ffffff;fill-opacity:1;fill-rule:nonzero;stroke:none"
         inkscape:connector-curvature="0" />
      <path
         id="path24748"
         d="m 395.62331,207.99262 c 0,5.811 4.73942,10.50924 10.50916,10.50924 5.81101,0 10.55043,-4.69824 10.55043,-10.50924 0,-5.81093 -4.73942,-10.50916 -10.55043,-10.50916 -5.76974,0 -10.50916,4.69823 -10.50916,10.50916"
         style="fill:#ffffff;fill-opacity:1;fill-rule:nonzero;stroke:none"
         inkscape:connector-curvature="0" />
      <path
         id="path24750"
         d="m 389.48262,217.34789 c -5.76982,0 -10.46805,4.69824 -10.46805,10.50925 0,5.811 4.69823,10.55043 10.46805,10.55043 5.81101,0 10.55043,-4.73943 10.55043,-10.55043 0,-5.81101 -4.73942,-10.50925 -10.55043,-10.50925"
         style="fill:#ffffff;fill-opacity:1;fill-rule:nonzero;stroke:none"
         inkscape:connector-curvature="0" />
      <path
         id="path24752"
         d="m 362.4471,245.57857 c 0,5.76973 4.69824,10.50924 10.50924,10.50924 5.81101,0 10.55044,-4.73951 10.55044,-10.50924 0,-5.81101 -4.73943,-10.55043 -10.55044,-10.55043 -5.811,0 -10.50924,4.73942 -10.50924,10.55043"
         style="fill:#ffffff;fill-opacity:1;fill-rule:nonzero;stroke:none"
         inkscape:connector-curvature="0" />
      <path
         id="path24754"
         d="m 356.14157,218.21337 c -5.81092,0 -10.50915,4.73942 -10.50915,10.55043 0,5.81101 4.69823,10.50924 10.50915,10.50924 5.81101,0 10.55044,-4.69823 10.55044,-10.50924 0,-5.81101 -4.73943,-10.55043 -10.55044,-10.55043"
         style="fill:#ffffff;fill-opacity:1;fill-rule:nonzero;stroke:none"
         inkscape:connector-curvature="0" />
      <path
         id="path24756"
         d="m 355.15253,272.16067 c 5.81093,0 10.55044,-4.73942 10.55044,-10.55043 0,-5.81092 -4.73951,-10.55043 -10.55044,-10.55043 -5.811,0 -10.50924,4.73951 -10.50924,10.55043 0,5.81101 4.69824,10.55043 10.50924,10.55043"
         style="fill:#ffffff;fill-opacity:1;fill-rule:nonzero;stroke:none"
         inkscape:connector-curvature="0" />
      <path
         id="path24758"
         d="m 335.49404,255.71686 c 5.81101,0 10.50925,-4.69824 10.50925,-10.50925 0,-5.81092 -4.69824,-10.55043 -10.50925,-10.55043 -5.81092,0 -10.50915,4.73951 -10.50915,10.55043 0,5.81101 4.69823,10.50925 10.50915,10.50925"
         style="fill:#ffffff;fill-opacity:1;fill-rule:nonzero;stroke:none"
         inkscape:connector-curvature="0" />
      <path
         id="path24760"
         d="m 335.57651,289.46996 c 5.811,0 10.55043,-4.69823 10.55043,-10.50916 0,-5.811 -4.73943,-10.50924 -10.55043,-10.50924 -5.76974,0 -10.50925,4.69824 -10.50925,10.50924 0,5.81093 4.73951,10.50916 10.50925,10.50916"
         style="fill:#ffffff;fill-opacity:1;fill-rule:nonzero;stroke:none"
         inkscape:connector-curvature="0" />
      <path
         id="path24762"
         d="m 313.36287,271.91345 c 5.76982,0 10.50924,-4.7395 10.50924,-10.55043 0,-5.811 -4.73942,-10.50924 -10.50924,-10.50924 -5.81092,0 -10.55043,4.69824 -10.55043,10.50924 0,5.81093 4.73951,10.55043 10.55043,10.55043"
         style="fill:#ffffff;fill-opacity:1;fill-rule:nonzero;stroke:none"
         inkscape:connector-curvature="0" />
      <path
         id="path24764"
         d="m 315.01144,307.35623 c 5.81092,0 10.55043,-4.69823 10.55043,-10.50915 0,-5.8522 -4.73951,-10.55043 -10.55043,-10.55043 -5.81101,0 -10.50924,4.69823 -10.50924,10.55043 0,5.81092 4.69823,10.50915 10.50924,10.50915"
         style="fill:#ffffff;fill-opacity:1;fill-rule:nonzero;stroke:none"
         inkscape:connector-curvature="0" />
      <path
         id="path24766"
         d="m 289.83051,291.20091 c 5.8522,0 10.55044,-4.69824 10.55044,-10.50924 0,-5.81093 -4.69824,-10.50916 -10.55044,-10.50916 -5.76982,0 -10.50924,4.69823 -10.50924,10.50916 0,5.811 4.73942,10.50924 10.50924,10.50924"
         style="fill:#ffffff;fill-opacity:1;fill-rule:nonzero;stroke:none"
         inkscape:connector-curvature="0" />
      <path
         id="path24768"
         d="m 292.75661,327.30322 c 5.81093,0 10.55043,-4.69832 10.55043,-10.46806 0,-5.85219 -4.7395,-10.55043 -10.55043,-10.55043 -5.76982,0 -10.50924,4.69824 -10.50924,10.55043 0,5.76974 4.73942,10.46806 10.50924,10.46806"
         style="fill:#ffffff;fill-opacity:1;fill-rule:nonzero;stroke:none"
         inkscape:connector-curvature="0" />
      <path
         id="path24770"
         d="m 269.10052,348.81613 c 5.76982,0 10.50924,-4.73942 10.50924,-10.50915 0,-5.8522 -4.73942,-10.55043 -10.50924,-10.55043 -5.81092,0 -10.55043,4.69823 -10.55043,10.55043 0,5.76973 4.73951,10.50915 10.55043,10.50915"
         style="fill:#ffffff;fill-opacity:1;fill-rule:nonzero;stroke:none"
         inkscape:connector-curvature="0" />
      <path
         id="path24772"
         d="m 249.31846,320.87404 c 0,-5.81101 -4.69823,-10.55043 -10.50915,-10.55043 -5.81101,0 -10.55043,4.73942 -10.55043,10.55043 0,5.81092 4.73942,10.50915 10.55043,10.50915 5.81092,0 10.50915,-4.69823 10.50915,-10.50915"
         style="fill:#ffffff;fill-opacity:1;fill-rule:nonzero;stroke:none"
         inkscape:connector-curvature="0" />
      <path
         id="path24774"
         d="m 217.74963,302.61681 c 0,-5.8522 -4.73942,-10.55043 -10.55043,-10.55043 -5.811,0 -10.50924,4.69823 -10.50924,10.55043 0,5.76974 4.69824,10.46797 10.50924,10.46797 5.81101,0 10.55043,-4.69823 10.55043,-10.46797"
         style="fill:#ffffff;fill-opacity:1;fill-rule:nonzero;stroke:none"
         inkscape:connector-curvature="0" />
      <path
         id="path24776"
         d="m 236.25408,292.14884 c 5.76982,0 10.50924,-4.69823 10.50924,-10.50924 0,-5.81101 -4.73942,-10.55043 -10.50924,-10.55043 -5.81093,0 -10.55043,4.73942 -10.55043,10.55043 0,5.81101 4.7395,10.50924 10.55043,10.50924"
         style="fill:#ffffff;fill-opacity:1;fill-rule:nonzero;stroke:none"
         inkscape:connector-curvature="0" />
      <path
         id="path24778"
         d="m 205.34461,271.95464 c 5.81101,0 10.55043,-4.7395 10.55043,-10.50924 0,-5.81101 -4.73942,-10.55043 -10.55043,-10.55043 -5.76974,0 -10.50916,4.73942 -10.50916,10.55043 0,5.76974 4.73942,10.50924 10.50916,10.50924"
         style="fill:#ffffff;fill-opacity:1;fill-rule:nonzero;stroke:none"
         inkscape:connector-curvature="0" />
      <path
         id="path24780"
         d="m 265.14411,310.44717 c 5.76982,0 10.50924,-4.69823 10.50924,-10.50915 0,-5.8522 -4.73942,-10.55044 -10.50924,-10.55044 -5.81092,0 -10.55043,4.69824 -10.55043,10.55044 0,5.81092 4.73951,10.50915 10.55043,10.50915"
         style="fill:#ffffff;fill-opacity:1;fill-rule:nonzero;stroke:none"
         inkscape:connector-curvature="0" />
      <path
         id="path24782"
         d="m 212.47442,331.79534 c -5.81101,0 -10.50924,4.69823 -10.50924,10.50924 0,5.81101 4.69823,10.50924 10.50924,10.50924 5.81101,0 10.50924,-4.69823 10.50924,-10.50924 0,-5.81101 -4.69823,-10.50924 -10.50924,-10.50924"
         style="fill:#ffffff;fill-opacity:1;fill-rule:nonzero;stroke:none"
         inkscape:connector-curvature="0" />
      <path
         id="path24784"
         d="m 253.72821,360.68537 c 0,-5.8522 -4.69824,-10.55043 -10.50916,-10.55043 -5.81101,0 -10.55043,4.69823 -10.55043,10.55043 0,5.76982 4.73942,10.46805 10.55043,10.46805 5.81092,0 10.50916,-4.69823 10.50916,-10.46805"
         style="fill:#ffffff;fill-opacity:1;fill-rule:nonzero;stroke:none"
         inkscape:connector-curvature="0" />
      <path
         id="path24786"
         d="m 383.50678,278.34255 c 0,-5.81092 -4.73943,-10.55043 -10.55044,-10.55043 -5.811,0 -10.50924,4.73951 -10.50924,10.55043 0,5.81101 4.69824,10.50924 10.50924,10.50924 5.81101,0 10.55044,-4.69823 10.55044,-10.50924"
         style="fill:#ffffff;fill-opacity:1;fill-rule:nonzero;stroke:none"
         inkscape:connector-curvature="0" />
      <path
         id="path24788"
         d="m 389.48262,306.0787 c 5.76974,0 10.55043,-4.7395 10.55043,-10.55043 0,-5.81101 -4.78069,-10.50924 -10.55043,-10.50924 -5.81101,0 -10.55043,4.69823 -10.55043,10.50924 0,5.81093 4.73942,10.55043 10.55043,10.55043"
         style="fill:#ffffff;fill-opacity:1;fill-rule:nonzero;stroke:none"
         inkscape:connector-curvature="0" />
      <path
         id="path24790"
         d="m 382.55892,315.43398 c 0,-5.81101 -4.7395,-10.50924 -10.55043,-10.50924 -5.811,0 -10.55043,4.69823 -10.55043,10.50924 0,5.81093 4.73943,10.50916 10.55043,10.50916 5.81093,0 10.55043,-4.69823 10.55043,-10.50916"
         style="fill:#ffffff;fill-opacity:1;fill-rule:nonzero;stroke:none"
         inkscape:connector-curvature="0" />
      <path
         id="path24792"
         d="m 354.53428,346.96162 c 5.81101,0 10.55043,-4.7395 10.55043,-10.55043 0,-5.81101 -4.73942,-10.50924 -10.55043,-10.50924 -5.81092,0 -10.50916,4.69823 -10.50916,10.50924 0,5.81093 4.69824,10.55043 10.50916,10.55043"
         style="fill:#ffffff;fill-opacity:1;fill-rule:nonzero;stroke:none"
         inkscape:connector-curvature="0" />
      <path
         id="path24794"
         d="m 370.44239,371.68913 c 5.81101,0 10.50924,-4.73942 10.50924,-10.50916 0,-5.85219 -4.69823,-10.55043 -10.50924,-10.55043 -5.76974,0 -10.50924,4.69824 -10.50924,10.55043 0,5.76974 4.7395,10.50916 10.50924,10.50916"
         style="fill:#ffffff;fill-opacity:1;fill-rule:nonzero;stroke:none"
         inkscape:connector-curvature="0" />
      <path
         id="path24796"
         d="m 350.94882,396.21069 c 5.76974,0 10.50924,-4.7395 10.50924,-10.50924 0,-5.85219 -4.7395,-10.55043 -10.50924,-10.55043 -5.81101,0 -10.55043,4.69824 -10.55043,10.55043 0,5.76974 4.73942,10.50924 10.55043,10.50924"
         style="fill:#ffffff;fill-opacity:1;fill-rule:nonzero;stroke:none"
         inkscape:connector-curvature="0" />
      <path
         id="path24798"
         d="m 312.62105,392.21301 c 5.81101,0 10.50924,-4.69823 10.50924,-10.50916 0,-5.85219 -4.69823,-10.55043 -10.50924,-10.55043 -5.81093,0 -10.50916,4.69824 -10.50916,10.55043 0,5.81093 4.69823,10.50916 10.50916,10.50916"
         style="fill:#ffffff;fill-opacity:1;fill-rule:nonzero;stroke:none"
         inkscape:connector-curvature="0" />
      <path
         id="path24800"
         d="m 297.66088,364.22972 c 5.76981,0 10.50924,-4.69832 10.50924,-10.50924 0,-5.81101 -4.73943,-10.55043 -10.50924,-10.55043 -5.81093,0 -10.55044,4.73942 -10.55044,10.55043 0,5.81092 4.73951,10.50924 10.55044,10.50924"
         style="fill:#ffffff;fill-opacity:1;fill-rule:nonzero;stroke:none"
         inkscape:connector-curvature="0" />
      <path
         id="path24802"
         d="m 334.46373,368.80431 c 5.76982,0 10.50924,-4.69824 10.50924,-10.50925 0,-5.81101 -4.73942,-10.50924 -10.50924,-10.50924 -5.81092,0 -10.50916,4.69823 -10.50916,10.50924 0,5.81101 4.69824,10.50925 10.50916,10.50925"
         style="fill:#ffffff;fill-opacity:1;fill-rule:nonzero;stroke:none"
         inkscape:connector-curvature="0" />
      <path
         id="path24804"
         d="m 328.694,332.08383 c 0,-5.81101 -4.73943,-10.55043 -10.50925,-10.55043 -5.81092,0 -10.55043,4.73942 -10.55043,10.55043 0,5.81101 4.73951,10.50924 10.55043,10.50924 5.76982,0 10.50925,-4.69823 10.50925,-10.50924"
         style="fill:#ffffff;fill-opacity:1;fill-rule:nonzero;stroke:none"
         inkscape:connector-curvature="0" />
      <path
         id="path24806"
         d="m 337.71959,323.51164 c 5.8522,0 10.55043,-4.69823 10.55043,-10.50924 0,-5.81101 -4.69823,-10.55043 -10.55043,-10.55043 -5.76982,0 -10.50924,4.73942 -10.50924,10.55043 0,5.81101 4.73942,10.50924 10.50924,10.50924"
         style="fill:#ffffff;fill-opacity:1;fill-rule:nonzero;stroke:none"
         inkscape:connector-curvature="0" />
      <path
         id="path24808"
         d="m 356.10039,305.41926 c 5.811,0 10.55043,-4.73942 10.55043,-10.50924 0,-5.85212 -4.73943,-10.55043 -10.55043,-10.55043 -5.76974,0 -10.50925,4.69831 -10.50925,10.55043 0,5.76982 4.73951,10.50924 10.50925,10.50924"
         style="fill:#ffffff;fill-opacity:1;fill-rule:nonzero;stroke:none"
         inkscape:connector-curvature="0" />
      <path
         id="path24810"
         d="m 285.29712,375.39832 c 0,-5.76982 -4.73942,-10.50924 -10.55043,-10.50924 -5.81101,0 -10.50924,4.73942 -10.50924,10.50924 0,5.81093 4.69823,10.55043 10.50924,10.55043 5.81101,0 10.55043,-4.7395 10.55043,-10.55043"
         style="fill:#ffffff;fill-opacity:1;fill-rule:nonzero;stroke:none"
         inkscape:connector-curvature="0" />
      <path
         id="path24812"
         d="m 290.4075,397.07617 c -5.81101,0 -10.50925,4.73942 -10.50925,10.55043 0,5.81092 4.69824,10.55043 10.50925,10.55043 5.81092,0 10.55043,-4.73951 10.55043,-10.55043 0,-5.81101 -4.73951,-10.55043 -10.55043,-10.55043"
         style="fill:#ffffff;fill-opacity:1;fill-rule:nonzero;stroke:none"
         inkscape:connector-curvature="0" />
      <path
         id="path24814"
         d="m 252.32703,389.45184 c -5.81101,0 -10.55044,4.69823 -10.55044,10.50915 0,5.8522 4.73943,10.55043 10.55044,10.55043 5.76973,0 10.50924,-4.69823 10.50924,-10.55043 0,-5.81092 -4.73951,-10.50915 -10.50924,-10.50915"
         style="fill:#ffffff;fill-opacity:1;fill-rule:nonzero;stroke:none"
         inkscape:connector-curvature="0" />
      <path
         id="path24816"
         d="m 330.0128,401.44464 c -5.81101,0 -10.50924,4.69831 -10.50924,10.50924 0,5.81101 4.69823,10.50924 10.50924,10.50924 5.81101,0 10.55043,-4.69823 10.55043,-10.50924 0,-5.81093 -4.73942,-10.50924 -10.55043,-10.50924"
         style="fill:#ffffff;fill-opacity:1;fill-rule:nonzero;stroke:none"
         inkscape:connector-curvature="0" />
      <path
         id="path24818"
         d="m 424.1012,176.87712 c -5.81101,0 -10.55043,4.73942 -10.55043,10.55043 0,5.76973 4.73942,10.50924 10.55043,10.50924 5.81101,0 10.50924,-4.73951 10.50924,-10.50924 0,-5.81101 -4.69823,-10.55043 -10.50924,-10.55043"
         style="fill:#ffffff;fill-opacity:1;fill-rule:nonzero;stroke:none"
         inkscape:connector-curvature="0" />
      <path
         id="path24820"
         d="m 498.61366,185.65541 c 0,5.76974 4.69823,10.50924 10.50916,10.50924 5.81101,0 10.55043,-4.7395 10.55043,-10.50924 0,-5.81101 -4.73942,-10.55043 -10.55043,-10.55043 -5.81093,0 -10.50916,4.73942 -10.50916,10.55043"
         style="fill:#ffffff;fill-opacity:1;fill-rule:nonzero;stroke:none"
         inkscape:connector-curvature="0" />
      <path
         id="path24822"
         d="m 485.83768,196.65917 c -5.81092,0 -10.55043,4.73943 -10.55043,10.55044 0,5.811 4.73951,10.50924 10.55043,10.50924 5.81101,0 10.50924,-4.69824 10.50924,-10.50924 0,-5.81101 -4.69823,-10.55044 -10.50924,-10.55044"
         style="fill:#ffffff;fill-opacity:1;fill-rule:nonzero;stroke:none"
         inkscape:connector-curvature="0" />
      <path
         id="path24824"
         d="m 513.07923,233.95655 c 5.81101,0 10.55043,-4.69823 10.55043,-10.50916 0,-5.81101 -4.73942,-10.55043 -10.55043,-10.55043 -5.76974,0 -10.50916,4.73942 -10.50916,10.55043 0,5.81093 4.73942,10.50916 10.50916,10.50916"
         style="fill:#ffffff;fill-opacity:1;fill-rule:nonzero;stroke:none"
         inkscape:connector-curvature="0" />
      <path
         id="path24826"
         d="m 514.7278,250.85378 c -5.76982,0 -10.50924,4.73942 -10.50924,10.55043 0,5.81093 4.73942,10.50924 10.50924,10.50924 5.81092,0 10.55043,-4.69831 10.55043,-10.50924 0,-5.81101 -4.73951,-10.55043 -10.55043,-10.55043"
         style="fill:#ffffff;fill-opacity:1;fill-rule:nonzero;stroke:none"
         inkscape:connector-curvature="0" />
      <path
         id="path24828"
         d="m 477.76002,243.22945 c 0,5.76974 4.7395,10.50916 10.55043,10.50916 5.81101,0 10.50924,-4.73942 10.50924,-10.50916 0,-5.8522 -4.69823,-10.55043 -10.50924,-10.55043 -5.81093,0 -10.55043,4.69823 -10.55043,10.55043"
         style="fill:#ffffff;fill-opacity:1;fill-rule:nonzero;stroke:none"
         inkscape:connector-curvature="0" />
      <path
         id="path24830"
         d="m 463.91262,237.5009 c 5.8522,0 10.55043,-4.7395 10.55043,-10.50924 0,-5.81101 -4.69823,-10.55043 -10.55043,-10.55043 -5.76982,0 -10.50924,4.73942 -10.50924,10.55043 0,5.76974 4.73942,10.50924 10.50924,10.50924"
         style="fill:#ffffff;fill-opacity:1;fill-rule:nonzero;stroke:none"
         inkscape:connector-curvature="0" />
    </g>
  </g>
</svg>
